<svg width="40" height="30" viewBox="0 0 40 30" fill="none" xmlns="http://www.w3.org/2000/svg">
<g filter="url(#filter0_i_549_5051)">
<path d="M39.5236 5.66911C39.5236 4.38281 38.4808 3.34006 37.1945 3.34006H15.9662C15.2194 3.34006 14.5179 2.98193 14.0799 2.37705L13.0559 0.963001C12.6178 0.35813 11.9163 0 11.1695 0H2.32905C1.04275 0 0 1.04275 0 2.32905V11.0665C0 12.3528 1.04275 13.3956 2.32905 13.3956H37.1945C38.4808 13.3956 39.5236 12.3528 39.5236 11.0665V5.66911Z" fill="#0037FF"/>
</g>
<rect x="0.447266" y="4.49487" width="38.6483" height="6.29159" rx="1.34819" fill="#D9D9D9"/>
<rect x="0.447266" y="5.84351" width="38.6483" height="6.29159" rx="1.34819" fill="white"/>
<path d="M37.2178 5.22729C38.5041 5.22729 39.5469 6.2701 39.5469 7.5564V27.6707C39.5469 28.957 38.5041 29.9998 37.2178 29.9998H2.3291C1.0428 29.9998 0 28.957 0 27.6707V9.96851C0 8.6822 1.0428 7.6394 2.3291 7.6394H12.7256C13.3915 7.63929 13.9316 7.09931 13.9316 6.43335C13.9316 5.76729 14.4716 5.22729 15.1377 5.22729H37.2178Z" fill="url(#paint0_radial_549_5051)"/>
<path d="M37.2178 5.22729C38.5041 5.22729 39.5469 6.2701 39.5469 7.5564V27.6707C39.5469 28.957 38.5041 29.9998 37.2178 29.9998H2.3291C1.0428 29.9998 0 28.957 0 27.6707V9.96851C0 8.6822 1.0428 7.6394 2.3291 7.6394H12.7256C13.3915 7.63929 13.9316 7.09931 13.9316 6.43335C13.9316 5.76729 14.4716 5.22729 15.1377 5.22729H37.2178Z" stroke="white"/>
<defs>
<filter id="filter0_i_549_5051" x="0" y="-3.86481" width="39.5234" height="17.2603" filterUnits="userSpaceOnUse" color-interpolation-filters="sRGB">
<feFlood flood-opacity="0" result="BackgroundImageFix"/>
<feBlend mode="normal" in="SourceGraphic" in2="BackgroundImageFix" result="shape"/>
<feColorMatrix in="SourceAlpha" type="matrix" values="0 0 0 0 0 0 0 0 0 0 0 0 0 0 0 0 0 0 127 0" result="hardAlpha"/>
<feOffset dy="-5.39276"/>
<feGaussianBlur stdDeviation="1.9324"/>
<feComposite in2="hardAlpha" operator="arithmetic" k2="-1" k3="1"/>
<feColorMatrix type="matrix" values="0 0 0 0 0 0 0 0 0 0.170833 0 0 0 0 0.788462 0 0 0 1 0"/>
<feBlend mode="normal" in2="shape" result="effect1_innerShadow_549_5051"/>
</filter>
<radialGradient id="paint0_radial_549_5051" cx="0" cy="0" r="1" gradientUnits="userSpaceOnUse" gradientTransform="translate(19.7736 17.6137) rotate(90) scale(17.4389 27.8394)">
<stop stop-color="#9BB1FF"/>
<stop offset="1" stop-color="#0037FF"/>
</radialGradient>
</defs>
</svg>
