<svg width="213" height="210" viewBox="0 0 213 210" fill="none" xmlns="http://www.w3.org/2000/svg">
<path d="M110.823 12.7461C87.5923 33.0081 83.7509 48.4712 86.6074 60.0303C89.6936 72.5185 101.181 83.6674 115.723 93.6104C122.82 98.4629 130.271 102.786 137.162 106.678C143.898 110.482 150.404 114.038 155.04 117.104C157.345 118.629 159.602 120.295 161.299 122.077C162.722 123.572 165.327 126.767 164.696 131.089C164.591 131.81 164.409 132.475 164.171 133.086C192.232 145.782 210.715 167.435 210.715 192.015C210.715 231.121 163.929 182.878 106.215 182.878C48.5011 182.878 1.71484 231.121 1.71484 192.015C1.71495 152.908 48.5012 121.206 106.215 121.206C119.115 121.206 131.469 122.791 142.877 125.688C139.388 123.629 135.189 121.304 130.422 118.611C123.472 114.686 115.594 110.124 107.986 104.923C93.1199 94.7575 77.7016 81.1178 73.3027 63.3184C68.6745 44.5893 76.7691 24.2634 101.815 2.41797L110.823 12.7461Z" fill="url(#paint0_linear_231_1123)"/>
<path d="M110.823 12.7461L111.949 14.0371L113.24 12.9111L112.114 11.6201L110.823 12.7461ZM86.6074 60.0303L84.9443 60.4413L84.9443 60.4413L86.6074 60.0303ZM115.723 93.6104L114.756 95.0245L114.756 95.0245L115.723 93.6104ZM137.162 106.678L136.32 108.169L136.32 108.169L137.162 106.678ZM155.04 117.104L155.985 115.676L155.985 115.676L155.04 117.104ZM161.299 122.077L162.54 120.896L162.539 120.896L161.299 122.077ZM164.696 131.089L166.391 131.336L166.391 131.336L164.696 131.089ZM164.171 133.086L162.575 132.463L161.985 133.977L163.465 134.647L164.171 133.086ZM210.715 192.015L212.428 192.015L212.428 192.015L210.715 192.015ZM106.215 182.878L106.215 181.165H106.215V182.878ZM1.71484 192.015L0.00172901 192.015V192.015H1.71484ZM106.215 121.206L106.215 119.493H106.215V121.206ZM142.877 125.688L142.455 127.348L143.747 124.212L142.877 125.688ZM130.422 118.611L129.579 120.103L129.579 120.103L130.422 118.611ZM107.986 104.923L107.019 106.337L107.019 106.337L107.986 104.923ZM73.3027 63.3184L71.6396 63.7293L71.6397 63.7294L73.3027 63.3184ZM101.815 2.41797L103.106 1.29195L101.98 0.000859522L100.689 1.12693L101.815 2.41797ZM110.823 12.7461L109.697 11.4551C86.2353 31.9185 81.8672 47.9895 84.9443 60.4413L86.6074 60.0303L88.2705 59.6193C85.6346 48.953 88.9493 34.0978 111.949 14.0371L110.823 12.7461ZM86.6074 60.0303L84.9443 60.4413C88.1947 73.5938 100.174 85.0541 114.756 95.0245L115.723 93.6104L116.69 92.1962C102.188 82.2806 91.1925 71.4432 88.2705 59.6193L86.6074 60.0303ZM115.723 93.6104L114.756 95.0245C121.916 99.9207 129.422 104.274 136.32 108.169L137.162 106.678L138.005 105.186C131.121 101.298 123.723 97.0051 116.69 92.1962L115.723 93.6104ZM137.162 106.678L136.32 108.169C143.1 111.999 149.524 115.511 154.095 118.533L155.04 117.104L155.985 115.676C151.283 112.566 144.695 108.965 138.005 105.186L137.162 106.678ZM155.04 117.104L154.095 118.533C156.37 120.038 158.497 121.619 160.058 123.258L161.299 122.077L162.539 120.896C160.707 118.971 158.321 117.22 155.985 115.676L155.04 117.104ZM161.299 122.077L160.058 123.258C161.418 124.687 163.51 127.356 163.001 130.842L164.696 131.089L166.391 131.336C167.144 126.178 164.026 122.457 162.54 120.896L161.299 122.077ZM164.696 131.089L163.001 130.841C162.915 131.432 162.767 131.97 162.575 132.463L164.171 133.086L165.767 133.708C166.051 132.979 166.267 132.189 166.391 131.336L164.696 131.089ZM164.171 133.086L163.465 134.647C191.196 147.194 209.002 168.372 209.002 192.015L210.715 192.015L212.428 192.015C212.428 166.499 193.268 144.371 164.877 131.525L164.171 133.086ZM210.715 192.015H209.002C209.002 196.774 208.282 199.949 207.106 201.997C205.986 203.948 204.384 204.996 202.192 205.4C199.902 205.823 196.946 205.542 193.274 204.645C189.625 203.754 185.43 202.298 180.715 200.509C161.962 193.397 135.468 181.165 106.215 181.165L106.215 182.878L106.215 184.591C134.676 184.591 160.431 196.481 179.5 203.713C184.241 205.511 188.598 207.03 192.461 207.973C196.301 208.911 199.816 209.323 202.814 208.77C205.91 208.198 208.414 206.599 210.077 203.703C211.685 200.904 212.428 197.032 212.428 192.015H210.715ZM106.215 182.878V181.165C76.962 181.165 50.4673 193.397 31.7147 200.509C26.9999 202.298 22.8042 203.754 19.1554 204.645C15.4836 205.542 12.5281 205.823 10.2381 205.4C8.04577 204.996 6.44407 203.948 5.32341 201.997C4.14721 199.949 3.42796 196.774 3.42796 192.015H1.71484H0.00172901C0.00172901 197.032 0.744549 200.904 2.35242 203.703C4.01583 206.599 6.52018 208.198 9.61587 208.77C12.6139 209.323 16.1283 208.911 19.9682 207.973C23.8312 207.03 28.1891 205.511 32.9297 203.713C51.9986 196.481 77.754 184.591 106.215 184.591V182.878ZM1.71484 192.015L3.42796 192.015C3.42801 173.199 14.6823 155.967 33.2832 143.364C51.8746 130.766 77.6547 122.919 106.215 122.919V121.206V119.493C77.0613 119.493 50.5915 127.497 31.3613 140.527C12.1407 153.551 0.00178446 171.723 0.00172901 192.015L1.71484 192.015ZM106.215 121.206L106.215 122.919C118.976 122.919 131.188 124.487 142.455 127.348L142.877 125.688L143.299 124.027C131.75 121.095 119.255 119.493 106.215 119.493L106.215 121.206ZM142.877 125.688L143.747 124.212C140.24 122.142 136.012 119.801 131.264 117.12L130.422 118.611L129.579 120.103C134.366 122.806 138.536 125.115 142.006 127.163L142.877 125.688ZM130.422 118.611L131.264 117.12C124.322 113.199 116.497 108.667 108.953 103.509L107.986 104.923L107.019 106.337C114.69 111.582 122.623 116.174 129.579 120.103L130.422 118.611ZM107.986 104.923L108.953 103.509C94.1281 93.3716 79.2007 80.0432 74.9658 62.9074L73.3027 63.3184L71.6397 63.7294C76.2025 82.1924 92.1117 96.1435 107.019 106.337L107.986 104.923ZM73.3027 63.3184L74.9658 62.9074C70.5597 45.0772 78.1191 25.3591 102.941 3.70901L101.815 2.41797L100.689 1.12693C75.4192 23.1676 66.7892 44.1014 71.6396 63.7293L73.3027 63.3184ZM101.815 2.41797L100.524 3.54399L109.532 13.8721L110.823 12.7461L112.114 11.6201L103.106 1.29195L101.815 2.41797Z" fill="url(#paint1_linear_231_1123)"/>
<path d="M158.757 143.293C163.414 144.168 167.368 146.204 170.003 148.757C172.641 151.314 173.906 154.331 173.365 157.216C173.094 158.658 172.515 159.35 171.764 159.681C170.953 160.037 169.805 160.036 168.267 159.756C166.744 159.479 164.959 158.953 162.92 158.372C160.895 157.794 158.643 157.17 156.237 156.718C153.83 156.266 151.505 156.031 149.408 155.834C147.298 155.636 145.444 155.479 143.923 155.185C142.388 154.888 141.319 154.472 140.692 153.846C140.112 153.266 139.824 152.411 140.095 150.968C140.636 148.083 142.91 145.73 146.296 144.305C149.677 142.882 154.101 142.419 158.757 143.293Z" fill="url(#paint2_linear_231_1123)" stroke="url(#paint3_linear_231_1123)" stroke-width="1.18777"/>
<path d="M177.232 168.662C181.874 169.612 185.795 171.711 188.388 174.307C190.984 176.906 192.201 179.944 191.612 182.819C191.318 184.257 190.728 184.94 189.972 185.258C189.155 185.601 188.008 185.582 186.474 185.277C184.955 184.974 183.179 184.42 181.15 183.806C179.134 183.196 176.893 182.535 174.494 182.044C172.095 181.553 169.775 181.28 167.681 181.05C165.574 180.817 163.723 180.63 162.207 180.311C160.677 179.99 159.615 179.557 158.998 178.92C158.428 178.331 158.154 177.471 158.448 176.033C159.036 173.158 161.348 170.842 164.756 169.471C168.16 168.103 172.591 167.712 177.232 168.662Z" fill="url(#paint4_linear_231_1123)" stroke="url(#paint5_linear_231_1123)" stroke-width="1.18777"/>
<path d="M131.336 158.736C136.026 159.409 140.064 161.272 142.806 163.709C145.553 166.15 146.947 169.11 146.53 172.015C146.321 173.468 145.773 174.185 145.037 174.547C144.242 174.938 143.095 174.987 141.547 174.773C140.012 174.562 138.207 174.113 136.145 173.62C134.096 173.131 131.82 172.604 129.396 172.257C126.972 171.909 124.639 171.774 122.536 171.668C120.419 171.561 118.56 171.484 117.028 171.256C115.482 171.025 114.395 170.656 113.742 170.057C113.137 169.503 112.813 168.661 113.021 167.208C113.438 164.303 115.608 161.854 118.93 160.284C122.246 158.716 126.646 158.063 131.336 158.736Z" fill="url(#paint6_linear_231_1123)" stroke="url(#paint7_linear_231_1123)" stroke-width="1.18777"/>
<path d="M58.1788 144.586C68.7563 142.416 78.6626 142.478 86.1009 144.26C93.6871 146.078 98.0673 149.493 98.8878 153.493C99.7082 157.492 97.0261 162.355 90.7682 167.013C84.6324 171.58 75.5505 175.537 64.9729 177.707C54.3952 179.877 44.4883 179.815 37.0499 178.033C29.4635 176.215 25.0834 172.8 24.263 168.8C23.4427 164.801 26.1247 159.938 32.3825 155.28C38.5185 150.713 47.6011 146.756 58.1788 144.586Z" fill="url(#paint8_linear_231_1123)" stroke="url(#paint9_linear_231_1123)" stroke-width="3.42623"/>
<defs>
<linearGradient id="paint0_linear_231_1123" x1="87.3706" y1="9.85046" x2="133.625" y2="188.587" gradientUnits="userSpaceOnUse">
<stop stop-color="#D2ABF0"/>
<stop offset="0.962693" stop-color="#6E00CF"/>
</linearGradient>
<linearGradient id="paint1_linear_231_1123" x1="73.0946" y1="48.6814" x2="133.626" y2="169.742" gradientUnits="userSpaceOnUse">
<stop stop-color="#F1F6FF"/>
<stop offset="1" stop-color="#9747F3"/>
</linearGradient>
<linearGradient id="paint2_linear_231_1123" x1="158.867" y1="142.71" x2="155.986" y2="158.054" gradientUnits="userSpaceOnUse">
<stop stop-color="#EE4141"/>
<stop offset="1" stop-color="#8D0909"/>
</linearGradient>
<linearGradient id="paint3_linear_231_1123" x1="158.867" y1="142.71" x2="155.986" y2="158.054" gradientUnits="userSpaceOnUse">
<stop stop-color="#FF9C9C"/>
<stop offset="1" stop-color="#FF1414"/>
</linearGradient>
<linearGradient id="paint4_linear_231_1123" x1="177.352" y1="168.08" x2="174.222" y2="183.376" gradientUnits="userSpaceOnUse">
<stop stop-color="#EE4141"/>
<stop offset="1" stop-color="#8D0909"/>
</linearGradient>
<linearGradient id="paint5_linear_231_1123" x1="177.352" y1="168.08" x2="174.222" y2="183.376" gradientUnits="userSpaceOnUse">
<stop stop-color="#FF9C9C"/>
<stop offset="1" stop-color="#FF1414"/>
</linearGradient>
<linearGradient id="paint6_linear_231_1123" x1="131.42" y1="158.148" x2="129.203" y2="173.603" gradientUnits="userSpaceOnUse">
<stop stop-color="#EE4141"/>
<stop offset="1" stop-color="#8D0909"/>
</linearGradient>
<linearGradient id="paint7_linear_231_1123" x1="131.42" y1="158.148" x2="129.203" y2="173.603" gradientUnits="userSpaceOnUse">
<stop stop-color="#FF9C9C"/>
<stop offset="1" stop-color="#FF1414"/>
</linearGradient>
<linearGradient id="paint8_linear_231_1123" x1="54.2264" y1="151.523" x2="69.5268" y2="176.947" gradientUnits="userSpaceOnUse">
<stop stop-color="#D1FFB9"/>
<stop offset="1" stop-color="#00FF00"/>
</linearGradient>
<linearGradient id="paint9_linear_231_1123" x1="57.8341" y1="142.908" x2="65.3168" y2="179.385" gradientUnits="userSpaceOnUse">
<stop stop-color="#D3FF8D"/>
<stop offset="1" stop-color="#387A12"/>
</linearGradient>
</defs>
</svg>
