<svg width="1658" height="850" viewBox="0 0 1658 850" fill="none" xmlns="http://www.w3.org/2000/svg">
<g clip-path="url(#clip0_161_247)" filter="url(#filter0_dddddd_161_247)">
<rect width="1158" height="350" transform="translate(250 250)" fill="white"/>
<g filter="url(#filter1_d_161_247)">
<rect x="250" y="250" width="1158" height="38" fill="#135FFF"/>
</g>
<g filter="url(#filter2_d_161_247)">
<rect x="1388" y="585" width="278" height="20" transform="rotate(-90 1388 585)" fill="#ECEAD5"/>
</g>
<g filter="url(#filter3_d_161_247)">
<rect x="250" y="288" width="1158" height="34" fill="#ECEAD5"/>
</g>
<g filter="url(#filter4_d_161_247)">
<rect x="250" y="584" width="1158" height="17" fill="#ECEAD5"/>
</g>
<g filter="url(#filter5_d_161_247)">
<rect x="270" y="567" width="1204" height="17" fill="#ECEAD5"/>
</g>
<g filter="url(#filter6_d_161_247)">
<rect x="250" y="600" width="278" height="20" transform="rotate(-90 250 600)" fill="#ECEAD5"/>
</g>
<path d="M258.272 298.666H264.495V299.976H262.034V308H260.733V299.976H258.272V298.666ZM265.484 311.595L265.343 310.109C265.63 310.203 265.876 310.25 266.081 310.25C266.357 310.25 266.582 310.194 266.758 310.083C266.94 309.972 267.089 309.799 267.206 309.564C267.247 309.482 267.417 308.967 267.716 308.018L264.807 298.666H266.204L267.804 304.071C268.003 304.745 268.188 305.466 268.358 306.233C268.504 305.507 268.68 304.798 268.885 304.106L270.52 298.666H271.821L268.911 308.158C268.531 309.389 268.229 310.209 268.006 310.619C267.789 311.035 267.54 311.334 267.259 311.516C266.984 311.697 266.67 311.788 266.319 311.788C266.073 311.788 265.794 311.724 265.484 311.595ZM272.027 298.666H278.25V299.976H275.789V308H274.488V299.976H272.027V298.666ZM283.25 298.666H285.271L287.284 306.137L289.508 298.666H291.38V308H290.079V300.485L287.82 308H286.66L284.516 300.125V308H283.25V298.666ZM292.667 303.333C292.667 301.722 293.004 300.506 293.678 299.686C294.358 298.865 295.216 298.455 296.253 298.455C297.273 298.455 298.125 298.865 298.811 299.686C299.496 300.506 299.839 301.689 299.839 303.236C299.839 304.912 299.502 306.16 298.828 306.98C298.155 307.801 297.296 308.211 296.253 308.211C295.228 308.211 294.372 307.801 293.687 306.98C293.007 306.154 292.667 304.938 292.667 303.333ZM293.994 303.333C293.994 304.54 294.214 305.439 294.654 306.031C295.093 306.617 295.638 306.91 296.288 306.91C296.898 306.91 297.419 306.614 297.853 306.022C298.292 305.425 298.512 304.528 298.512 303.333C298.512 302.132 298.292 301.238 297.853 300.652C297.413 300.061 296.868 299.765 296.218 299.765C295.603 299.765 295.078 300.061 294.645 300.652C294.211 301.244 293.994 302.138 293.994 303.333ZM305.82 298.666V302.7C306.23 302.7 306.517 302.604 306.681 302.41C306.851 302.217 307.097 301.654 307.419 300.723C307.677 299.979 307.885 299.489 308.043 299.255C308.208 299.015 308.389 298.856 308.588 298.78C308.788 298.704 309.139 298.666 309.643 298.666H309.836V299.976L309.45 299.967C309.192 299.967 309.001 300.011 308.878 300.099C308.761 300.187 308.656 300.38 308.562 300.679C308.269 301.622 308.038 302.229 307.868 302.498C307.698 302.768 307.428 303.005 307.059 303.21C307.622 303.392 308.169 304.024 308.703 305.108L310.126 308H308.703L307.314 305.108C307.027 304.517 306.775 304.133 306.558 303.957C306.347 303.775 306.101 303.685 305.82 303.685V308H304.493V303.685C304.206 303.685 303.957 303.772 303.746 303.948C303.535 304.118 303.283 304.505 302.99 305.108L301.601 308H300.177L301.601 305.108C302.14 304.019 302.688 303.386 303.245 303.21C302.887 303.011 302.624 302.788 302.454 302.542C302.29 302.296 302.052 301.675 301.742 300.679C301.654 300.386 301.548 300.195 301.425 300.107C301.308 300.014 301.118 299.967 300.854 299.967L300.467 299.976V298.666H300.661C301.182 298.666 301.551 298.713 301.768 298.807C301.985 298.9 302.166 299.076 302.313 299.334C302.465 299.586 302.7 300.175 303.016 301.101C303.262 301.81 303.467 302.255 303.631 302.437C303.795 302.612 304.083 302.7 304.493 302.7V298.666H305.82ZM310.869 298.666H312.161V302.551H315.764V298.666H317.056V308H315.764V303.86H312.161V308H310.869V298.666ZM318.317 303.333C318.317 301.722 318.654 300.506 319.328 299.686C320.008 298.865 320.866 298.455 321.903 298.455C322.923 298.455 323.775 298.865 324.461 299.686C325.146 300.506 325.489 301.689 325.489 303.236C325.489 304.912 325.152 306.16 324.479 306.98C323.805 307.801 322.946 308.211 321.903 308.211C320.878 308.211 320.022 307.801 319.337 306.98C318.657 306.154 318.317 304.938 318.317 303.333ZM319.645 303.333C319.645 304.54 319.864 305.439 320.304 306.031C320.743 306.617 321.288 306.91 321.938 306.91C322.548 306.91 323.069 306.614 323.503 306.022C323.942 305.425 324.162 304.528 324.162 303.333C324.162 302.132 323.942 301.238 323.503 300.652C323.063 300.061 322.519 299.765 321.868 299.765C321.253 299.765 320.729 300.061 320.295 300.652C319.861 301.244 319.645 302.138 319.645 303.333ZM330.762 298.666H336.8V308H335.508V299.976H332.054V308H330.762V298.666ZM338.044 303.333C338.044 301.722 338.381 300.506 339.054 299.686C339.734 298.865 340.593 298.455 341.63 298.455C342.649 298.455 343.502 298.865 344.187 299.686C344.873 300.506 345.216 301.689 345.216 303.236C345.216 304.912 344.879 306.16 344.205 306.98C343.531 307.801 342.673 308.211 341.63 308.211C340.604 308.211 339.749 307.801 339.063 306.98C338.384 306.154 338.044 304.938 338.044 303.333ZM339.371 303.333C339.371 304.54 339.591 305.439 340.03 306.031C340.469 306.617 341.014 306.91 341.665 306.91C342.274 306.91 342.796 306.614 343.229 306.022C343.669 305.425 343.888 304.528 343.888 303.333C343.888 302.132 343.669 301.238 343.229 300.652C342.79 300.061 342.245 299.765 341.594 299.765C340.979 299.765 340.455 300.061 340.021 300.652C339.588 301.244 339.371 302.138 339.371 303.333ZM346.081 298.666H347.373V300.433C347.373 301.206 347.414 301.771 347.496 302.129C347.578 302.48 347.763 302.776 348.05 303.017C348.337 303.251 348.68 303.368 349.078 303.368C349.576 303.368 350.218 303.21 351.003 302.894V298.666H352.295V308H351.003V304.238C350.2 304.543 349.453 304.695 348.762 304.695C348.006 304.695 347.37 304.399 346.854 303.808C346.339 303.21 346.081 302.311 346.081 301.109V298.666ZM354.066 298.666H355.358V305.785L358.961 298.666H360.359V308H359.067V300.925L355.463 308H354.066V298.666ZM361.426 298.666H367.649V299.976H365.188V308H363.887V299.976H361.426V298.666ZM373.665 306.849C373.231 307.3 372.78 307.64 372.311 307.868C371.842 308.097 371.356 308.211 370.852 308.211C370.055 308.211 369.42 307.971 368.945 307.49C368.47 307.01 368.233 306.362 368.233 305.548C368.233 305.009 368.344 304.531 368.567 304.115C368.79 303.699 369.094 303.374 369.481 303.14C369.868 302.905 370.454 302.732 371.239 302.621C372.294 302.469 373.067 302.287 373.559 302.076L373.568 301.672C373.568 301.033 373.454 300.585 373.225 300.327C372.903 299.952 372.408 299.765 371.74 299.765C371.136 299.765 370.685 299.891 370.386 300.143C370.088 300.389 369.868 300.854 369.727 301.54L368.453 301.329C368.634 300.327 369.001 299.598 369.551 299.141C370.108 298.684 370.902 298.455 371.933 298.455C372.736 298.455 373.366 298.607 373.823 298.912C374.28 299.211 374.567 299.583 374.684 300.028C374.807 300.474 374.869 301.124 374.869 301.979V304.089C374.869 305.565 374.895 306.497 374.948 306.884C375.007 307.265 375.118 307.637 375.282 308H373.928C373.794 307.678 373.706 307.294 373.665 306.849ZM373.559 303.315C373.085 303.55 372.379 303.749 371.441 303.913C370.896 304.007 370.515 304.115 370.299 304.238C370.082 304.355 369.912 304.525 369.789 304.748C369.672 304.965 369.613 305.217 369.613 305.504C369.613 305.949 369.751 306.307 370.026 306.576C370.301 306.84 370.682 306.972 371.169 306.972C371.632 306.972 372.051 306.852 372.426 306.611C372.806 306.371 373.091 306.052 373.278 305.653C373.466 305.249 373.559 304.663 373.559 303.896V303.315ZM376.007 298.666H382.229V299.976H379.769V308H378.468V299.976H376.007V298.666ZM383.253 298.666H384.545V302.313H386.197C387.381 302.313 388.234 302.592 388.755 303.148C389.277 303.705 389.537 304.379 389.537 305.17C389.537 305.92 389.3 306.579 388.825 307.147C388.357 307.716 387.58 308 386.496 308H383.253V298.666ZM384.545 306.699H385.907C386.898 306.699 387.528 306.541 387.797 306.225C388.067 305.908 388.201 305.56 388.201 305.179C388.201 304.681 388.046 304.297 387.736 304.027C387.425 303.758 386.874 303.623 386.083 303.623H384.545V306.699ZM391.167 308V306.198H392.644V308H391.167ZM395.083 308V306.198H396.559V308H395.083ZM398.998 308V306.198H400.475V308H398.998ZM402.913 308V306.198H404.39V308H402.913ZM406.829 308V306.198H408.305V308H406.829Z" fill="black"/>
<g filter="url(#filter7_d_161_247)">
<rect x="1292" y="255" width="28" height="28" rx="6" fill="#3F7FF8"/>
<rect x="1292.5" y="255.5" width="27" height="27" rx="5.5" stroke="white"/>
</g>
<g filter="url(#filter8_d_161_247)">
<rect x="1329" y="255" width="28" height="28" rx="6" fill="#3F7FF8"/>
<rect x="1329.5" y="255.5" width="27" height="27" rx="5.5" stroke="white"/>
</g>
<g filter="url(#filter9_d_161_247)">
<rect x="1366" y="255" width="28" height="28" rx="6" fill="#FF5151"/>
<rect x="1366.5" y="255.5" width="27" height="27" rx="5.5" stroke="white"/>
</g>
<rect x="1295" y="275" width="14" height="3" fill="white"/>
<rect x="1334" y="262" width="16" height="2" fill="white"/>
<rect x="1334" y="275" width="16" height="2" fill="white"/>
<rect x="1336" y="263" width="13" height="2" transform="rotate(90 1336 263)" fill="white"/>
<path d="M1307.74 275H1305.22L1304.21 271.813H1299.62L1298.67 275H1296.2L1300.68 260.97H1303.14L1307.74 275ZM1303.46 269.449L1301.89 264.243L1300.33 269.449H1303.46Z" fill="white"/>
<path d="M1383.52 277.672L1370.6 268.432L1372.06 266.397L1380.67 272.554L1375.12 262.114L1376.66 259.973L1389.57 269.213L1388.12 271.248L1379.69 265.223L1385.06 275.522L1383.52 277.672Z" fill="white"/>
</g>
<defs>
<filter id="filter0_dddddd_161_247" x="0" y="0" width="1658" height="850" filterUnits="userSpaceOnUse" color-interpolation-filters="sRGB">
<feFlood flood-opacity="0" result="BackgroundImageFix"/>
<feColorMatrix in="SourceAlpha" type="matrix" values="0 0 0 0 0 0 0 0 0 0 0 0 0 0 0 0 0 0 127 0" result="hardAlpha"/>
<feOffset/>
<feGaussianBlur stdDeviation="3.0099"/>
<feColorMatrix type="matrix" values="0 0 0 0 1 0 0 0 0 1 0 0 0 0 1 0 0 0 1 0"/>
<feBlend mode="normal" in2="BackgroundImageFix" result="effect1_dropShadow_161_247"/>
<feColorMatrix in="SourceAlpha" type="matrix" values="0 0 0 0 0 0 0 0 0 0 0 0 0 0 0 0 0 0 127 0" result="hardAlpha"/>
<feOffset/>
<feGaussianBlur stdDeviation="6.01979"/>
<feColorMatrix type="matrix" values="0 0 0 0 1 0 0 0 0 1 0 0 0 0 1 0 0 0 1 0"/>
<feBlend mode="normal" in2="effect1_dropShadow_161_247" result="effect2_dropShadow_161_247"/>
<feColorMatrix in="SourceAlpha" type="matrix" values="0 0 0 0 0 0 0 0 0 0 0 0 0 0 0 0 0 0 127 0" result="hardAlpha"/>
<feOffset/>
<feGaussianBlur stdDeviation="21.0693"/>
<feColorMatrix type="matrix" values="0 0 0 0 1 0 0 0 0 1 0 0 0 0 1 0 0 0 1 0"/>
<feBlend mode="normal" in2="effect2_dropShadow_161_247" result="effect3_dropShadow_161_247"/>
<feColorMatrix in="SourceAlpha" type="matrix" values="0 0 0 0 0 0 0 0 0 0 0 0 0 0 0 0 0 0 127 0" result="hardAlpha"/>
<feOffset/>
<feGaussianBlur stdDeviation="42.1385"/>
<feColorMatrix type="matrix" values="0 0 0 0 1 0 0 0 0 1 0 0 0 0 1 0 0 0 1 0"/>
<feBlend mode="normal" in2="effect3_dropShadow_161_247" result="effect4_dropShadow_161_247"/>
<feColorMatrix in="SourceAlpha" type="matrix" values="0 0 0 0 0 0 0 0 0 0 0 0 0 0 0 0 0 0 127 0" result="hardAlpha"/>
<feOffset/>
<feGaussianBlur stdDeviation="72.2375"/>
<feColorMatrix type="matrix" values="0 0 0 0 1 0 0 0 0 1 0 0 0 0 1 0 0 0 1 0"/>
<feBlend mode="normal" in2="effect4_dropShadow_161_247" result="effect5_dropShadow_161_247"/>
<feColorMatrix in="SourceAlpha" type="matrix" values="0 0 0 0 0 0 0 0 0 0 0 0 0 0 0 0 0 0 127 0" result="hardAlpha"/>
<feOffset/>
<feGaussianBlur stdDeviation="125"/>
<feColorMatrix type="matrix" values="0 0 0 0 1 0 0 0 0 1 0 0 0 0 1 0 0 0 1 0"/>
<feBlend mode="normal" in2="effect5_dropShadow_161_247" result="effect6_dropShadow_161_247"/>
<feBlend mode="normal" in="SourceGraphic" in2="effect6_dropShadow_161_247" result="shape"/>
</filter>
<filter id="filter1_d_161_247" x="243" y="247" width="1172" height="52" filterUnits="userSpaceOnUse" color-interpolation-filters="sRGB">
<feFlood flood-opacity="0" result="BackgroundImageFix"/>
<feColorMatrix in="SourceAlpha" type="matrix" values="0 0 0 0 0 0 0 0 0 0 0 0 0 0 0 0 0 0 127 0" result="hardAlpha"/>
<feOffset dy="4"/>
<feGaussianBlur stdDeviation="3.5"/>
<feComposite in2="hardAlpha" operator="out"/>
<feColorMatrix type="matrix" values="0 0 0 0 0 0 0 0 0 0 0 0 0 0 0 0 0 0 0.25 0"/>
<feBlend mode="normal" in2="BackgroundImageFix" result="effect1_dropShadow_161_247"/>
<feBlend mode="normal" in="SourceGraphic" in2="effect1_dropShadow_161_247" result="shape"/>
</filter>
<filter id="filter2_d_161_247" x="1384" y="307" width="28" height="286" filterUnits="userSpaceOnUse" color-interpolation-filters="sRGB">
<feFlood flood-opacity="0" result="BackgroundImageFix"/>
<feColorMatrix in="SourceAlpha" type="matrix" values="0 0 0 0 0 0 0 0 0 0 0 0 0 0 0 0 0 0 127 0" result="hardAlpha"/>
<feOffset dy="4"/>
<feGaussianBlur stdDeviation="2"/>
<feComposite in2="hardAlpha" operator="out"/>
<feColorMatrix type="matrix" values="0 0 0 0 0 0 0 0 0 0 0 0 0 0 0 0 0 0 0.25 0"/>
<feBlend mode="normal" in2="BackgroundImageFix" result="effect1_dropShadow_161_247"/>
<feBlend mode="normal" in="SourceGraphic" in2="effect1_dropShadow_161_247" result="shape"/>
</filter>
<filter id="filter3_d_161_247" x="246" y="288" width="1166" height="42" filterUnits="userSpaceOnUse" color-interpolation-filters="sRGB">
<feFlood flood-opacity="0" result="BackgroundImageFix"/>
<feColorMatrix in="SourceAlpha" type="matrix" values="0 0 0 0 0 0 0 0 0 0 0 0 0 0 0 0 0 0 127 0" result="hardAlpha"/>
<feOffset dy="4"/>
<feGaussianBlur stdDeviation="2"/>
<feComposite in2="hardAlpha" operator="out"/>
<feColorMatrix type="matrix" values="0 0 0 0 0 0 0 0 0 0 0 0 0 0 0 0 0 0 0.25 0"/>
<feBlend mode="normal" in2="BackgroundImageFix" result="effect1_dropShadow_161_247"/>
<feBlend mode="normal" in="SourceGraphic" in2="effect1_dropShadow_161_247" result="shape"/>
</filter>
<filter id="filter4_d_161_247" x="246" y="584" width="1166" height="25" filterUnits="userSpaceOnUse" color-interpolation-filters="sRGB">
<feFlood flood-opacity="0" result="BackgroundImageFix"/>
<feColorMatrix in="SourceAlpha" type="matrix" values="0 0 0 0 0 0 0 0 0 0 0 0 0 0 0 0 0 0 127 0" result="hardAlpha"/>
<feOffset dy="4"/>
<feGaussianBlur stdDeviation="2"/>
<feComposite in2="hardAlpha" operator="out"/>
<feColorMatrix type="matrix" values="0 0 0 0 0 0 0 0 0 0 0 0 0 0 0 0 0 0 0.25 0"/>
<feBlend mode="normal" in2="BackgroundImageFix" result="effect1_dropShadow_161_247"/>
<feBlend mode="normal" in="SourceGraphic" in2="effect1_dropShadow_161_247" result="shape"/>
</filter>
<filter id="filter5_d_161_247" x="266" y="567" width="1212" height="25" filterUnits="userSpaceOnUse" color-interpolation-filters="sRGB">
<feFlood flood-opacity="0" result="BackgroundImageFix"/>
<feColorMatrix in="SourceAlpha" type="matrix" values="0 0 0 0 0 0 0 0 0 0 0 0 0 0 0 0 0 0 127 0" result="hardAlpha"/>
<feOffset dy="4"/>
<feGaussianBlur stdDeviation="2"/>
<feComposite in2="hardAlpha" operator="out"/>
<feColorMatrix type="matrix" values="0 0 0 0 0 0 0 0 0 0 0 0 0 0 0 0 0 0 0.25 0"/>
<feBlend mode="normal" in2="BackgroundImageFix" result="effect1_dropShadow_161_247"/>
<feBlend mode="normal" in="SourceGraphic" in2="effect1_dropShadow_161_247" result="shape"/>
</filter>
<filter id="filter6_d_161_247" x="246" y="322" width="28" height="286" filterUnits="userSpaceOnUse" color-interpolation-filters="sRGB">
<feFlood flood-opacity="0" result="BackgroundImageFix"/>
<feColorMatrix in="SourceAlpha" type="matrix" values="0 0 0 0 0 0 0 0 0 0 0 0 0 0 0 0 0 0 127 0" result="hardAlpha"/>
<feOffset dy="4"/>
<feGaussianBlur stdDeviation="2"/>
<feComposite in2="hardAlpha" operator="out"/>
<feColorMatrix type="matrix" values="0 0 0 0 0 0 0 0 0 0 0 0 0 0 0 0 0 0 0.25 0"/>
<feBlend mode="normal" in2="BackgroundImageFix" result="effect1_dropShadow_161_247"/>
<feBlend mode="normal" in="SourceGraphic" in2="effect1_dropShadow_161_247" result="shape"/>
</filter>
<filter id="filter7_d_161_247" x="1288" y="255" width="36" height="36" filterUnits="userSpaceOnUse" color-interpolation-filters="sRGB">
<feFlood flood-opacity="0" result="BackgroundImageFix"/>
<feColorMatrix in="SourceAlpha" type="matrix" values="0 0 0 0 0 0 0 0 0 0 0 0 0 0 0 0 0 0 127 0" result="hardAlpha"/>
<feOffset dy="4"/>
<feGaussianBlur stdDeviation="2"/>
<feComposite in2="hardAlpha" operator="out"/>
<feColorMatrix type="matrix" values="0 0 0 0 0 0 0 0 0 0 0 0 0 0 0 0 0 0 0.25 0"/>
<feBlend mode="normal" in2="BackgroundImageFix" result="effect1_dropShadow_161_247"/>
<feBlend mode="normal" in="SourceGraphic" in2="effect1_dropShadow_161_247" result="shape"/>
</filter>
<filter id="filter8_d_161_247" x="1325" y="255" width="36" height="36" filterUnits="userSpaceOnUse" color-interpolation-filters="sRGB">
<feFlood flood-opacity="0" result="BackgroundImageFix"/>
<feColorMatrix in="SourceAlpha" type="matrix" values="0 0 0 0 0 0 0 0 0 0 0 0 0 0 0 0 0 0 127 0" result="hardAlpha"/>
<feOffset dy="4"/>
<feGaussianBlur stdDeviation="2"/>
<feComposite in2="hardAlpha" operator="out"/>
<feColorMatrix type="matrix" values="0 0 0 0 0 0 0 0 0 0 0 0 0 0 0 0 0 0 0.25 0"/>
<feBlend mode="normal" in2="BackgroundImageFix" result="effect1_dropShadow_161_247"/>
<feBlend mode="normal" in="SourceGraphic" in2="effect1_dropShadow_161_247" result="shape"/>
</filter>
<filter id="filter9_d_161_247" x="1362" y="255" width="36" height="36" filterUnits="userSpaceOnUse" color-interpolation-filters="sRGB">
<feFlood flood-opacity="0" result="BackgroundImageFix"/>
<feColorMatrix in="SourceAlpha" type="matrix" values="0 0 0 0 0 0 0 0 0 0 0 0 0 0 0 0 0 0 127 0" result="hardAlpha"/>
<feOffset dy="4"/>
<feGaussianBlur stdDeviation="2"/>
<feComposite in2="hardAlpha" operator="out"/>
<feColorMatrix type="matrix" values="0 0 0 0 0 0 0 0 0 0 0 0 0 0 0 0 0 0 0.25 0"/>
<feBlend mode="normal" in2="BackgroundImageFix" result="effect1_dropShadow_161_247"/>
<feBlend mode="normal" in="SourceGraphic" in2="effect1_dropShadow_161_247" result="shape"/>
</filter>
<clipPath id="clip0_161_247">
<rect width="1158" height="350" fill="white" transform="translate(250 250)"/>
</clipPath>
</defs>
</svg>
