<svg width="213" height="210" viewBox="0 0 213 210" fill="none" xmlns="http://www.w3.org/2000/svg">
<path d="M110.824 12.7461C87.5933 33.0081 83.751 48.4712 86.6074 60.0303C89.6936 72.5185 101.181 83.6674 115.723 93.6104C122.82 98.463 130.271 102.786 137.162 106.678C143.898 110.482 150.404 114.038 155.04 117.104C157.346 118.629 159.603 120.295 161.3 122.077C162.723 123.572 165.327 126.768 164.696 131.09C164.591 131.811 164.409 132.475 164.171 133.086C192.232 145.782 210.715 167.436 210.715 192.015C210.715 231.121 163.929 182.878 106.215 182.878C48.5011 182.878 1.71484 231.121 1.71484 192.015C1.7151 152.908 48.5013 121.206 106.215 121.206C119.115 121.206 131.469 122.791 142.877 125.688C139.388 123.629 135.189 121.304 130.422 118.611C123.473 114.686 115.594 110.124 107.986 104.923C93.1199 94.7576 77.7016 81.1177 73.3027 63.3184C68.6745 44.5893 76.7692 24.2633 101.815 2.41797L110.824 12.7461Z" fill="url(#paint0_linear_231_1134)"/>
<path d="M110.824 12.7461L111.95 14.0371L113.241 12.9111L112.115 11.62L110.824 12.7461ZM86.6074 60.0303L84.9443 60.4413L84.9443 60.4413L86.6074 60.0303ZM115.723 93.6104L114.756 95.0245L114.756 95.0245L115.723 93.6104ZM137.162 106.678L136.32 108.169L136.32 108.169L137.162 106.678ZM155.04 117.104L155.985 115.676L155.985 115.676L155.04 117.104ZM161.3 122.077L162.541 120.896L162.54 120.896L161.3 122.077ZM164.696 131.09L166.391 131.337L166.391 131.337L164.696 131.09ZM164.171 133.086L162.575 132.463L161.985 133.977L163.465 134.647L164.171 133.086ZM210.715 192.015L212.428 192.015L212.428 192.015L210.715 192.015ZM106.215 182.878L106.215 181.165H106.215V182.878ZM1.71484 192.015L0.00172913 192.015V192.015H1.71484ZM106.215 121.206L106.215 119.493H106.215V121.206ZM142.877 125.688L142.455 127.348L143.747 124.212L142.877 125.688ZM130.422 118.611L129.579 120.103L129.579 120.103L130.422 118.611ZM107.986 104.923L107.019 106.337L107.019 106.337L107.986 104.923ZM73.3027 63.3184L71.6396 63.7293L71.6397 63.7294L73.3027 63.3184ZM101.815 2.41797L103.106 1.29188L101.98 0.000919271L100.689 1.12693L101.815 2.41797ZM110.824 12.7461L109.698 11.4551C86.2364 31.9184 81.8672 47.9894 84.9443 60.4413L86.6074 60.0303L88.2705 59.6193C85.6347 48.9531 88.9502 34.0978 111.95 14.0371L110.824 12.7461ZM86.6074 60.0303L84.9443 60.4413C88.1947 73.5938 100.174 85.0541 114.756 95.0245L115.723 93.6104L116.69 92.1962C102.188 82.2806 91.1925 71.4432 88.2705 59.6193L86.6074 60.0303ZM115.723 93.6104L114.756 95.0245C121.916 99.9208 129.422 104.273 136.32 108.169L137.162 106.678L138.005 105.186C131.121 101.298 123.723 97.0052 116.69 92.1962L115.723 93.6104ZM137.162 106.678L136.32 108.169C143.101 111.999 149.524 115.511 154.095 118.533L155.04 117.104L155.985 115.676C151.283 112.566 144.696 108.965 138.005 105.186L137.162 106.678ZM155.04 117.104L154.095 118.533C156.371 120.038 158.498 121.619 160.059 123.258L161.3 122.077L162.54 120.896C160.707 118.971 158.321 117.22 155.985 115.676L155.04 117.104ZM161.3 122.077L160.059 123.258C161.419 124.687 163.51 127.357 163.001 130.842L164.696 131.09L166.391 131.337C167.144 126.179 164.027 122.457 162.541 120.896L161.3 122.077ZM164.696 131.09L163.001 130.842C162.915 131.432 162.767 131.97 162.575 132.463L164.171 133.086L165.767 133.708C166.051 132.98 166.267 132.19 166.391 131.337L164.696 131.09ZM164.171 133.086L163.465 134.647C191.196 147.194 209.002 168.372 209.002 192.015L210.715 192.015L212.428 192.015C212.428 166.499 193.268 144.371 164.877 131.525L164.171 133.086ZM210.715 192.015H209.002C209.002 196.774 208.282 199.949 207.106 201.997C205.986 203.948 204.384 204.996 202.192 205.4C199.902 205.823 196.946 205.542 193.274 204.645C189.625 203.754 185.43 202.298 180.715 200.509C161.962 193.397 135.468 181.165 106.215 181.165L106.215 182.878L106.215 184.591C134.676 184.591 160.431 196.481 179.5 203.713C184.241 205.511 188.598 207.03 192.461 207.973C196.301 208.911 199.816 209.323 202.814 208.77C205.91 208.198 208.414 206.599 210.077 203.703C211.685 200.904 212.428 197.032 212.428 192.015H210.715ZM106.215 182.878V181.165C76.962 181.165 50.4673 193.397 31.7147 200.509C26.9999 202.298 22.8042 203.754 19.1554 204.645C15.4836 205.542 12.5281 205.823 10.2381 205.4C8.04577 204.996 6.44407 203.948 5.32341 201.997C4.14721 199.949 3.42796 196.774 3.42796 192.015H1.71484H0.00172913C0.00172913 197.032 0.744549 200.904 2.35242 203.703C4.01583 206.599 6.52018 208.198 9.61587 208.77C12.6139 209.323 16.1283 208.911 19.9682 207.973C23.8312 207.03 28.1891 205.511 32.9297 203.713C51.9986 196.481 77.754 184.591 106.215 184.591V182.878ZM1.71484 192.015L3.42796 192.015C3.42808 173.199 14.6824 155.968 33.2833 143.364C51.8747 130.766 77.6548 122.919 106.215 122.919V121.206V119.493C77.0614 119.493 50.5915 127.497 31.3614 140.527C12.1408 153.551 0.00186352 171.723 0.00172913 192.015L1.71484 192.015ZM106.215 121.206L106.215 122.919C118.976 122.919 131.188 124.487 142.455 127.348L142.877 125.688L143.299 124.027C131.75 121.095 119.254 119.493 106.215 119.493L106.215 121.206ZM142.877 125.688L143.747 124.212C140.24 122.142 136.012 119.801 131.264 117.12L130.422 118.611L129.579 120.103C134.366 122.806 138.536 125.115 142.006 127.163L142.877 125.688ZM130.422 118.611L131.264 117.12C124.322 113.199 116.497 108.667 108.953 103.509L107.986 104.923L107.019 106.337C114.69 111.582 122.623 116.174 129.579 120.103L130.422 118.611ZM107.986 104.923L108.953 103.509C94.1281 93.3716 79.2007 80.0431 74.9658 62.9074L73.3027 63.3184L71.6397 63.7294C76.2025 82.1924 92.1118 96.1435 107.019 106.337L107.986 104.923ZM73.3027 63.3184L74.9658 62.9074C70.5597 45.0773 78.1192 25.3591 102.941 3.70901L101.815 2.41797L100.689 1.12693C75.4193 23.1675 66.7893 44.1014 71.6396 63.7293L73.3027 63.3184ZM101.815 2.41797L100.524 3.54406L109.533 13.8722L110.824 12.7461L112.115 11.62L103.106 1.29188L101.815 2.41797Z" fill="url(#paint1_linear_231_1134)"/>
<path d="M158.75 143.293C163.406 144.168 167.361 146.204 169.995 148.757C172.633 151.314 173.899 154.331 173.357 157.216C173.086 158.658 172.508 159.35 171.756 159.681C170.945 160.037 169.798 160.036 168.259 159.756C166.736 159.479 164.951 158.953 162.912 158.372C160.887 157.794 158.635 157.17 156.229 156.718C153.822 156.266 151.497 156.031 149.401 155.834C147.29 155.636 145.436 155.479 143.915 155.185C142.38 154.888 141.311 154.472 140.684 153.846C140.104 153.266 139.816 152.411 140.087 150.968C140.629 148.083 142.902 145.73 146.288 144.305C149.669 142.882 154.093 142.419 158.75 143.293Z" fill="url(#paint2_linear_231_1134)" stroke="url(#paint3_linear_231_1134)" stroke-width="1.18777"/>
<path d="M177.228 168.662C181.87 169.612 185.791 171.711 188.384 174.307C190.981 176.906 192.197 179.944 191.608 182.819C191.314 184.257 190.724 184.94 189.968 185.258C189.151 185.601 188.004 185.582 186.47 185.277C184.951 184.974 183.175 184.42 181.146 183.806C179.131 183.196 176.889 182.535 174.49 182.044C172.091 181.553 169.771 181.28 167.677 181.05C165.57 180.817 163.719 180.63 162.204 180.311C160.673 179.99 159.611 179.557 158.994 178.92C158.424 178.331 158.15 177.471 158.444 176.033C159.032 173.158 161.344 170.842 164.752 169.471C168.156 168.103 172.587 167.712 177.228 168.662Z" fill="url(#paint4_linear_231_1134)" stroke="url(#paint5_linear_231_1134)" stroke-width="1.18777"/>
<path d="M131.332 158.736C136.022 159.409 140.06 161.272 142.802 163.709C145.549 166.15 146.943 169.11 146.526 172.015C146.317 173.468 145.769 174.185 145.033 174.547C144.238 174.938 143.092 174.987 141.543 174.773C140.009 174.562 138.203 174.113 136.141 173.62C134.092 173.131 131.816 172.604 129.392 172.257C126.968 171.909 124.636 171.774 122.532 171.668C120.415 171.561 118.556 171.484 117.024 171.256C115.478 171.025 114.391 170.656 113.738 170.057C113.134 169.503 112.809 168.661 113.017 167.208C113.434 164.303 115.604 161.854 118.926 160.284C122.242 158.716 126.642 158.063 131.332 158.736Z" fill="url(#paint6_linear_231_1134)" stroke="url(#paint7_linear_231_1134)" stroke-width="1.18777"/>
<path d="M58.1788 144.584C68.7563 142.414 78.6626 142.476 86.1009 144.258C93.6871 146.076 98.0673 149.491 98.8878 153.491C99.7082 157.49 97.0261 162.353 90.7682 167.011C84.6324 171.578 75.5505 175.535 64.9729 177.705C54.3952 179.875 44.4883 179.813 37.0499 178.031C29.4635 176.213 25.0834 172.798 24.263 168.798C23.4427 164.799 26.1247 159.936 32.3825 155.278C38.5185 150.711 47.6011 146.754 58.1788 144.584Z" fill="url(#paint8_linear_231_1134)" stroke="url(#paint9_linear_231_1134)" stroke-width="3.42623"/>
<defs>
<linearGradient id="paint0_linear_231_1134" x1="87.3706" y1="9.85046" x2="133.625" y2="188.587" gradientUnits="userSpaceOnUse">
<stop stop-color="#FFF911"/>
<stop offset="0.668269" stop-color="#6E00CF"/>
<stop offset="0.879808" stop-color="#FACA51"/>
</linearGradient>
<linearGradient id="paint1_linear_231_1134" x1="73.0946" y1="48.6814" x2="133.626" y2="169.742" gradientUnits="userSpaceOnUse">
<stop stop-color="#F1F6FF"/>
<stop offset="1" stop-color="#9747F3"/>
</linearGradient>
<linearGradient id="paint2_linear_231_1134" x1="158.859" y1="142.71" x2="155.978" y2="158.054" gradientUnits="userSpaceOnUse">
<stop stop-color="#4CEE41"/>
<stop offset="0.548077" stop-color="#63EEF3"/>
</linearGradient>
<linearGradient id="paint3_linear_231_1134" x1="158.859" y1="142.71" x2="155.978" y2="158.054" gradientUnits="userSpaceOnUse">
<stop stop-color="#79FBC9"/>
<stop offset="1" stop-color="#062500"/>
</linearGradient>
<linearGradient id="paint4_linear_231_1134" x1="177.348" y1="168.08" x2="174.218" y2="183.376" gradientUnits="userSpaceOnUse">
<stop stop-color="#4CEE41"/>
<stop offset="0.548077" stop-color="#63EEF3"/>
</linearGradient>
<linearGradient id="paint5_linear_231_1134" x1="177.348" y1="168.08" x2="174.218" y2="183.376" gradientUnits="userSpaceOnUse">
<stop stop-color="#79FBC9"/>
<stop offset="1" stop-color="#062500"/>
</linearGradient>
<linearGradient id="paint6_linear_231_1134" x1="131.416" y1="158.148" x2="129.199" y2="173.603" gradientUnits="userSpaceOnUse">
<stop stop-color="#4CEE41"/>
<stop offset="0.548077" stop-color="#63EEF3"/>
</linearGradient>
<linearGradient id="paint7_linear_231_1134" x1="131.416" y1="158.148" x2="129.199" y2="173.603" gradientUnits="userSpaceOnUse">
<stop stop-color="#79FBC9"/>
<stop offset="1" stop-color="#062500"/>
</linearGradient>
<linearGradient id="paint8_linear_231_1134" x1="54.2264" y1="151.521" x2="69.5268" y2="176.945" gradientUnits="userSpaceOnUse">
<stop stop-color="#F49DCD"/>
<stop offset="1" stop-color="#74022E"/>
</linearGradient>
<linearGradient id="paint9_linear_231_1134" x1="57.8341" y1="142.906" x2="65.3168" y2="179.383" gradientUnits="userSpaceOnUse">
<stop stop-color="#FF8DD3"/>
<stop offset="1" stop-color="#BC276A"/>
</linearGradient>
</defs>
</svg>
