<svg width="521" height="521" viewBox="0 0 521 521" fill="none" xmlns="http://www.w3.org/2000/svg">
<g clip-path="url(#clip0_99_953)" filter="url(#filter0_dddddd_99_953)">
<rect width="350" height="350" transform="translate(85.375 85.375)" fill="white"/>
<g filter="url(#filter1_d_99_953)">
<rect x="85.375" y="123.375" width="350" height="34" fill="#ECEAD5"/>
</g>
<g filter="url(#filter2_d_99_953)">
<rect x="415.375" y="407.375" width="250" height="20" transform="matrix(0 -1 1 0 8 822.75)" fill="#ECEAD5"/>
</g>
<g filter="url(#filter3_d_99_953)">
<rect x="85.375" y="85.375" width="350" height="38" fill="#135FFF"/>
</g>
<g filter="url(#filter4_d_99_953)">
<rect x="85.375" y="421.375" width="350" height="14" fill="#ECEAD5"/>
</g>
<g filter="url(#filter5_d_99_953)">
<rect x="105.375" y="407.375" width="368" height="14" fill="#ECEAD5"/>
</g>
<g filter="url(#filter6_d_99_953)">
<rect x="85.375" y="435.375" width="278" height="20" transform="rotate(-90 85.375 435.375)" fill="#ECEAD5"/>
</g>
<g filter="url(#filter7_d_99_953)">
<rect x="323.375" y="90.3779" width="28" height="28" rx="6" fill="#3F7FF8"/>
<rect x="323.875" y="90.8779" width="27" height="27" rx="5.5" stroke="white"/>
</g>
<g filter="url(#filter8_d_99_953)">
<rect x="360.375" y="90.3779" width="28" height="28" rx="6" fill="#3F7FF8"/>
<rect x="360.875" y="90.8779" width="27" height="27" rx="5.5" stroke="white"/>
</g>
<g filter="url(#filter9_d_99_953)">
<rect x="397.375" y="90.3779" width="28" height="28" rx="6" fill="#FF5151"/>
<rect x="397.875" y="90.8779" width="27" height="27" rx="5.5" stroke="white"/>
</g>
<rect x="326.375" y="110.378" width="14" height="3" fill="white"/>
<rect x="365.375" y="97.3779" width="16" height="2" fill="white"/>
<rect x="365.375" y="110.378" width="16" height="2" fill="white"/>
<rect x="367.375" y="98.3779" width="13" height="2" transform="rotate(90 367.375 98.3779)" fill="white"/>
<path d="M339.117 110.378H336.591L335.586 107.191H330.992L330.045 110.378H327.575L332.054 96.3479H334.514L339.117 110.378ZM334.839 104.827L333.26 99.6209L331.7 104.827H334.839Z" fill="white"/>
<path d="M414.897 113.05L401.979 103.81L403.435 101.774L412.044 107.932L406.498 97.492L408.03 95.3508L420.948 104.591L419.492 106.626L411.068 100.601L416.435 110.9L414.897 113.05Z" fill="white"/>
</g>
<path d="M117.675 54.6553C123.879 45.124 134.481 39.375 145.854 39.375H237.238C248.699 39.375 259.371 45.2131 265.553 54.8646L286.375 87.375H96.375L117.675 54.6553Z" fill="#135FFF"/>
<path d="M93.8672 134.041H95.1592V135.808C95.1592 136.581 95.2002 137.146 95.2822 137.504C95.3643 137.855 95.5488 138.151 95.8359 138.392C96.123 138.626 96.4658 138.743 96.8643 138.743C97.3623 138.743 98.0039 138.585 98.7891 138.269V134.041H100.081V143.375H98.7891V139.613C97.9863 139.918 97.2393 140.07 96.5479 140.07C95.792 140.07 95.1562 139.774 94.6406 139.183C94.125 138.585 93.8672 137.686 93.8672 136.484V134.041ZM101.79 146.97L101.65 145.484C101.937 145.578 102.183 145.625 102.388 145.625C102.663 145.625 102.889 145.569 103.065 145.458C103.246 145.347 103.396 145.174 103.513 144.939C103.554 144.857 103.724 144.342 104.023 143.393L101.114 134.041H102.511L104.111 139.446C104.31 140.12 104.494 140.841 104.664 141.608C104.811 140.882 104.987 140.173 105.192 139.481L106.826 134.041H108.127L105.218 143.533C104.837 144.764 104.535 145.584 104.313 145.994C104.096 146.41 103.847 146.709 103.566 146.891C103.29 147.072 102.977 147.163 102.625 147.163C102.379 147.163 102.101 147.099 101.79 146.97ZM108.333 134.041H114.556V135.351H112.095V143.375H110.794V135.351H108.333V134.041ZM115.58 134.041H116.872V137.688H118.524C119.708 137.688 120.56 137.967 121.082 138.523C121.603 139.08 121.864 139.754 121.864 140.545C121.864 141.295 121.627 141.954 121.152 142.522C120.683 143.091 119.907 143.375 118.823 143.375H115.58V134.041ZM116.872 142.074H118.234C119.224 142.074 119.854 141.916 120.124 141.6C120.393 141.283 120.528 140.935 120.528 140.554C120.528 140.056 120.373 139.672 120.062 139.402C119.752 139.133 119.201 138.998 118.41 138.998H116.872V142.074ZM122.598 139.508V137.917H126.579V139.508H122.598ZM127.348 134.041H128.64V135.808C128.64 136.581 128.681 137.146 128.763 137.504C128.845 137.855 129.03 138.151 129.317 138.392C129.604 138.626 129.947 138.743 130.345 138.743C130.843 138.743 131.485 138.585 132.27 138.269V134.041H133.562V143.375H132.27V139.613C131.467 139.918 130.72 140.07 130.029 140.07C129.273 140.07 128.637 139.774 128.121 139.183C127.606 138.585 127.348 137.686 127.348 136.484V134.041ZM135.271 146.97L135.13 145.484C135.417 145.578 135.664 145.625 135.869 145.625C136.144 145.625 136.37 145.569 136.545 145.458C136.727 145.347 136.876 145.174 136.994 144.939C137.035 144.857 137.205 144.342 137.503 143.393L134.594 134.041H135.992L137.591 139.446C137.791 140.12 137.975 140.841 138.145 141.608C138.291 140.882 138.467 140.173 138.672 139.481L140.307 134.041H141.608L138.699 143.533C138.318 144.764 138.016 145.584 137.793 145.994C137.577 146.41 137.328 146.709 137.046 146.891C136.771 147.072 136.458 147.163 136.106 147.163C135.86 147.163 135.582 147.099 135.271 146.97ZM141.814 134.041H148.037V135.351H145.576V143.375H144.275V135.351H141.814V134.041ZM149.061 134.041H150.353V137.688H152.005C153.188 137.688 154.041 137.967 154.562 138.523C155.084 139.08 155.345 139.754 155.345 140.545C155.345 141.295 155.107 141.954 154.633 142.522C154.164 143.091 153.388 143.375 152.304 143.375H149.061V134.041ZM150.353 142.074H151.715C152.705 142.074 153.335 141.916 153.604 141.6C153.874 141.283 154.009 140.935 154.009 140.554C154.009 140.056 153.854 139.672 153.543 139.402C153.232 139.133 152.682 138.998 151.891 138.998H150.353V142.074ZM159.994 138.708C159.994 137.097 160.331 135.881 161.004 135.061C161.684 134.24 162.542 133.83 163.58 133.83C164.599 133.83 165.452 134.24 166.137 135.061C166.823 135.881 167.166 137.064 167.166 138.611C167.166 140.287 166.829 141.535 166.155 142.355C165.481 143.176 164.623 143.586 163.58 143.586C162.554 143.586 161.699 143.176 161.013 142.355C160.333 141.529 159.994 140.313 159.994 138.708ZM161.321 138.708C161.321 139.915 161.541 140.814 161.98 141.406C162.419 141.992 162.964 142.285 163.615 142.285C164.224 142.285 164.746 141.989 165.179 141.397C165.619 140.8 165.838 139.903 165.838 138.708C165.838 137.507 165.619 136.613 165.179 136.027C164.74 135.436 164.195 135.14 163.544 135.14C162.929 135.14 162.405 135.436 161.971 136.027C161.538 136.619 161.321 137.513 161.321 138.708ZM172.43 134.041H173.722V137.926H177.325V134.041H178.617V143.375H177.325V139.235H173.722V143.375H172.43V134.041ZM185.354 142.224C184.92 142.675 184.469 143.015 184 143.243C183.531 143.472 183.045 143.586 182.541 143.586C181.744 143.586 181.109 143.346 180.634 142.865C180.159 142.385 179.922 141.737 179.922 140.923C179.922 140.384 180.033 139.906 180.256 139.49C180.479 139.074 180.783 138.749 181.17 138.515C181.557 138.28 182.143 138.107 182.928 137.996C183.983 137.844 184.756 137.662 185.248 137.451L185.257 137.047C185.257 136.408 185.143 135.96 184.914 135.702C184.592 135.327 184.097 135.14 183.429 135.14C182.825 135.14 182.374 135.266 182.075 135.518C181.777 135.764 181.557 136.229 181.416 136.915L180.142 136.704C180.323 135.702 180.69 134.973 181.24 134.516C181.797 134.059 182.591 133.83 183.622 133.83C184.425 133.83 185.055 133.982 185.512 134.287C185.969 134.586 186.256 134.958 186.373 135.403C186.496 135.849 186.558 136.499 186.558 137.354V139.464C186.558 140.94 186.584 141.872 186.637 142.259C186.696 142.64 186.807 143.012 186.971 143.375H185.617C185.483 143.053 185.395 142.669 185.354 142.224ZM185.248 138.69C184.774 138.925 184.068 139.124 183.13 139.288C182.585 139.382 182.204 139.49 181.988 139.613C181.771 139.73 181.601 139.9 181.478 140.123C181.361 140.34 181.302 140.592 181.302 140.879C181.302 141.324 181.44 141.682 181.715 141.951C181.99 142.215 182.371 142.347 182.858 142.347C183.321 142.347 183.739 142.227 184.114 141.986C184.495 141.746 184.78 141.427 184.967 141.028C185.155 140.624 185.248 140.038 185.248 139.271V138.69ZM193.391 139.956L194.665 140.158C194.519 141.271 194.15 142.121 193.558 142.707C192.972 143.293 192.266 143.586 191.44 143.586C190.438 143.586 189.612 143.176 188.961 142.355C188.317 141.529 187.995 140.311 187.995 138.699C187.995 137.076 188.32 135.86 188.97 135.052C189.626 134.237 190.467 133.83 191.493 133.83C192.284 133.83 192.949 134.076 193.488 134.568C194.033 135.061 194.381 135.799 194.534 136.783L193.277 137.021C193.154 136.388 192.94 135.916 192.635 135.605C192.331 135.289 191.964 135.131 191.537 135.131C190.898 135.131 190.368 135.415 189.946 135.983C189.53 136.546 189.322 137.442 189.322 138.673C189.322 139.944 189.521 140.864 189.919 141.433C190.324 142.001 190.839 142.285 191.466 142.285C191.958 142.285 192.377 142.098 192.723 141.723C193.075 141.342 193.297 140.753 193.391 139.956Z" fill="black"/>
<mask id="path-21-outside-1_99_953" maskUnits="userSpaceOnUse" x="131.375" y="62.375" width="111" height="35" fill="black">
<rect fill="white" x="131.375" y="62.375" width="111" height="35"/>
<path d="M133.901 80.1147C133.901 75.1912 134.93 71.4762 136.989 68.9697C139.066 66.4632 141.689 65.21 144.858 65.21C147.973 65.21 150.578 66.4632 152.673 68.9697C154.768 71.4762 155.815 75.0928 155.815 79.8193C155.815 84.9398 154.786 88.7533 152.727 91.2598C150.668 93.7663 148.045 95.0195 144.858 95.0195C141.725 95.0195 139.111 93.7663 137.016 91.2598C134.939 88.7354 133.901 85.0203 133.901 80.1147ZM137.956 80.1147C137.956 83.8029 138.627 86.5511 139.97 88.3594C141.313 90.1497 142.978 91.0449 144.965 91.0449C146.827 91.0449 148.421 90.1408 149.746 88.3325C151.088 86.5063 151.76 83.7671 151.76 80.1147C151.76 76.4445 151.088 73.7142 149.746 71.9238C148.403 70.1156 146.738 69.2114 144.751 69.2114C142.871 69.2114 141.268 70.1156 139.943 71.9238C138.619 73.7321 137.956 76.4624 137.956 80.1147ZM171.9 65.8545H175.848V77.7246H186.858V65.8545H190.806V94.375H186.858V81.7261H175.848V94.375H171.9V65.8545ZM211.39 90.8569C210.065 92.2355 208.687 93.2739 207.254 93.9722C205.822 94.6704 204.336 95.0195 202.796 95.0195C200.361 95.0195 198.419 94.2855 196.969 92.8174C195.519 91.3493 194.793 89.3709 194.793 86.8823C194.793 85.2352 195.134 83.776 195.814 82.5049C196.494 81.2337 197.425 80.2401 198.607 79.5239C199.789 78.8078 201.579 78.2796 203.978 77.9395C207.201 77.474 209.564 76.9189 211.068 76.2744L211.095 75.0391C211.095 73.0876 210.746 71.7179 210.047 70.9302C209.063 69.7843 207.55 69.2114 205.509 69.2114C203.665 69.2114 202.286 69.5964 201.373 70.3662C200.46 71.1182 199.789 72.5415 199.359 74.6362L195.465 73.9917C196.02 70.9302 197.139 68.7012 198.822 67.3047C200.523 65.9082 202.949 65.21 206.1 65.21C208.552 65.21 210.477 65.6755 211.874 66.6064C213.27 67.5195 214.147 68.6564 214.505 70.0171C214.881 71.3778 215.069 73.3651 215.069 75.979V82.4243C215.069 86.936 215.15 89.7827 215.311 90.9644C215.49 92.1281 215.83 93.265 216.332 94.375H212.196C211.784 93.3903 211.515 92.2176 211.39 90.8569ZM211.068 80.061C209.618 80.7772 207.46 81.3859 204.596 81.8872C202.931 82.1737 201.767 82.5049 201.104 82.8809C200.442 83.2389 199.923 83.7581 199.547 84.4385C199.189 85.1009 199.01 85.8708 199.01 86.748C199.01 88.1087 199.43 89.2008 200.272 90.0244C201.113 90.8301 202.277 91.2329 203.763 91.2329C205.178 91.2329 206.458 90.8659 207.604 90.1318C208.767 89.3978 209.636 88.422 210.208 87.2046C210.781 85.9692 211.068 84.1789 211.068 81.8335V80.061ZM235.949 83.9282L239.843 84.5459C239.395 87.9476 238.267 90.5436 236.459 92.334C234.669 94.1243 232.511 95.0195 229.987 95.0195C226.925 95.0195 224.401 93.7663 222.414 91.2598C220.444 88.7354 219.459 85.0114 219.459 80.0879C219.459 75.1286 220.453 71.4136 222.44 68.9429C224.446 66.4543 227.015 65.21 230.148 65.21C232.565 65.21 234.597 65.9619 236.244 67.4658C237.909 68.9697 238.974 71.2256 239.44 74.2334L235.6 74.9585C235.224 73.0249 234.57 71.5837 233.639 70.6348C232.708 69.668 231.589 69.1846 230.282 69.1846C228.331 69.1846 226.71 70.0529 225.421 71.7896C224.15 73.5083 223.515 76.2476 223.515 80.0073C223.515 83.8924 224.123 86.7033 225.341 88.4399C226.576 90.1766 228.152 91.0449 230.067 91.0449C231.571 91.0449 232.851 90.472 233.908 89.3262C234.982 88.1624 235.662 86.3631 235.949 83.9282Z"/>
</mask>
<path d="M133.901 80.1147C133.901 75.1912 134.93 71.4762 136.989 68.9697C139.066 66.4632 141.689 65.21 144.858 65.21C147.973 65.21 150.578 66.4632 152.673 68.9697C154.768 71.4762 155.815 75.0928 155.815 79.8193C155.815 84.9398 154.786 88.7533 152.727 91.2598C150.668 93.7663 148.045 95.0195 144.858 95.0195C141.725 95.0195 139.111 93.7663 137.016 91.2598C134.939 88.7354 133.901 85.0203 133.901 80.1147ZM137.956 80.1147C137.956 83.8029 138.627 86.5511 139.97 88.3594C141.313 90.1497 142.978 91.0449 144.965 91.0449C146.827 91.0449 148.421 90.1408 149.746 88.3325C151.088 86.5063 151.76 83.7671 151.76 80.1147C151.76 76.4445 151.088 73.7142 149.746 71.9238C148.403 70.1156 146.738 69.2114 144.751 69.2114C142.871 69.2114 141.268 70.1156 139.943 71.9238C138.619 73.7321 137.956 76.4624 137.956 80.1147ZM171.9 65.8545H175.848V77.7246H186.858V65.8545H190.806V94.375H186.858V81.7261H175.848V94.375H171.9V65.8545ZM211.39 90.8569C210.065 92.2355 208.687 93.2739 207.254 93.9722C205.822 94.6704 204.336 95.0195 202.796 95.0195C200.361 95.0195 198.419 94.2855 196.969 92.8174C195.519 91.3493 194.793 89.3709 194.793 86.8823C194.793 85.2352 195.134 83.776 195.814 82.5049C196.494 81.2337 197.425 80.2401 198.607 79.5239C199.789 78.8078 201.579 78.2796 203.978 77.9395C207.201 77.474 209.564 76.9189 211.068 76.2744L211.095 75.0391C211.095 73.0876 210.746 71.7179 210.047 70.9302C209.063 69.7843 207.55 69.2114 205.509 69.2114C203.665 69.2114 202.286 69.5964 201.373 70.3662C200.46 71.1182 199.789 72.5415 199.359 74.6362L195.465 73.9917C196.02 70.9302 197.139 68.7012 198.822 67.3047C200.523 65.9082 202.949 65.21 206.1 65.21C208.552 65.21 210.477 65.6755 211.874 66.6064C213.27 67.5195 214.147 68.6564 214.505 70.0171C214.881 71.3778 215.069 73.3651 215.069 75.979V82.4243C215.069 86.936 215.15 89.7827 215.311 90.9644C215.49 92.1281 215.83 93.265 216.332 94.375H212.196C211.784 93.3903 211.515 92.2176 211.39 90.8569ZM211.068 80.061C209.618 80.7772 207.46 81.3859 204.596 81.8872C202.931 82.1737 201.767 82.5049 201.104 82.8809C200.442 83.2389 199.923 83.7581 199.547 84.4385C199.189 85.1009 199.01 85.8708 199.01 86.748C199.01 88.1087 199.43 89.2008 200.272 90.0244C201.113 90.8301 202.277 91.2329 203.763 91.2329C205.178 91.2329 206.458 90.8659 207.604 90.1318C208.767 89.3978 209.636 88.422 210.208 87.2046C210.781 85.9692 211.068 84.1789 211.068 81.8335V80.061ZM235.949 83.9282L239.843 84.5459C239.395 87.9476 238.267 90.5436 236.459 92.334C234.669 94.1243 232.511 95.0195 229.987 95.0195C226.925 95.0195 224.401 93.7663 222.414 91.2598C220.444 88.7354 219.459 85.0114 219.459 80.0879C219.459 75.1286 220.453 71.4136 222.44 68.9429C224.446 66.4543 227.015 65.21 230.148 65.21C232.565 65.21 234.597 65.9619 236.244 67.4658C237.909 68.9697 238.974 71.2256 239.44 74.2334L235.6 74.9585C235.224 73.0249 234.57 71.5837 233.639 70.6348C232.708 69.668 231.589 69.1846 230.282 69.1846C228.331 69.1846 226.71 70.0529 225.421 71.7896C224.15 73.5083 223.515 76.2476 223.515 80.0073C223.515 83.8924 224.123 86.7033 225.341 88.4399C226.576 90.1766 228.152 91.0449 230.067 91.0449C231.571 91.0449 232.851 90.472 233.908 89.3262C234.982 88.1624 235.662 86.3631 235.949 83.9282Z" fill="white"/>
<path d="M136.989 68.9697L135.449 67.6937L135.444 67.7002L136.989 68.9697ZM152.727 91.2598L151.181 89.9903L152.727 91.2598ZM137.016 91.2598L135.472 92.5304L135.477 92.5364L135.482 92.5423L137.016 91.2598ZM139.97 88.3594L138.365 89.5517L138.37 89.5594L139.97 88.3594ZM149.746 88.3325L148.134 87.1477L148.132 87.1505L149.746 88.3325ZM149.746 71.9238L148.14 73.1162L148.146 73.1238L149.746 71.9238ZM133.901 80.1147H135.901C135.901 75.4249 136.888 72.2437 138.535 70.2392L136.989 68.9697L135.444 67.7002C132.973 70.7088 131.901 74.9576 131.901 80.1147H133.901ZM136.989 68.9697L138.529 70.2458C140.238 68.1834 142.303 67.21 144.858 67.21V65.21V63.21C141.075 63.21 137.894 64.743 135.449 67.6937L136.989 68.9697ZM144.858 65.21V67.21C147.348 67.21 149.402 68.1751 151.138 70.2523L152.673 68.9697L154.208 67.6872C151.754 64.7513 148.598 63.21 144.858 63.21V65.21ZM152.673 68.9697L151.138 70.2523C152.823 72.2682 153.815 75.3569 153.815 79.8193H155.815H157.815C157.815 74.8286 156.712 70.6843 154.208 67.6872L152.673 68.9697ZM155.815 79.8193H153.815C153.815 84.729 152.818 87.9972 151.181 89.9903L152.727 91.2598L154.272 92.5292C156.753 89.5093 157.815 85.1506 157.815 79.8193H155.815ZM152.727 91.2598L151.181 89.9903C149.494 92.0439 147.434 93.0195 144.858 93.0195V95.0195V97.0195C148.656 97.0195 151.841 95.4887 154.272 92.5292L152.727 91.2598ZM144.858 95.0195V93.0195C142.346 93.0195 140.284 92.0513 138.551 89.9772L137.016 91.2598L135.482 92.5423C137.938 95.4813 141.104 97.0195 144.858 97.0195V95.0195ZM137.016 91.2598L138.561 89.9891C136.894 87.9636 135.901 84.7799 135.901 80.1147H133.901H131.901C131.901 85.2608 132.984 89.5071 135.472 92.5304L137.016 91.2598ZM137.956 80.1147H135.956C135.956 83.9816 136.648 87.2407 138.365 89.5517L139.97 88.3594L141.576 87.167C140.607 85.8615 139.956 83.6242 139.956 80.1147H137.956ZM139.97 88.3594L138.37 89.5594C140.036 91.7805 142.263 93.0449 144.965 93.0449V91.0449V89.0449C143.693 89.0449 142.59 88.5189 141.57 87.1594L139.97 88.3594ZM144.965 91.0449V93.0449C147.598 93.0449 149.744 91.7187 151.359 89.5146L149.746 88.3325L148.132 87.1505C147.098 88.5628 146.056 89.0449 144.965 89.0449V91.0449ZM149.746 88.3325L151.357 89.5173C153.065 87.1948 153.76 83.9533 153.76 80.1147H151.76H149.76C149.76 83.5809 149.112 85.8179 148.134 87.1477L149.746 88.3325ZM151.76 80.1147H153.76C153.76 76.2656 153.067 73.0196 151.346 70.7238L149.746 71.9238L148.146 73.1238C149.109 74.4088 149.76 76.6234 149.76 80.1147H151.76ZM149.746 71.9238L151.351 70.7315C149.689 68.4928 147.462 67.2114 144.751 67.2114V69.2114V71.2114C146.014 71.2114 147.117 71.7384 148.14 73.1162L149.746 71.9238ZM144.751 69.2114V67.2114C142.106 67.2114 139.95 68.5313 138.33 70.7418L139.943 71.9238L141.557 73.1059C142.587 71.6998 143.635 71.2114 144.751 71.2114V69.2114ZM139.943 71.9238L138.33 70.7418C136.64 73.0485 135.956 76.2825 135.956 80.1147H137.956H139.956C139.956 76.6423 140.597 74.4157 141.557 73.1059L139.943 71.9238ZM171.9 65.8545V63.8545H169.9V65.8545H171.9ZM175.848 65.8545H177.848V63.8545H175.848V65.8545ZM175.848 77.7246H173.848V79.7246H175.848V77.7246ZM186.858 77.7246V79.7246H188.858V77.7246H186.858ZM186.858 65.8545V63.8545H184.858V65.8545H186.858ZM190.806 65.8545H192.806V63.8545H190.806V65.8545ZM190.806 94.375V96.375H192.806V94.375H190.806ZM186.858 94.375H184.858V96.375H186.858V94.375ZM186.858 81.7261H188.858V79.7261H186.858V81.7261ZM175.848 81.7261V79.7261H173.848V81.7261H175.848ZM175.848 94.375V96.375H177.848V94.375H175.848ZM171.9 94.375H169.9V96.375H171.9V94.375ZM171.9 65.8545V67.8545H175.848V65.8545V63.8545H171.9V65.8545ZM175.848 65.8545H173.848V77.7246H175.848H177.848V65.8545H175.848ZM175.848 77.7246V79.7246H186.858V77.7246V75.7246H175.848V77.7246ZM186.858 77.7246H188.858V65.8545H186.858H184.858V77.7246H186.858ZM186.858 65.8545V67.8545H190.806V65.8545V63.8545H186.858V65.8545ZM190.806 65.8545H188.806V94.375H190.806H192.806V65.8545H190.806ZM190.806 94.375V92.375H186.858V94.375V96.375H190.806V94.375ZM186.858 94.375H188.858V81.7261H186.858H184.858V94.375H186.858ZM186.858 81.7261V79.7261H175.848V81.7261V83.7261H186.858V81.7261ZM175.848 81.7261H173.848V94.375H175.848H177.848V81.7261H175.848ZM175.848 94.375V92.375H171.9V94.375V96.375H175.848V94.375ZM171.9 94.375H173.9V65.8545H171.9H169.9V94.375H171.9ZM211.39 90.8569L213.382 90.6735L212.98 86.3159L209.948 89.4711L211.39 90.8569ZM207.254 93.9722L206.378 92.1744L207.254 93.9722ZM203.978 77.9395L204.259 79.9197L204.264 79.9189L203.978 77.9395ZM211.068 76.2744L211.856 78.1127L213.039 77.6054L213.067 76.3179L211.068 76.2744ZM211.095 75.0391L213.094 75.0825L213.095 75.0608V75.0391H211.095ZM210.047 70.9302L208.531 72.2337L208.54 72.2453L208.551 72.2568L210.047 70.9302ZM201.373 70.3662L202.644 71.9101L202.653 71.9027L202.662 71.8953L201.373 70.3662ZM199.359 74.6362L199.032 76.6094L200.931 76.9237L201.318 75.0381L199.359 74.6362ZM195.465 73.9917L193.497 73.6349L193.135 75.6332L195.138 75.9649L195.465 73.9917ZM198.822 67.3047L197.553 65.7589L197.545 65.7656L198.822 67.3047ZM211.874 66.6064L210.764 68.2705L210.772 68.2755L210.779 68.2804L211.874 66.6064ZM214.505 70.0171L212.571 70.5261L212.574 70.5379L212.578 70.5498L214.505 70.0171ZM215.311 90.9644L213.329 91.2346L213.332 91.2515L213.334 91.2685L215.311 90.9644ZM216.332 94.375V96.375H219.429L218.154 93.5518L216.332 94.375ZM212.196 94.375L210.351 95.1466L210.864 96.375H212.196V94.375ZM211.068 80.061H213.068V76.8428L210.182 78.2678L211.068 80.061ZM204.596 81.8872L204.935 83.8583L204.94 83.8573L204.596 81.8872ZM201.104 82.8809L202.056 84.6403L202.074 84.6304L202.092 84.6202L201.104 82.8809ZM199.547 84.4385L197.796 83.4711L197.792 83.4793L197.787 83.4874L199.547 84.4385ZM200.272 90.0244L198.873 91.4538L198.881 91.4614L198.889 91.469L200.272 90.0244ZM207.604 90.1318L206.536 88.4402L206.525 88.4478L207.604 90.1318ZM210.208 87.2046L212.018 88.0562L212.023 88.046L210.208 87.2046ZM211.39 90.8569L209.948 89.4711C208.754 90.7132 207.561 91.5975 206.378 92.1744L207.254 93.9722L208.131 95.7699C209.812 94.9504 211.376 93.7579 212.832 92.2428L211.39 90.8569ZM207.254 93.9722L206.378 92.1744C205.209 92.7444 204.022 93.0195 202.796 93.0195V95.0195V97.0195C204.651 97.0195 206.435 96.5965 208.131 95.7699L207.254 93.9722ZM202.796 95.0195V93.0195C200.792 93.0195 199.399 92.4316 198.392 91.4119L196.969 92.8174L195.546 94.2229C197.439 96.1393 199.931 97.0195 202.796 97.0195V95.0195ZM196.969 92.8174L198.392 91.4119C197.385 90.393 196.793 88.9603 196.793 86.8823H194.793H192.793C192.793 89.7815 193.652 92.3055 195.546 94.2229L196.969 92.8174ZM194.793 86.8823H196.793C196.793 85.5171 197.073 84.3904 197.577 83.4486L195.814 82.5049L194.051 81.5611C193.194 83.1617 192.793 84.9533 192.793 86.8823H194.793ZM195.814 82.5049L197.577 83.4486C198.096 82.4792 198.782 81.7564 199.644 81.2343L198.607 79.5239L197.57 77.8135C196.068 78.7237 194.892 79.9883 194.051 81.5611L195.814 82.5049ZM198.607 79.5239L199.644 81.2343C200.482 80.7264 201.956 80.2462 204.259 79.9196L203.978 77.9395L203.697 75.9593C201.202 76.3131 199.096 76.8891 197.57 77.8135L198.607 79.5239ZM203.978 77.9395L204.264 79.9189C207.524 79.448 210.102 78.8644 211.856 78.1127L211.068 76.2744L210.28 74.4361C209.026 74.9734 206.877 75.5 203.692 75.96L203.978 77.9395ZM211.068 76.2744L213.067 76.3179L213.094 75.0825L211.095 75.0391L209.095 74.9956L209.068 76.2309L211.068 76.2744ZM211.095 75.0391H213.095C213.095 72.9684 212.748 70.962 211.544 69.6036L210.047 70.9302L208.551 72.2568C208.743 72.4739 209.095 73.2068 209.095 75.0391H211.095ZM210.047 70.9302L211.564 69.6266C210.079 67.8979 207.917 67.2114 205.509 67.2114V69.2114V71.2114C207.182 71.2114 208.047 71.6708 208.531 72.2337L210.047 70.9302ZM205.509 69.2114V67.2114C203.438 67.2114 201.509 67.6359 200.084 68.8372L201.373 70.3662L202.662 71.8953C203.064 71.5569 203.892 71.2114 205.509 71.2114V69.2114ZM201.373 70.3662L200.102 68.8223C198.646 70.0209 197.856 72.012 197.4 74.2343L199.359 74.6362L201.318 75.0381C201.722 73.071 202.274 72.2154 202.644 71.9101L201.373 70.3662ZM199.359 74.6362L199.685 72.6631L195.791 72.0185L195.465 73.9917L195.138 75.9649L199.032 76.6094L199.359 74.6362ZM195.465 73.9917L197.433 74.3485C197.939 71.5574 198.905 69.8348 200.099 68.8438L198.822 67.3047L197.545 65.7656C195.373 67.5676 194.101 70.3029 193.497 73.6349L195.465 73.9917ZM198.822 67.3047L200.091 68.8504C201.307 67.8516 203.216 67.21 206.1 67.21V65.21V63.21C202.681 63.21 199.738 63.9649 197.553 65.7589L198.822 67.3047ZM206.1 65.21V67.21C208.33 67.21 209.815 67.638 210.764 68.2705L211.874 66.6064L212.983 64.9423C211.139 63.713 208.775 63.21 206.1 63.21V65.21ZM211.874 66.6064L210.779 68.2804C211.843 68.9758 212.362 69.7307 212.571 70.5261L214.505 70.0171L216.439 69.5081C215.933 67.5821 214.697 66.0633 212.968 64.9325L211.874 66.6064ZM214.505 70.0171L212.578 70.5498C212.881 71.6476 213.069 73.4199 213.069 75.979H215.069H217.069C217.069 73.3102 216.882 71.1079 216.433 69.4844L214.505 70.0171ZM215.069 75.979H213.069V82.4243H215.069H217.069V75.979H215.069ZM215.069 82.4243H213.069C213.069 86.8903 213.146 89.8893 213.329 91.2346L215.311 90.9644L217.293 90.6941C217.154 89.6762 217.069 86.9818 217.069 82.4243H215.069ZM215.311 90.9644L213.334 91.2685C213.542 92.6175 213.935 93.9286 214.509 95.1982L216.332 94.375L218.154 93.5518C217.725 92.6013 217.438 91.6387 217.288 90.6602L215.311 90.9644ZM216.332 94.375V92.375H212.196V94.375V96.375H216.332V94.375ZM212.196 94.375L214.041 93.6034C213.726 92.8502 213.493 91.8855 213.382 90.6735L211.39 90.8569L209.399 91.0404C209.538 92.5497 209.842 93.9304 210.351 95.1466L212.196 94.375ZM211.068 80.061L210.182 78.2678C208.988 78.8576 207.052 79.427 204.251 79.9171L204.596 81.8872L204.94 83.8573C207.869 83.3448 210.247 82.6967 211.953 81.8543L211.068 80.061ZM204.596 81.8872L204.257 79.9162C202.573 80.2058 201.107 80.5799 200.117 81.1415L201.104 82.8809L202.092 84.6202C202.427 84.4298 203.288 84.1415 204.935 83.8582L204.596 81.8872ZM201.104 82.8809L200.153 81.1214C199.143 81.6677 198.351 82.4671 197.796 83.4711L199.547 84.4385L201.297 85.4058C201.494 85.0492 201.741 84.8102 202.056 84.6403L201.104 82.8809ZM199.547 84.4385L197.787 83.4874C197.247 84.4869 197.01 85.5937 197.01 86.748H199.01H201.01C201.01 86.1478 201.13 85.715 201.306 85.3895L199.547 84.4385ZM199.01 86.748H197.01C197.01 88.5557 197.587 90.1948 198.873 91.4538L200.272 90.0244L201.671 88.5951C201.274 88.2069 201.01 87.6618 201.01 86.748H199.01ZM200.272 90.0244L198.889 91.469C200.197 92.7218 201.91 93.2329 203.763 93.2329V91.2329V89.2329C202.645 89.2329 202.03 88.9384 201.655 88.5798L200.272 90.0244ZM203.763 91.2329V93.2329C205.544 93.2329 207.201 92.7646 208.682 91.8159L207.604 90.1318L206.525 88.4478C205.714 88.9671 204.811 89.2329 203.763 89.2329V91.2329ZM207.604 90.1318L208.671 91.8234C210.149 90.8908 211.279 89.6269 212.018 88.0562L210.208 87.2046L208.399 86.353C207.992 87.2172 207.385 87.9048 206.536 88.4402L207.604 90.1318ZM210.208 87.2046L212.023 88.046C212.776 86.4215 213.068 84.2888 213.068 81.8335H211.068H209.068C209.068 84.069 208.787 85.517 208.394 86.3631L210.208 87.2046ZM211.068 81.8335H213.068V80.061H211.068H209.068V81.8335H211.068ZM235.949 83.9282L236.262 81.9529L234.206 81.6267L233.962 83.6945L235.949 83.9282ZM239.843 84.5459L241.826 84.8068L242.08 82.8757L240.156 82.5706L239.843 84.5459ZM236.459 92.334L235.052 90.9127L235.045 90.9198L236.459 92.334ZM222.414 91.2598L220.837 92.49L220.841 92.4962L220.846 92.5023L222.414 91.2598ZM222.44 68.9429L220.883 67.688L220.882 67.6894L222.44 68.9429ZM236.244 67.4658L234.896 68.9428L234.904 68.95L236.244 67.4658ZM239.44 74.2334L239.811 76.1987L241.712 75.8397L241.416 73.9275L239.44 74.2334ZM235.6 74.9585L233.636 75.3402L234.016 77.2928L235.971 76.9238L235.6 74.9585ZM233.639 70.6348L232.198 72.022L232.205 72.0288L232.212 72.0354L233.639 70.6348ZM225.421 71.7896L223.815 70.5975L223.813 70.6003L225.421 71.7896ZM225.341 88.4399L223.703 89.588L223.711 89.5992L225.341 88.4399ZM233.908 89.3262L232.438 87.9696L232.437 87.9706L233.908 89.3262ZM235.949 83.9282L235.635 85.9035L239.529 86.5212L239.843 84.5459L240.156 82.5706L236.262 81.9529L235.949 83.9282ZM239.843 84.5459L237.86 84.285C237.45 87.3989 236.451 89.5277 235.052 90.9128L236.459 92.334L237.866 93.7552C240.084 91.5596 241.34 88.4962 241.826 84.8068L239.843 84.5459ZM236.459 92.334L235.045 90.9198C233.628 92.3363 231.979 93.0195 229.987 93.0195V95.0195V97.0195C233.043 97.0195 235.709 95.9124 237.873 93.7482L236.459 92.334ZM229.987 95.0195V93.0195C227.567 93.0195 225.608 92.0701 223.981 90.0172L222.414 91.2598L220.846 92.5023C223.193 95.4625 226.284 97.0195 229.987 97.0195V95.0195ZM222.414 91.2598L223.99 90.0296C222.408 88.0011 221.459 84.7923 221.459 80.0879H219.459H217.459C217.459 85.2305 218.48 89.4696 220.837 92.49L222.414 91.2598ZM219.459 80.0879H221.459C221.459 75.3421 222.419 72.1603 223.999 70.1964L222.44 68.9429L220.882 67.6894C218.487 70.6669 217.459 74.9151 217.459 80.0879H219.459ZM222.44 68.9429L223.998 70.1977C225.632 68.1693 227.634 67.21 230.148 67.21V65.21V63.21C226.396 63.21 223.259 64.7392 220.883 67.688L222.44 68.9429ZM230.148 65.21V67.21C232.111 67.21 233.649 67.8048 234.896 68.9428L236.244 67.4658L237.593 65.9888C235.545 64.119 233.019 63.21 230.148 63.21V65.21ZM236.244 67.4658L234.904 68.95C236.123 70.0518 237.043 71.8242 237.463 74.5393L239.44 74.2334L241.416 73.9275C240.906 70.627 239.695 67.8877 237.585 65.9816L236.244 67.4658ZM239.44 74.2334L239.069 72.2681L235.229 72.9932L235.6 74.9585L235.971 76.9238L239.811 76.1987L239.44 74.2334ZM235.6 74.9585L237.563 74.5768C237.146 72.433 236.375 70.5673 235.067 69.2341L233.639 70.6348L232.212 72.0354C232.765 72.6 233.301 73.6168 233.636 75.3402L235.6 74.9585ZM233.639 70.6348L235.08 69.2475C233.783 67.9011 232.149 67.1846 230.282 67.1846V69.1846V71.1846C231.029 71.1846 231.633 71.4349 232.198 72.022L233.639 70.6348ZM230.282 69.1846V67.1846C227.623 67.1846 225.435 68.4161 223.815 70.5975L225.421 71.7896L227.027 72.9816C227.986 71.6897 229.039 71.1846 230.282 71.1846V69.1846ZM225.421 71.7896L223.813 70.6003C222.158 72.8391 221.515 76.1077 221.515 80.0073H223.515H225.515C225.515 76.3874 226.143 74.1775 227.029 72.9788L225.421 71.7896ZM223.515 80.0073H221.515C221.515 84.0073 222.123 87.3346 223.703 89.588L225.341 88.4399L226.978 87.2919C226.123 86.072 225.515 83.7776 225.515 80.0073H223.515ZM225.341 88.4399L223.711 89.5992C225.273 91.7944 227.424 93.0449 230.067 93.0449V91.0449V89.0449C228.879 89.0449 227.88 88.5588 226.971 87.2806L225.341 88.4399ZM230.067 91.0449V93.0449C232.152 93.0449 233.959 92.2215 235.378 90.6818L233.908 89.3262L232.437 87.9706C231.744 88.7225 230.99 89.0449 230.067 89.0449V91.0449ZM233.908 89.3262L235.377 90.6827C236.856 89.0804 237.624 86.8013 237.935 84.1619L235.949 83.9282L233.962 83.6945C233.7 85.925 233.107 87.2444 232.438 87.9696L233.908 89.3262Z" fill="black" mask="url(#path-21-outside-1_99_953)"/>
<defs>
<filter id="filter0_dddddd_99_953" x="0.000152588" y="0.000152588" width="520.75" height="520.75" filterUnits="userSpaceOnUse" color-interpolation-filters="sRGB">
<feFlood flood-opacity="0" result="BackgroundImageFix"/>
<feColorMatrix in="SourceAlpha" type="matrix" values="0 0 0 0 0 0 0 0 0 0 0 0 0 0 0 0 0 0 127 0" result="hardAlpha"/>
<feOffset/>
<feGaussianBlur stdDeviation="1.01637"/>
<feColorMatrix type="matrix" values="0 0 0 0 1 0 0 0 0 1 0 0 0 0 1 0 0 0 1 0"/>
<feBlend mode="normal" in2="BackgroundImageFix" result="effect1_dropShadow_99_953"/>
<feColorMatrix in="SourceAlpha" type="matrix" values="0 0 0 0 0 0 0 0 0 0 0 0 0 0 0 0 0 0 127 0" result="hardAlpha"/>
<feOffset/>
<feGaussianBlur stdDeviation="2.03273"/>
<feColorMatrix type="matrix" values="0 0 0 0 1 0 0 0 0 1 0 0 0 0 1 0 0 0 1 0"/>
<feBlend mode="normal" in2="effect1_dropShadow_99_953" result="effect2_dropShadow_99_953"/>
<feColorMatrix in="SourceAlpha" type="matrix" values="0 0 0 0 0 0 0 0 0 0 0 0 0 0 0 0 0 0 127 0" result="hardAlpha"/>
<feOffset/>
<feGaussianBlur stdDeviation="7.11457"/>
<feColorMatrix type="matrix" values="0 0 0 0 1 0 0 0 0 1 0 0 0 0 1 0 0 0 1 0"/>
<feBlend mode="normal" in2="effect2_dropShadow_99_953" result="effect3_dropShadow_99_953"/>
<feColorMatrix in="SourceAlpha" type="matrix" values="0 0 0 0 0 0 0 0 0 0 0 0 0 0 0 0 0 0 127 0" result="hardAlpha"/>
<feOffset/>
<feGaussianBlur stdDeviation="14.2291"/>
<feColorMatrix type="matrix" values="0 0 0 0 1 0 0 0 0 1 0 0 0 0 1 0 0 0 1 0"/>
<feBlend mode="normal" in2="effect3_dropShadow_99_953" result="effect4_dropShadow_99_953"/>
<feColorMatrix in="SourceAlpha" type="matrix" values="0 0 0 0 0 0 0 0 0 0 0 0 0 0 0 0 0 0 127 0" result="hardAlpha"/>
<feOffset/>
<feGaussianBlur stdDeviation="24.3928"/>
<feColorMatrix type="matrix" values="0 0 0 0 1 0 0 0 0 1 0 0 0 0 1 0 0 0 1 0"/>
<feBlend mode="normal" in2="effect4_dropShadow_99_953" result="effect5_dropShadow_99_953"/>
<feColorMatrix in="SourceAlpha" type="matrix" values="0 0 0 0 0 0 0 0 0 0 0 0 0 0 0 0 0 0 127 0" result="hardAlpha"/>
<feOffset/>
<feGaussianBlur stdDeviation="42.6874"/>
<feColorMatrix type="matrix" values="0 0 0 0 1 0 0 0 0 1 0 0 0 0 1 0 0 0 1 0"/>
<feBlend mode="normal" in2="effect5_dropShadow_99_953" result="effect6_dropShadow_99_953"/>
<feBlend mode="normal" in="SourceGraphic" in2="effect6_dropShadow_99_953" result="shape"/>
</filter>
<filter id="filter1_d_99_953" x="81.375" y="123.375" width="358" height="42" filterUnits="userSpaceOnUse" color-interpolation-filters="sRGB">
<feFlood flood-opacity="0" result="BackgroundImageFix"/>
<feColorMatrix in="SourceAlpha" type="matrix" values="0 0 0 0 0 0 0 0 0 0 0 0 0 0 0 0 0 0 127 0" result="hardAlpha"/>
<feOffset dy="4"/>
<feGaussianBlur stdDeviation="2"/>
<feComposite in2="hardAlpha" operator="out"/>
<feColorMatrix type="matrix" values="0 0 0 0 0 0 0 0 0 0 0 0 0 0 0 0 0 0 0.25 0"/>
<feBlend mode="normal" in2="BackgroundImageFix" result="effect1_dropShadow_99_953"/>
<feBlend mode="normal" in="SourceGraphic" in2="effect1_dropShadow_99_953" result="shape"/>
</filter>
<filter id="filter2_d_99_953" x="411.375" y="157.375" width="28" height="258" filterUnits="userSpaceOnUse" color-interpolation-filters="sRGB">
<feFlood flood-opacity="0" result="BackgroundImageFix"/>
<feColorMatrix in="SourceAlpha" type="matrix" values="0 0 0 0 0 0 0 0 0 0 0 0 0 0 0 0 0 0 127 0" result="hardAlpha"/>
<feOffset dy="4"/>
<feGaussianBlur stdDeviation="2"/>
<feComposite in2="hardAlpha" operator="out"/>
<feColorMatrix type="matrix" values="0 0 0 0 0 0 0 0 0 0 0 0 0 0 0 0 0 0 0.25 0"/>
<feBlend mode="normal" in2="BackgroundImageFix" result="effect1_dropShadow_99_953"/>
<feBlend mode="normal" in="SourceGraphic" in2="effect1_dropShadow_99_953" result="shape"/>
</filter>
<filter id="filter3_d_99_953" x="78.375" y="82.375" width="364" height="52" filterUnits="userSpaceOnUse" color-interpolation-filters="sRGB">
<feFlood flood-opacity="0" result="BackgroundImageFix"/>
<feColorMatrix in="SourceAlpha" type="matrix" values="0 0 0 0 0 0 0 0 0 0 0 0 0 0 0 0 0 0 127 0" result="hardAlpha"/>
<feOffset dy="4"/>
<feGaussianBlur stdDeviation="3.5"/>
<feComposite in2="hardAlpha" operator="out"/>
<feColorMatrix type="matrix" values="0 0 0 0 0 0 0 0 0 0 0 0 0 0 0 0 0 0 0.25 0"/>
<feBlend mode="normal" in2="BackgroundImageFix" result="effect1_dropShadow_99_953"/>
<feBlend mode="normal" in="SourceGraphic" in2="effect1_dropShadow_99_953" result="shape"/>
</filter>
<filter id="filter4_d_99_953" x="81.375" y="421.375" width="358" height="22" filterUnits="userSpaceOnUse" color-interpolation-filters="sRGB">
<feFlood flood-opacity="0" result="BackgroundImageFix"/>
<feColorMatrix in="SourceAlpha" type="matrix" values="0 0 0 0 0 0 0 0 0 0 0 0 0 0 0 0 0 0 127 0" result="hardAlpha"/>
<feOffset dy="4"/>
<feGaussianBlur stdDeviation="2"/>
<feComposite in2="hardAlpha" operator="out"/>
<feColorMatrix type="matrix" values="0 0 0 0 0 0 0 0 0 0 0 0 0 0 0 0 0 0 0.25 0"/>
<feBlend mode="normal" in2="BackgroundImageFix" result="effect1_dropShadow_99_953"/>
<feBlend mode="normal" in="SourceGraphic" in2="effect1_dropShadow_99_953" result="shape"/>
</filter>
<filter id="filter5_d_99_953" x="101.375" y="407.375" width="376" height="22" filterUnits="userSpaceOnUse" color-interpolation-filters="sRGB">
<feFlood flood-opacity="0" result="BackgroundImageFix"/>
<feColorMatrix in="SourceAlpha" type="matrix" values="0 0 0 0 0 0 0 0 0 0 0 0 0 0 0 0 0 0 127 0" result="hardAlpha"/>
<feOffset dy="4"/>
<feGaussianBlur stdDeviation="2"/>
<feComposite in2="hardAlpha" operator="out"/>
<feColorMatrix type="matrix" values="0 0 0 0 0 0 0 0 0 0 0 0 0 0 0 0 0 0 0.25 0"/>
<feBlend mode="normal" in2="BackgroundImageFix" result="effect1_dropShadow_99_953"/>
<feBlend mode="normal" in="SourceGraphic" in2="effect1_dropShadow_99_953" result="shape"/>
</filter>
<filter id="filter6_d_99_953" x="81.375" y="157.375" width="28" height="286" filterUnits="userSpaceOnUse" color-interpolation-filters="sRGB">
<feFlood flood-opacity="0" result="BackgroundImageFix"/>
<feColorMatrix in="SourceAlpha" type="matrix" values="0 0 0 0 0 0 0 0 0 0 0 0 0 0 0 0 0 0 127 0" result="hardAlpha"/>
<feOffset dy="4"/>
<feGaussianBlur stdDeviation="2"/>
<feComposite in2="hardAlpha" operator="out"/>
<feColorMatrix type="matrix" values="0 0 0 0 0 0 0 0 0 0 0 0 0 0 0 0 0 0 0.25 0"/>
<feBlend mode="normal" in2="BackgroundImageFix" result="effect1_dropShadow_99_953"/>
<feBlend mode="normal" in="SourceGraphic" in2="effect1_dropShadow_99_953" result="shape"/>
</filter>
<filter id="filter7_d_99_953" x="319.375" y="90.3779" width="36" height="36" filterUnits="userSpaceOnUse" color-interpolation-filters="sRGB">
<feFlood flood-opacity="0" result="BackgroundImageFix"/>
<feColorMatrix in="SourceAlpha" type="matrix" values="0 0 0 0 0 0 0 0 0 0 0 0 0 0 0 0 0 0 127 0" result="hardAlpha"/>
<feOffset dy="4"/>
<feGaussianBlur stdDeviation="2"/>
<feComposite in2="hardAlpha" operator="out"/>
<feColorMatrix type="matrix" values="0 0 0 0 0 0 0 0 0 0 0 0 0 0 0 0 0 0 0.25 0"/>
<feBlend mode="normal" in2="BackgroundImageFix" result="effect1_dropShadow_99_953"/>
<feBlend mode="normal" in="SourceGraphic" in2="effect1_dropShadow_99_953" result="shape"/>
</filter>
<filter id="filter8_d_99_953" x="356.375" y="90.3779" width="36" height="36" filterUnits="userSpaceOnUse" color-interpolation-filters="sRGB">
<feFlood flood-opacity="0" result="BackgroundImageFix"/>
<feColorMatrix in="SourceAlpha" type="matrix" values="0 0 0 0 0 0 0 0 0 0 0 0 0 0 0 0 0 0 127 0" result="hardAlpha"/>
<feOffset dy="4"/>
<feGaussianBlur stdDeviation="2"/>
<feComposite in2="hardAlpha" operator="out"/>
<feColorMatrix type="matrix" values="0 0 0 0 0 0 0 0 0 0 0 0 0 0 0 0 0 0 0.25 0"/>
<feBlend mode="normal" in2="BackgroundImageFix" result="effect1_dropShadow_99_953"/>
<feBlend mode="normal" in="SourceGraphic" in2="effect1_dropShadow_99_953" result="shape"/>
</filter>
<filter id="filter9_d_99_953" x="393.375" y="90.3779" width="36" height="36" filterUnits="userSpaceOnUse" color-interpolation-filters="sRGB">
<feFlood flood-opacity="0" result="BackgroundImageFix"/>
<feColorMatrix in="SourceAlpha" type="matrix" values="0 0 0 0 0 0 0 0 0 0 0 0 0 0 0 0 0 0 127 0" result="hardAlpha"/>
<feOffset dy="4"/>
<feGaussianBlur stdDeviation="2"/>
<feComposite in2="hardAlpha" operator="out"/>
<feColorMatrix type="matrix" values="0 0 0 0 0 0 0 0 0 0 0 0 0 0 0 0 0 0 0.25 0"/>
<feBlend mode="normal" in2="BackgroundImageFix" result="effect1_dropShadow_99_953"/>
<feBlend mode="normal" in="SourceGraphic" in2="effect1_dropShadow_99_953" result="shape"/>
</filter>
<clipPath id="clip0_99_953">
<rect width="350" height="350" fill="white" transform="translate(85.375 85.375)"/>
</clipPath>
</defs>
</svg>
