<svg width="1209" height="850" viewBox="0 0 1209 850" fill="none" xmlns="http://www.w3.org/2000/svg">
<g clip-path="url(#clip0_99_922)" filter="url(#filter0_dddddd_99_922)">
<rect width="709" height="350" transform="translate(250 250)" fill="white"/>
<g filter="url(#filter1_d_99_922)">
<rect x="250" y="288" width="709" height="34" fill="#ECEAD5"/>
</g>
<g filter="url(#filter2_d_99_922)">
<rect x="939" y="575" width="254" height="20" transform="rotate(-90 939 575)" fill="#ECEAD5"/>
</g>
<g filter="url(#filter3_d_99_922)">
<rect x="250" y="250" width="709" height="38" fill="#135FFF"/>
</g>
<g filter="url(#filter4_d_99_922)">
<rect x="270" y="584" width="689" height="17" fill="#ECEAD5"/>
</g>
<g filter="url(#filter5_d_99_922)">
<rect x="270" y="567" width="689" height="17" fill="#ECEAD5"/>
</g>
<g filter="url(#filter6_d_99_922)">
<rect x="250" y="600" width="278" height="20" transform="rotate(-90 250 600)" fill="#ECEAD5"/>
</g>
<g filter="url(#filter7_d_99_922)">
<rect x="844" y="255.002" width="28" height="28" rx="6" fill="#3F7FF8"/>
<rect x="844.5" y="255.502" width="27" height="27" rx="5.5" stroke="white"/>
</g>
<g filter="url(#filter8_d_99_922)">
<rect x="881" y="255.002" width="28" height="28" rx="6" fill="#3F7FF8"/>
<rect x="881.5" y="255.502" width="27" height="27" rx="5.5" stroke="white"/>
</g>
<g filter="url(#filter9_d_99_922)">
<rect x="918" y="255.002" width="28" height="28" rx="6" fill="#FF5151"/>
<rect x="918.5" y="255.502" width="27" height="27" rx="5.5" stroke="white"/>
</g>
<rect x="847" y="275.002" width="14" height="3" fill="white"/>
<rect x="886" y="262.002" width="16" height="2" fill="white"/>
<rect x="886" y="275.002" width="16" height="2" fill="white"/>
<rect x="888" y="263.002" width="13" height="2" transform="rotate(90 888 263.002)" fill="white"/>
<path d="M859.742 275.002H857.216L856.211 271.815H851.617L850.67 275.002H848.2L852.679 260.972H855.139L859.742 275.002ZM855.464 269.451L853.885 264.245L852.325 269.451H855.464Z" fill="white"/>
<path d="M935.522 277.674L922.604 268.434L924.06 266.399L932.669 272.556L927.123 262.116L928.655 259.975L941.573 269.215L940.117 271.25L931.693 265.225L937.06 275.524L935.522 277.674Z" fill="white"/>
</g>
<path d="M306.615 214.166C312.944 207.666 321.632 204 330.704 204H501.637C510.804 204 519.574 207.743 525.916 214.362L563.893 254H267.824L306.615 214.166Z" fill="#135FFF"/>
<path d="M258.272 298.666H264.495V299.976H262.034V308H260.733V299.976H258.272V298.666ZM265.484 311.595L265.343 310.109C265.63 310.203 265.876 310.25 266.081 310.25C266.357 310.25 266.582 310.194 266.758 310.083C266.94 309.972 267.089 309.799 267.206 309.564C267.247 309.482 267.417 308.967 267.716 308.018L264.807 298.666H266.204L267.804 304.071C268.003 304.745 268.188 305.466 268.358 306.233C268.504 305.507 268.68 304.798 268.885 304.106L270.52 298.666H271.821L268.911 308.158C268.531 309.389 268.229 310.209 268.006 310.619C267.789 311.035 267.54 311.334 267.259 311.516C266.984 311.697 266.67 311.788 266.319 311.788C266.073 311.788 265.794 311.724 265.484 311.595ZM272.027 298.666H278.25V299.976H275.789V308H274.488V299.976H272.027V298.666ZM283.25 298.666H285.271L287.284 306.137L289.508 298.666H291.38V308H290.079V300.485L287.82 308H286.66L284.516 300.125V308H283.25V298.666ZM292.667 303.333C292.667 301.722 293.004 300.506 293.678 299.686C294.358 298.865 295.216 298.455 296.253 298.455C297.273 298.455 298.125 298.865 298.811 299.686C299.496 300.506 299.839 301.689 299.839 303.236C299.839 304.912 299.502 306.16 298.828 306.98C298.155 307.801 297.296 308.211 296.253 308.211C295.228 308.211 294.372 307.801 293.687 306.98C293.007 306.154 292.667 304.938 292.667 303.333ZM293.994 303.333C293.994 304.54 294.214 305.439 294.654 306.031C295.093 306.617 295.638 306.91 296.288 306.91C296.898 306.91 297.419 306.614 297.853 306.022C298.292 305.425 298.512 304.528 298.512 303.333C298.512 302.132 298.292 301.238 297.853 300.652C297.413 300.061 296.868 299.765 296.218 299.765C295.603 299.765 295.078 300.061 294.645 300.652C294.211 301.244 293.994 302.138 293.994 303.333ZM305.82 298.666V302.7C306.23 302.7 306.517 302.604 306.681 302.41C306.851 302.217 307.097 301.654 307.419 300.723C307.677 299.979 307.885 299.489 308.043 299.255C308.208 299.015 308.389 298.856 308.588 298.78C308.788 298.704 309.139 298.666 309.643 298.666H309.836V299.976L309.45 299.967C309.192 299.967 309.001 300.011 308.878 300.099C308.761 300.187 308.656 300.38 308.562 300.679C308.269 301.622 308.038 302.229 307.868 302.498C307.698 302.768 307.428 303.005 307.059 303.21C307.622 303.392 308.169 304.024 308.703 305.108L310.126 308H308.703L307.314 305.108C307.027 304.517 306.775 304.133 306.558 303.957C306.347 303.775 306.101 303.685 305.82 303.685V308H304.493V303.685C304.206 303.685 303.957 303.772 303.746 303.948C303.535 304.118 303.283 304.505 302.99 305.108L301.601 308H300.177L301.601 305.108C302.14 304.019 302.688 303.386 303.245 303.21C302.887 303.011 302.624 302.788 302.454 302.542C302.29 302.296 302.052 301.675 301.742 300.679C301.654 300.386 301.548 300.195 301.425 300.107C301.308 300.014 301.118 299.967 300.854 299.967L300.467 299.976V298.666H300.661C301.182 298.666 301.551 298.713 301.768 298.807C301.985 298.9 302.166 299.076 302.313 299.334C302.465 299.586 302.7 300.175 303.016 301.101C303.262 301.81 303.467 302.255 303.631 302.437C303.795 302.612 304.083 302.7 304.493 302.7V298.666H305.82ZM310.869 298.666H312.161V302.551H315.764V298.666H317.056V308H315.764V303.86H312.161V308H310.869V298.666ZM318.317 303.333C318.317 301.722 318.654 300.506 319.328 299.686C320.008 298.865 320.866 298.455 321.903 298.455C322.923 298.455 323.775 298.865 324.461 299.686C325.146 300.506 325.489 301.689 325.489 303.236C325.489 304.912 325.152 306.16 324.479 306.98C323.805 307.801 322.946 308.211 321.903 308.211C320.878 308.211 320.022 307.801 319.337 306.98C318.657 306.154 318.317 304.938 318.317 303.333ZM319.645 303.333C319.645 304.54 319.864 305.439 320.304 306.031C320.743 306.617 321.288 306.91 321.938 306.91C322.548 306.91 323.069 306.614 323.503 306.022C323.942 305.425 324.162 304.528 324.162 303.333C324.162 302.132 323.942 301.238 323.503 300.652C323.063 300.061 322.519 299.765 321.868 299.765C321.253 299.765 320.729 300.061 320.295 300.652C319.861 301.244 319.645 302.138 319.645 303.333ZM330.762 298.666H336.8V308H335.508V299.976H332.054V308H330.762V298.666ZM338.044 303.333C338.044 301.722 338.381 300.506 339.054 299.686C339.734 298.865 340.593 298.455 341.63 298.455C342.649 298.455 343.502 298.865 344.187 299.686C344.873 300.506 345.216 301.689 345.216 303.236C345.216 304.912 344.879 306.16 344.205 306.98C343.531 307.801 342.673 308.211 341.63 308.211C340.604 308.211 339.749 307.801 339.063 306.98C338.384 306.154 338.044 304.938 338.044 303.333ZM339.371 303.333C339.371 304.54 339.591 305.439 340.03 306.031C340.469 306.617 341.014 306.91 341.665 306.91C342.274 306.91 342.796 306.614 343.229 306.022C343.669 305.425 343.888 304.528 343.888 303.333C343.888 302.132 343.669 301.238 343.229 300.652C342.79 300.061 342.245 299.765 341.594 299.765C340.979 299.765 340.455 300.061 340.021 300.652C339.588 301.244 339.371 302.138 339.371 303.333ZM346.564 298.666H347.856V305.785L351.46 298.666H352.857V308H351.565V300.925L347.962 308H346.564V298.666ZM356.324 303.781V302.542C356.875 302.536 357.247 302.51 357.441 302.463C357.64 302.416 357.827 302.278 358.003 302.05C358.179 301.815 358.267 301.52 358.267 301.162C358.267 300.729 358.15 300.386 357.915 300.134C357.687 299.882 357.388 299.756 357.019 299.756C356.286 299.756 355.774 300.28 355.481 301.329L354.25 301.083C354.643 299.331 355.572 298.455 357.036 298.455C357.845 298.455 358.481 298.728 358.944 299.272C359.412 299.812 359.647 300.462 359.647 301.224C359.647 301.956 359.345 302.562 358.741 303.043C359.509 303.553 359.893 304.335 359.893 305.39C359.893 306.228 359.644 306.907 359.146 307.429C358.648 307.95 357.95 308.211 357.054 308.211C355.314 308.211 354.3 307.265 354.013 305.372L355.226 305.056C355.337 305.647 355.563 306.11 355.903 306.444C356.242 306.772 356.629 306.937 357.063 306.937C357.508 306.937 357.874 306.787 358.161 306.488C358.448 306.184 358.592 305.797 358.592 305.328C358.592 304.953 358.501 304.637 358.32 304.379C358.138 304.115 357.945 303.948 357.739 303.878C357.54 303.808 357.209 303.772 356.746 303.772L356.324 303.781ZM361.136 311.595L360.996 310.109C361.283 310.203 361.529 310.25 361.734 310.25C362.009 310.25 362.235 310.194 362.411 310.083C362.592 309.972 362.742 309.799 362.859 309.564C362.9 309.482 363.07 308.967 363.369 308.018L360.459 298.666H361.857L363.457 304.071C363.656 304.745 363.84 305.466 364.01 306.233C364.157 305.507 364.332 304.798 364.538 304.106L366.172 298.666H367.473L364.564 308.158C364.183 309.389 363.881 310.209 363.659 310.619C363.442 311.035 363.193 311.334 362.912 311.516C362.636 311.697 362.323 311.788 361.971 311.788C361.725 311.788 361.447 311.724 361.136 311.595ZM367.899 298.666H369.191V300.433C369.191 301.206 369.232 301.771 369.314 302.129C369.396 302.48 369.581 302.776 369.868 303.017C370.155 303.251 370.498 303.368 370.896 303.368C371.394 303.368 372.036 303.21 372.821 302.894V298.666H374.113V308H372.821V304.238C372.018 304.543 371.271 304.695 370.58 304.695C369.824 304.695 369.188 304.399 368.673 303.808C368.157 303.21 367.899 302.311 367.899 301.109V298.666ZM380.85 306.849C380.416 307.3 379.965 307.64 379.496 307.868C379.027 308.097 378.541 308.211 378.037 308.211C377.24 308.211 376.604 307.971 376.13 307.49C375.655 307.01 375.418 306.362 375.418 305.548C375.418 305.009 375.529 304.531 375.752 304.115C375.975 303.699 376.279 303.374 376.666 303.14C377.053 302.905 377.639 302.732 378.424 302.621C379.478 302.469 380.252 302.287 380.744 302.076L380.753 301.672C380.753 301.033 380.639 300.585 380.41 300.327C380.088 299.952 379.593 299.765 378.925 299.765C378.321 299.765 377.87 299.891 377.571 300.143C377.272 300.389 377.053 300.854 376.912 301.54L375.638 301.329C375.819 300.327 376.186 299.598 376.736 299.141C377.293 298.684 378.087 298.455 379.118 298.455C379.921 298.455 380.551 298.607 381.008 298.912C381.465 299.211 381.752 299.583 381.869 300.028C381.992 300.474 382.054 301.124 382.054 301.979V304.089C382.054 305.565 382.08 306.497 382.133 306.884C382.191 307.265 382.303 307.637 382.467 308H381.113C380.978 307.678 380.891 307.294 380.85 306.849ZM380.744 303.315C380.27 303.55 379.563 303.749 378.626 303.913C378.081 304.007 377.7 304.115 377.483 304.238C377.267 304.355 377.097 304.525 376.974 304.748C376.856 304.965 376.798 305.217 376.798 305.504C376.798 305.949 376.936 306.307 377.211 306.576C377.486 306.84 377.867 306.972 378.353 306.972C378.816 306.972 379.235 306.852 379.61 306.611C379.991 306.371 380.275 306.052 380.463 305.653C380.65 305.249 380.744 304.663 380.744 303.896V303.315ZM383.192 298.666H389.414V299.976H386.953V308H385.653V299.976H383.192V298.666ZM390.438 298.666H391.73V302.313H393.382C394.566 302.313 395.418 302.592 395.94 303.148C396.461 303.705 396.722 304.379 396.722 305.17C396.722 305.92 396.485 306.579 396.01 307.147C395.541 307.716 394.765 308 393.681 308H390.438V298.666ZM391.73 306.699H393.092C394.082 306.699 394.712 306.541 394.982 306.225C395.251 305.908 395.386 305.56 395.386 305.179C395.386 304.681 395.231 304.297 394.92 304.027C394.61 303.758 394.059 303.623 393.268 303.623H391.73V306.699ZM406.847 306.849C406.413 307.3 405.962 307.64 405.493 307.868C405.024 308.097 404.538 308.211 404.034 308.211C403.237 308.211 402.602 307.971 402.127 307.49C401.652 307.01 401.415 306.362 401.415 305.548C401.415 305.009 401.526 304.531 401.749 304.115C401.972 303.699 402.276 303.374 402.663 303.14C403.05 302.905 403.636 302.732 404.421 302.621C405.476 302.469 406.249 302.287 406.741 302.076L406.75 301.672C406.75 301.033 406.636 300.585 406.407 300.327C406.085 299.952 405.59 299.765 404.922 299.765C404.318 299.765 403.867 299.891 403.568 300.143C403.269 300.389 403.05 300.854 402.909 301.54L401.635 301.329C401.816 300.327 402.183 299.598 402.733 299.141C403.29 298.684 404.084 298.455 405.115 298.455C405.918 298.455 406.548 298.607 407.005 298.912C407.462 299.211 407.749 299.583 407.866 300.028C407.989 300.474 408.051 301.124 408.051 301.979V304.089C408.051 305.565 408.077 306.497 408.13 306.884C408.188 307.265 408.3 307.637 408.464 308H407.11C406.976 307.678 406.888 307.294 406.847 306.849ZM406.741 303.315C406.267 303.55 405.561 303.749 404.623 303.913C404.078 304.007 403.697 304.115 403.48 304.238C403.264 304.355 403.094 304.525 402.971 304.748C402.853 304.965 402.795 305.217 402.795 305.504C402.795 305.949 402.933 306.307 403.208 306.576C403.483 306.84 403.864 306.972 404.351 306.972C404.813 306.972 405.232 306.852 405.607 306.611C405.988 306.371 406.272 306.052 406.46 305.653C406.647 305.249 406.741 304.663 406.741 303.896V303.315ZM409.865 311.577V298.666H411.052V299.879C411.345 299.375 411.67 299.012 412.028 298.789C412.385 298.566 412.795 298.455 413.258 298.455C413.862 298.455 414.406 298.634 414.893 298.991C415.379 299.349 415.769 299.894 416.062 300.626C416.361 301.353 416.51 302.229 416.51 303.254C416.51 304.842 416.176 306.066 415.508 306.928C414.846 307.783 414.067 308.211 413.17 308.211C412.772 308.211 412.4 308.108 412.054 307.903C411.708 307.698 411.409 307.408 411.157 307.033V311.577H409.865ZM411.034 303.386C411.034 304.593 411.237 305.483 411.641 306.058C412.045 306.626 412.534 306.91 413.109 306.91C413.659 306.91 414.143 306.614 414.559 306.022C414.975 305.431 415.183 304.517 415.183 303.28C415.183 302.062 414.981 301.159 414.576 300.573C414.172 299.987 413.68 299.694 413.1 299.694C412.578 299.694 412.104 300.011 411.676 300.644C411.248 301.271 411.034 302.185 411.034 303.386ZM417.2 298.666H423.422V299.976H420.961V308H419.661V299.976H417.2V298.666ZM429.684 304.994L431.02 305.196C430.798 306.192 430.393 306.945 429.807 307.455C429.227 307.959 428.507 308.211 427.645 308.211C426.561 308.211 425.682 307.801 425.008 306.98C424.341 306.154 424.007 304.965 424.007 303.412C424.007 301.801 424.343 300.573 425.017 299.729C425.697 298.88 426.555 298.455 427.592 298.455C428.583 298.455 429.409 298.871 430.071 299.703C430.733 300.535 431.064 301.739 431.064 303.315L431.055 303.737H425.342C425.395 304.786 425.638 305.577 426.072 306.11C426.506 306.644 427.033 306.91 427.654 306.91C428.627 306.91 429.303 306.271 429.684 304.994ZM425.422 302.437H429.693C429.634 301.628 429.462 301.024 429.175 300.626C428.758 300.046 428.228 299.756 427.584 299.756C427.004 299.756 426.508 299.999 426.098 300.485C425.688 300.966 425.463 301.616 425.422 302.437ZM436.939 295.115H438.24V299.571C438.773 298.827 439.415 298.455 440.165 298.455C441.038 298.455 441.747 298.903 442.292 299.8C442.843 300.696 443.118 301.868 443.118 303.315C443.118 304.78 442.831 305.964 442.257 306.866C441.683 307.763 440.971 308.211 440.121 308.211C439.424 308.211 438.797 307.871 438.24 307.191V311.577H436.939V307.191C436.418 307.871 435.791 308.211 435.059 308.211C434.18 308.211 433.459 307.748 432.896 306.822C432.334 305.896 432.053 304.701 432.053 303.236C432.053 302.199 432.199 301.314 432.492 300.582C432.791 299.844 433.157 299.305 433.591 298.965C434.024 298.625 434.514 298.455 435.059 298.455C435.82 298.455 436.447 298.827 436.939 299.571V295.115ZM438.231 303.482C438.231 305.779 438.791 306.928 439.91 306.928C440.449 306.928 440.9 306.62 441.264 306.005C441.627 305.39 441.809 304.476 441.809 303.263C441.809 302.079 441.636 301.197 441.29 300.617C440.944 300.037 440.502 299.747 439.963 299.747C438.809 299.747 438.231 300.992 438.231 303.482ZM433.371 303.324C433.371 304.602 433.559 305.519 433.934 306.075C434.314 306.632 434.76 306.91 435.269 306.91C436.389 306.91 436.948 305.756 436.948 303.447C436.948 300.986 436.356 299.756 435.173 299.756C434.669 299.756 434.241 300.049 433.89 300.635C433.544 301.215 433.371 302.111 433.371 303.324ZM449.398 306.849C448.964 307.3 448.513 307.64 448.044 307.868C447.575 308.097 447.089 308.211 446.585 308.211C445.788 308.211 445.153 307.971 444.678 307.49C444.203 307.01 443.966 306.362 443.966 305.548C443.966 305.009 444.077 304.531 444.3 304.115C444.523 303.699 444.827 303.374 445.214 303.14C445.601 302.905 446.187 302.732 446.972 302.621C448.027 302.469 448.8 302.287 449.292 302.076L449.301 301.672C449.301 301.033 449.187 300.585 448.958 300.327C448.636 299.952 448.141 299.765 447.473 299.765C446.869 299.765 446.418 299.891 446.119 300.143C445.821 300.389 445.601 300.854 445.46 301.54L444.186 301.329C444.367 300.327 444.734 299.598 445.284 299.141C445.841 298.684 446.635 298.455 447.666 298.455C448.469 298.455 449.099 298.607 449.556 298.912C450.013 299.211 450.3 299.583 450.417 300.028C450.54 300.474 450.602 301.124 450.602 301.979V304.089C450.602 305.565 450.628 306.497 450.681 306.884C450.739 307.265 450.851 307.637 451.015 308H449.661C449.527 307.678 449.439 307.294 449.398 306.849ZM449.292 303.315C448.818 303.55 448.112 303.749 447.174 303.913C446.629 304.007 446.248 304.115 446.031 304.238C445.815 304.355 445.645 304.525 445.522 304.748C445.404 304.965 445.346 305.217 445.346 305.504C445.346 305.949 445.484 306.307 445.759 306.576C446.034 306.84 446.415 306.972 446.902 306.972C447.364 306.972 447.783 306.852 448.158 306.611C448.539 306.371 448.823 306.052 449.011 305.653C449.198 305.249 449.292 304.663 449.292 303.896V303.315ZM452.434 298.666H453.726V302.7C454.142 302.7 454.432 302.604 454.596 302.41C454.766 302.211 455.012 301.648 455.334 300.723C455.586 299.979 455.791 299.489 455.95 299.255C456.114 299.015 456.295 298.856 456.495 298.78C456.7 298.704 457.054 298.666 457.558 298.666H457.751V299.976L457.365 299.967C457.089 299.967 456.893 300.017 456.776 300.116C456.659 300.216 456.559 300.403 456.477 300.679C456.184 301.622 455.953 302.229 455.783 302.498C455.613 302.768 455.343 303.005 454.974 303.21C455.531 303.392 456.079 304.024 456.618 305.108L458.041 308H456.618L455.229 305.108C454.948 304.522 454.699 304.139 454.482 303.957C454.271 303.775 454.019 303.685 453.726 303.685V308H452.434V298.666ZM457.993 298.666H464.216V299.976H461.755V308H460.454V299.976H457.993V298.666ZM465.239 298.666H466.531V302.313H468.184C469.367 302.313 470.22 302.592 470.741 303.148C471.263 303.705 471.523 304.379 471.523 305.17C471.523 305.92 471.286 306.579 470.811 307.147C470.343 307.716 469.566 308 468.482 308H465.239V298.666ZM466.531 306.699H467.893C468.884 306.699 469.514 306.541 469.783 306.225C470.053 305.908 470.187 305.56 470.187 305.179C470.187 304.681 470.032 304.297 469.722 304.027C469.411 303.758 468.86 303.623 468.069 303.623H466.531V306.699ZM472.815 308V298.666H474.107V308H472.815ZM476.441 308V306.198H477.917V308H476.441ZM480.356 308V306.198H481.832V308H480.356ZM484.271 308V306.198H485.748V308H484.271ZM488.186 308V306.198H489.663V308H488.186ZM492.102 308V306.198H493.578V308H492.102Z" fill="black"/>
<mask id="path-21-outside-1_99_922" maskUnits="userSpaceOnUse" x="350" y="227" width="121" height="44" fill="black">
<rect fill="white" x="350" y="227" width="121" height="44"/>
<path d="M368.902 254.482C367.578 255.861 366.199 256.899 364.767 257.597C363.334 258.295 361.848 258.645 360.309 258.645C357.874 258.645 355.931 257.91 354.481 256.442C353.031 254.974 352.306 252.996 352.306 250.507C352.306 248.86 352.646 247.401 353.326 246.13C354.007 244.859 354.938 243.865 356.119 243.149C357.301 242.433 359.091 241.905 361.49 241.564C364.713 241.099 367.076 240.544 368.58 239.899L368.607 238.664C368.607 236.713 368.258 235.343 367.56 234.555C366.575 233.409 365.062 232.836 363.021 232.836C361.177 232.836 359.798 233.221 358.885 233.991C357.972 234.743 357.301 236.167 356.871 238.261L352.977 237.617C353.532 234.555 354.651 232.326 356.334 230.93C358.035 229.533 360.461 228.835 363.612 228.835C366.065 228.835 367.989 229.3 369.386 230.231C370.782 231.145 371.66 232.281 372.018 233.642C372.394 235.003 372.582 236.99 372.582 239.604V246.049C372.582 250.561 372.662 253.408 372.823 254.589C373.002 255.753 373.342 256.89 373.844 258H369.708C369.296 257.015 369.028 255.843 368.902 254.482ZM368.58 243.686C367.13 244.402 364.973 245.011 362.108 245.512C360.443 245.799 359.279 246.13 358.617 246.506C357.954 246.864 357.435 247.383 357.059 248.063C356.701 248.726 356.522 249.496 356.522 250.373C356.522 251.734 356.943 252.826 357.784 253.649C358.626 254.455 359.789 254.858 361.275 254.858C362.69 254.858 363.97 254.491 365.116 253.757C366.279 253.023 367.148 252.047 367.721 250.83C368.294 249.594 368.58 247.804 368.58 245.458V243.686ZM378.126 268.93V229.479H381.752V233.186C382.647 231.646 383.641 230.536 384.733 229.855C385.825 229.175 387.078 228.835 388.493 228.835C390.337 228.835 392.002 229.381 393.488 230.473C394.974 231.565 396.164 233.23 397.06 235.468C397.973 237.688 398.429 240.365 398.429 243.498C398.429 248.35 397.409 252.092 395.368 254.724C393.345 257.338 390.963 258.645 388.224 258.645C387.007 258.645 385.87 258.331 384.813 257.705C383.757 257.078 382.844 256.192 382.074 255.046V268.93H378.126ZM381.698 243.901C381.698 247.589 382.316 250.31 383.551 252.065C384.787 253.802 386.282 254.67 388.036 254.67C389.719 254.67 391.196 253.766 392.467 251.958C393.738 250.149 394.374 247.356 394.374 243.579C394.374 239.855 393.756 237.097 392.521 235.307C391.286 233.517 389.782 232.622 388.009 232.622C386.416 232.622 384.966 233.588 383.659 235.522C382.352 237.438 381.698 240.231 381.698 243.901ZM400.026 258L408.566 243.176L400.671 229.479H405.612L409.211 236.167C409.873 237.402 410.419 238.467 410.849 239.362C411.512 238.145 412.102 237.097 412.622 236.22L416.569 229.479H421.296L413.212 242.907L421.914 258H417.053L412.246 249.138L410.983 246.748L404.833 258H400.026ZM424.639 229.479H428.586V251.232L439.597 229.479H443.867V258H439.919V236.381L428.909 258H424.639V229.479ZM449.278 229.479H458.409C460.485 229.479 462.07 229.676 463.162 230.07C464.272 230.464 465.257 231.279 466.116 232.514C466.993 233.732 467.432 235.244 467.432 237.053C467.432 239.774 466.501 241.806 464.639 243.149C467.199 244.295 468.479 246.586 468.479 250.024C468.479 252.226 467.826 254.106 466.519 255.664C465.212 257.221 462.983 258 459.832 258H449.278V229.479ZM453.226 241.484H457.469C459.152 241.484 460.306 241.376 460.933 241.162C461.578 240.947 462.151 240.517 462.652 239.873C463.153 239.21 463.404 238.404 463.404 237.456C463.404 235.952 462.956 234.913 462.061 234.34C461.184 233.767 459.698 233.481 457.603 233.481H453.226V241.484ZM453.226 254.025H458.462C460.7 254.025 462.249 253.685 463.108 253.005C463.968 252.307 464.397 251.232 464.397 249.782C464.397 248.243 463.941 247.141 463.028 246.479C462.133 245.799 460.477 245.458 458.06 245.458H453.226V254.025Z"/>
</mask>
<path d="M368.902 254.482C367.578 255.861 366.199 256.899 364.767 257.597C363.334 258.295 361.848 258.645 360.309 258.645C357.874 258.645 355.931 257.91 354.481 256.442C353.031 254.974 352.306 252.996 352.306 250.507C352.306 248.86 352.646 247.401 353.326 246.13C354.007 244.859 354.938 243.865 356.119 243.149C357.301 242.433 359.091 241.905 361.49 241.564C364.713 241.099 367.076 240.544 368.58 239.899L368.607 238.664C368.607 236.713 368.258 235.343 367.56 234.555C366.575 233.409 365.062 232.836 363.021 232.836C361.177 232.836 359.798 233.221 358.885 233.991C357.972 234.743 357.301 236.167 356.871 238.261L352.977 237.617C353.532 234.555 354.651 232.326 356.334 230.93C358.035 229.533 360.461 228.835 363.612 228.835C366.065 228.835 367.989 229.3 369.386 230.231C370.782 231.145 371.66 232.281 372.018 233.642C372.394 235.003 372.582 236.99 372.582 239.604V246.049C372.582 250.561 372.662 253.408 372.823 254.589C373.002 255.753 373.342 256.89 373.844 258H369.708C369.296 257.015 369.028 255.843 368.902 254.482ZM368.58 243.686C367.13 244.402 364.973 245.011 362.108 245.512C360.443 245.799 359.279 246.13 358.617 246.506C357.954 246.864 357.435 247.383 357.059 248.063C356.701 248.726 356.522 249.496 356.522 250.373C356.522 251.734 356.943 252.826 357.784 253.649C358.626 254.455 359.789 254.858 361.275 254.858C362.69 254.858 363.97 254.491 365.116 253.757C366.279 253.023 367.148 252.047 367.721 250.83C368.294 249.594 368.58 247.804 368.58 245.458V243.686ZM378.126 268.93V229.479H381.752V233.186C382.647 231.646 383.641 230.536 384.733 229.855C385.825 229.175 387.078 228.835 388.493 228.835C390.337 228.835 392.002 229.381 393.488 230.473C394.974 231.565 396.164 233.23 397.06 235.468C397.973 237.688 398.429 240.365 398.429 243.498C398.429 248.35 397.409 252.092 395.368 254.724C393.345 257.338 390.963 258.645 388.224 258.645C387.007 258.645 385.87 258.331 384.813 257.705C383.757 257.078 382.844 256.192 382.074 255.046V268.93H378.126ZM381.698 243.901C381.698 247.589 382.316 250.31 383.551 252.065C384.787 253.802 386.282 254.67 388.036 254.67C389.719 254.67 391.196 253.766 392.467 251.958C393.738 250.149 394.374 247.356 394.374 243.579C394.374 239.855 393.756 237.097 392.521 235.307C391.286 233.517 389.782 232.622 388.009 232.622C386.416 232.622 384.966 233.588 383.659 235.522C382.352 237.438 381.698 240.231 381.698 243.901ZM400.026 258L408.566 243.176L400.671 229.479H405.612L409.211 236.167C409.873 237.402 410.419 238.467 410.849 239.362C411.512 238.145 412.102 237.097 412.622 236.22L416.569 229.479H421.296L413.212 242.907L421.914 258H417.053L412.246 249.138L410.983 246.748L404.833 258H400.026ZM424.639 229.479H428.586V251.232L439.597 229.479H443.867V258H439.919V236.381L428.909 258H424.639V229.479ZM449.278 229.479H458.409C460.485 229.479 462.07 229.676 463.162 230.07C464.272 230.464 465.257 231.279 466.116 232.514C466.993 233.732 467.432 235.244 467.432 237.053C467.432 239.774 466.501 241.806 464.639 243.149C467.199 244.295 468.479 246.586 468.479 250.024C468.479 252.226 467.826 254.106 466.519 255.664C465.212 257.221 462.983 258 459.832 258H449.278V229.479ZM453.226 241.484H457.469C459.152 241.484 460.306 241.376 460.933 241.162C461.578 240.947 462.151 240.517 462.652 239.873C463.153 239.21 463.404 238.404 463.404 237.456C463.404 235.952 462.956 234.913 462.061 234.34C461.184 233.767 459.698 233.481 457.603 233.481H453.226V241.484ZM453.226 254.025H458.462C460.7 254.025 462.249 253.685 463.108 253.005C463.968 252.307 464.397 251.232 464.397 249.782C464.397 248.243 463.941 247.141 463.028 246.479C462.133 245.799 460.477 245.458 458.06 245.458H453.226V254.025Z" fill="white"/>
<path d="M368.902 254.482L370.695 254.317L370.334 250.395L367.605 253.235L368.902 254.482ZM364.767 257.597L363.978 255.979L364.767 257.597ZM361.49 241.564L361.743 243.347L361.748 243.346L361.49 241.564ZM368.58 239.899L369.289 241.554L370.354 241.097L370.38 239.939L368.58 239.899ZM368.607 238.664L370.407 238.703L370.407 238.684V238.664H368.607ZM367.56 234.555L366.194 235.728L366.203 235.739L366.213 235.749L367.56 234.555ZM358.885 233.991L360.03 235.381L360.038 235.374L360.046 235.367L358.885 233.991ZM356.871 238.261L356.577 240.037L358.286 240.32L358.634 238.623L356.871 238.261ZM352.977 237.617L351.206 237.296L350.88 239.094L352.683 239.393L352.977 237.617ZM356.334 230.93L355.192 229.539L355.185 229.544L356.334 230.93ZM369.386 230.231L368.387 231.729L368.394 231.734L368.401 231.738L369.386 230.231ZM372.018 233.642L370.277 234.1L370.28 234.111L370.283 234.121L372.018 233.642ZM372.823 254.589L371.04 254.833L371.042 254.848L371.044 254.863L372.823 254.589ZM373.844 258V259.8H376.632L375.484 257.259L373.844 258ZM369.708 258L368.047 258.694L368.51 259.8H369.708V258ZM368.58 243.686H370.38V240.79L367.783 242.072L368.58 243.686ZM362.108 245.512L362.413 247.286L362.418 247.285L362.108 245.512ZM358.617 246.506L359.473 248.089L359.489 248.08L359.505 248.071L358.617 246.506ZM357.059 248.063L355.484 247.193L355.48 247.2L355.476 247.208L357.059 248.063ZM357.784 253.649L356.525 254.936L356.532 254.943L356.539 254.95L357.784 253.649ZM365.116 253.757L364.155 252.234L364.145 252.241L365.116 253.757ZM367.721 250.83L369.349 251.596L369.354 251.587L367.721 250.83ZM368.902 254.482L367.605 253.235C366.398 254.49 365.186 255.39 363.978 255.979L364.767 257.597L365.555 259.215C367.212 258.408 368.757 257.231 370.2 255.729L368.902 254.482ZM364.767 257.597L363.978 255.979C362.782 256.562 361.565 256.845 360.309 256.845V258.645V260.445C362.131 260.445 363.886 260.029 365.555 259.215L364.767 257.597ZM360.309 258.645V256.845C358.262 256.845 356.813 256.242 355.762 255.177L354.481 256.442L353.2 257.707C355.049 259.579 357.486 260.445 360.309 260.445V258.645ZM354.481 256.442L355.762 255.177C354.711 254.114 354.106 252.626 354.106 250.507H352.306H350.506C350.506 253.365 351.351 255.835 353.2 257.707L354.481 256.442ZM352.306 250.507H354.106C354.106 249.114 354.392 247.954 354.913 246.979L353.326 246.13L351.739 245.281C350.9 246.848 350.506 248.606 350.506 250.507H352.306ZM353.326 246.13L354.913 246.979C355.448 245.98 356.159 245.23 357.052 244.688L356.119 243.149L355.186 241.61C353.716 242.5 352.565 243.738 351.739 245.281L353.326 246.13ZM356.119 243.149L357.052 244.688C357.925 244.16 359.43 243.675 361.743 243.347L361.49 241.564L361.238 239.782C358.752 240.135 356.677 240.706 355.186 241.61L356.119 243.149ZM361.49 241.564L361.748 243.346C365.004 242.876 367.56 242.295 369.289 241.554L368.58 239.899L367.871 238.245C366.592 238.793 364.422 239.322 361.233 239.783L361.49 241.564ZM368.58 239.899L370.38 239.939L370.407 238.703L368.607 238.664L366.807 238.625L366.781 239.86L368.58 239.899ZM368.607 238.664H370.407C370.407 236.605 370.06 234.663 368.907 233.361L367.56 234.555L366.213 235.749C366.456 236.023 366.807 236.82 366.807 238.664H368.607ZM367.56 234.555L368.925 233.382C367.489 231.712 365.393 231.036 363.021 231.036V232.836V234.636C364.731 234.636 365.661 235.107 366.194 235.728L367.56 234.555ZM363.021 232.836V231.036C360.973 231.036 359.099 231.457 357.725 232.615L358.885 233.991L360.046 235.367C360.498 234.986 361.381 234.636 363.021 234.636V232.836ZM358.885 233.991L357.741 232.602C356.34 233.756 355.561 235.69 355.108 237.9L356.871 238.261L358.634 238.623C359.041 236.643 359.605 235.731 360.03 235.381L358.885 233.991ZM356.871 238.261L357.165 236.485L353.271 235.841L352.977 237.617L352.683 239.393L356.577 240.037L356.871 238.261ZM352.977 237.617L354.748 237.938C355.259 235.12 356.24 233.346 357.483 232.315L356.334 230.93L355.185 229.544C353.062 231.306 351.805 233.991 351.206 237.296L352.977 237.617ZM356.334 230.93L357.476 232.321C358.741 231.282 360.701 230.635 363.612 230.635V228.835V227.035C360.22 227.035 357.328 227.784 355.192 229.539L356.334 230.93ZM363.612 228.835V230.635C365.865 230.635 367.394 231.067 368.387 231.729L369.386 230.231L370.384 228.734C368.585 227.534 366.265 227.035 363.612 227.035V228.835ZM369.386 230.231L368.401 231.738C369.498 232.455 370.053 233.248 370.277 234.1L372.018 233.642L373.758 233.184C373.266 231.315 372.067 229.834 370.371 228.725L369.386 230.231ZM372.018 233.642L370.283 234.121C370.593 235.246 370.782 237.039 370.782 239.604H372.582H374.382C374.382 236.941 374.194 234.76 373.753 233.163L372.018 233.642ZM372.582 239.604H370.782V246.049H372.582H374.382V239.604H372.582ZM372.582 246.049H370.782C370.782 250.52 370.859 253.504 371.04 254.833L372.823 254.589L374.607 254.346C374.466 253.312 374.382 250.602 374.382 246.049H372.582ZM372.823 254.589L371.044 254.863C371.249 256.194 371.637 257.487 372.203 258.741L373.844 258L375.484 257.259C375.048 256.293 374.756 255.313 374.602 254.316L372.823 254.589ZM373.844 258V256.2H369.708V258V259.8H373.844V258ZM369.708 258L371.369 257.306C371.044 256.529 370.808 255.544 370.695 254.317L368.902 254.482L367.11 254.647C367.248 256.141 367.548 257.501 368.047 258.694L369.708 258ZM368.58 243.686L367.783 242.072C366.563 242.675 364.605 243.248 361.798 243.739L362.108 245.512L362.418 247.285C365.34 246.774 367.697 246.13 369.377 245.3L368.58 243.686ZM362.108 245.512L361.803 243.738C360.121 244.028 358.685 244.397 357.728 244.94L358.617 246.506L359.505 248.071C359.873 247.862 360.765 247.57 362.413 247.286L362.108 245.512ZM358.617 246.506L357.761 244.922C356.785 245.45 356.021 246.221 355.484 247.193L357.059 248.063L358.635 248.934C358.85 248.545 359.124 248.278 359.473 248.089L358.617 246.506ZM357.059 248.063L355.476 247.208C354.954 248.173 354.722 249.246 354.722 250.373H356.522H358.322C358.322 249.745 358.448 249.279 358.643 248.919L357.059 248.063ZM356.522 250.373H354.722C354.722 252.136 355.283 253.72 356.525 254.936L357.784 253.649L359.043 252.363C358.602 251.931 358.322 251.331 358.322 250.373H356.522ZM357.784 253.649L356.539 254.95C357.801 256.158 359.459 256.658 361.275 256.658V254.858V253.058C360.12 253.058 359.45 252.753 359.029 252.349L357.784 253.649ZM361.275 254.858V256.658C363.02 256.658 364.639 256.2 366.087 255.272L365.116 253.757L364.145 252.241C363.301 252.782 362.36 253.058 361.275 253.058V254.858ZM365.116 253.757L366.076 255.279C367.523 254.366 368.627 253.131 369.349 251.596L367.721 250.83L366.092 250.063C365.669 250.963 365.036 251.679 364.155 252.234L365.116 253.757ZM367.721 250.83L369.354 251.587C370.089 250.001 370.38 247.903 370.38 245.458H368.58H366.78C366.78 247.705 366.498 249.187 366.088 250.072L367.721 250.83ZM368.58 245.458H370.38V243.686H368.58H366.78V245.458H368.58ZM378.126 268.93H376.326V270.73H378.126V268.93ZM378.126 229.479V227.679H376.326V229.479H378.126ZM381.752 229.479H383.552V227.679H381.752V229.479ZM381.752 233.186H379.952V239.863L383.308 234.09L381.752 233.186ZM384.733 229.855L383.781 228.328L384.733 229.855ZM393.488 230.473L392.422 231.924L393.488 230.473ZM397.06 235.468L395.388 236.137L395.392 236.145L395.395 236.153L397.06 235.468ZM395.368 254.724L393.945 253.621L393.944 253.622L395.368 254.724ZM382.074 255.046L383.568 254.042L380.274 249.139V255.046H382.074ZM382.074 268.93V270.73H383.874V268.93H382.074ZM383.551 252.065L382.079 253.101L382.085 253.108L383.551 252.065ZM383.659 235.522L385.146 236.536L385.15 236.53L383.659 235.522ZM378.126 268.93H379.926V229.479H378.126H376.326V268.93H378.126ZM378.126 229.479V231.279H381.752V229.479V227.679H378.126V229.479ZM381.752 229.479H379.952V233.186H381.752H383.552V229.479H381.752ZM381.752 233.186L383.308 234.09C384.109 232.712 384.919 231.86 385.685 231.383L384.733 229.855L383.781 228.328C382.363 229.211 381.185 230.58 380.196 232.281L381.752 233.186ZM384.733 229.855L385.685 231.383C386.463 230.898 387.38 230.635 388.493 230.635V228.835V227.035C386.776 227.035 385.187 227.452 383.781 228.328L384.733 229.855ZM388.493 228.835V230.635C389.953 230.635 391.245 231.059 392.422 231.924L393.488 230.473L394.554 229.023C392.759 227.704 390.72 227.035 388.493 227.035V228.835ZM393.488 230.473L392.422 231.924C393.566 232.764 394.58 234.117 395.388 236.137L397.06 235.468L398.731 234.8C397.748 232.344 396.382 230.366 394.554 229.023L393.488 230.473ZM397.06 235.468L395.395 236.153C396.196 238.101 396.629 240.532 396.629 243.498H398.429H400.229C400.229 240.198 399.749 237.276 398.724 234.784L397.06 235.468ZM398.429 243.498H396.629C396.629 248.127 395.652 251.42 393.945 253.621L395.368 254.724L396.79 255.827C399.165 252.764 400.229 248.573 400.229 243.498H398.429ZM395.368 254.724L393.944 253.622C392.183 255.897 390.289 256.845 388.224 256.845V258.645V260.445C391.637 260.445 394.506 258.778 396.791 255.825L395.368 254.724ZM388.224 258.645V256.845C387.333 256.845 386.513 256.62 385.732 256.156L384.813 257.705L383.895 259.253C385.227 260.043 386.681 260.445 388.224 260.445V258.645ZM384.813 257.705L385.732 256.156C384.933 255.682 384.208 254.994 383.568 254.042L382.074 255.046L380.58 256.05C381.481 257.39 382.582 258.474 383.895 259.253L384.813 257.705ZM382.074 255.046H380.274V268.93H382.074H383.874V255.046H382.074ZM382.074 268.93V267.13H378.126V268.93V270.73H382.074V268.93ZM381.698 243.901H379.898C379.898 247.722 380.526 250.894 382.079 253.101L383.551 252.065L385.023 251.029C384.106 249.727 383.498 247.456 383.498 243.901H381.698ZM383.551 252.065L382.085 253.108C383.576 255.204 385.571 256.47 388.036 256.47V254.67V252.87C386.992 252.87 385.998 252.399 385.018 251.022L383.551 252.065ZM388.036 254.67V256.47C390.482 256.47 392.448 255.115 393.94 252.993L392.467 251.958L390.995 250.922C389.944 252.417 388.956 252.87 388.036 252.87V254.67ZM392.467 251.958L393.94 252.993C395.528 250.734 396.174 247.492 396.174 243.579H394.374H392.574C392.574 247.221 391.949 249.565 390.995 250.922L392.467 251.958ZM394.374 243.579H396.174C396.174 239.721 395.546 236.522 394.003 234.285L392.521 235.307L391.039 236.329C391.966 237.673 392.574 239.988 392.574 243.579H394.374ZM392.521 235.307L394.003 234.285C392.518 232.133 390.511 230.822 388.009 230.822V232.622V234.422C389.053 234.422 390.054 234.901 391.039 236.329L392.521 235.307ZM388.009 232.622V230.822C385.573 230.822 383.643 232.331 382.167 234.514L383.659 235.522L385.15 236.53C386.288 234.846 387.259 234.422 388.009 234.422V232.622ZM383.659 235.522L382.172 234.508C380.574 236.85 379.898 240.063 379.898 243.901H381.698H383.498C383.498 240.398 384.13 238.025 385.146 236.536L383.659 235.522ZM400.026 258L398.467 257.101L396.912 259.8H400.026V258ZM408.566 243.176L410.126 244.074L410.644 243.175L410.126 242.277L408.566 243.176ZM400.671 229.479V227.679H397.556L399.111 230.378L400.671 229.479ZM405.612 229.479L407.197 228.626L406.688 227.679H405.612V229.479ZM409.211 236.167L410.797 235.316L410.796 235.314L409.211 236.167ZM410.849 239.362L409.226 240.141L410.749 243.313L412.43 240.223L410.849 239.362ZM412.622 236.22L414.171 237.137L414.175 237.13L412.622 236.22ZM416.569 229.479V227.679H415.538L415.016 228.57L416.569 229.479ZM421.296 229.479L422.838 230.408L424.48 227.679H421.296V229.479ZM413.212 242.907L411.67 241.979L411.123 242.887L411.653 243.806L413.212 242.907ZM421.914 258V259.8H425.029L423.473 257.101L421.914 258ZM417.053 258L415.471 258.858L415.981 259.8H417.053V258ZM412.246 249.138L410.654 249.978L410.659 249.987L410.663 249.996L412.246 249.138ZM410.983 246.748L412.575 245.907L411.011 242.945L409.404 245.884L410.983 246.748ZM404.833 258V259.8H405.901L406.413 258.863L404.833 258ZM400.026 258L401.586 258.899L410.126 244.074L408.566 243.176L407.007 242.277L398.467 257.101L400.026 258ZM408.566 243.176L410.126 242.277L402.23 228.581L400.671 229.479L399.111 230.378L407.007 244.075L408.566 243.176ZM400.671 229.479V231.279H405.612V229.479V227.679H400.671V229.479ZM405.612 229.479L404.027 230.332L407.626 237.02L409.211 236.167L410.796 235.314L407.197 228.626L405.612 229.479ZM409.211 236.167L407.625 237.017C408.279 238.238 408.812 239.278 409.226 240.141L410.849 239.362L412.472 238.583C412.027 237.656 411.468 236.566 410.797 235.316L409.211 236.167ZM410.849 239.362L412.43 240.223C413.086 239.018 413.666 237.99 414.171 237.137L412.622 236.22L411.073 235.303C410.539 236.205 409.937 237.272 409.268 238.502L410.849 239.362ZM412.622 236.22L414.175 237.13L418.123 230.389L416.569 229.479L415.016 228.57L411.068 235.311L412.622 236.22ZM416.569 229.479V231.279H421.296V229.479V227.679H416.569V229.479ZM421.296 229.479L419.754 228.551L411.67 241.979L413.212 242.907L414.755 243.836L422.838 230.408L421.296 229.479ZM413.212 242.907L411.653 243.806L420.354 258.899L421.914 258L423.473 257.101L414.772 242.008L413.212 242.907ZM421.914 258V256.2H417.053V258V259.8H421.914V258ZM417.053 258L418.635 257.142L413.828 248.279L412.246 249.138L410.663 249.996L415.471 258.858L417.053 258ZM412.246 249.138L413.837 248.297L412.575 245.907L410.983 246.748L409.392 247.588L410.654 249.978L412.246 249.138ZM410.983 246.748L409.404 245.884L403.254 257.137L404.833 258L406.413 258.863L412.563 247.611L410.983 246.748ZM404.833 258V256.2H400.026V258V259.8H404.833V258ZM424.639 229.479V227.679H422.839V229.479H424.639ZM428.586 229.479H430.386V227.679H428.586V229.479ZM428.586 251.232H426.786L430.192 252.045L428.586 251.232ZM439.597 229.479V227.679H438.491L437.991 228.667L439.597 229.479ZM443.867 229.479H445.667V227.679H443.867V229.479ZM443.867 258V259.8H445.667V258H443.867ZM439.919 258H438.119V259.8H439.919V258ZM439.919 236.381H441.719L438.315 235.564L439.919 236.381ZM428.909 258V259.8H430.012L430.513 258.817L428.909 258ZM424.639 258H422.839V259.8H424.639V258ZM424.639 229.479V231.279H428.586V229.479V227.679H424.639V229.479ZM428.586 229.479H426.786V251.232H428.586H430.386V229.479H428.586ZM428.586 251.232L430.192 252.045L441.203 230.292L439.597 229.479L437.991 228.667L426.98 250.42L428.586 251.232ZM439.597 229.479V231.279H443.867V229.479V227.679H439.597V229.479ZM443.867 229.479H442.067V258H443.867H445.667V229.479H443.867ZM443.867 258V256.2H439.919V258V259.8H443.867V258ZM439.919 258H441.719V236.381H439.919H438.119V258H439.919ZM439.919 236.381L438.315 235.564L427.305 257.183L428.909 258L430.513 258.817L441.523 237.198L439.919 236.381ZM428.909 258V256.2H424.639V258V259.8H428.909V258ZM424.639 258H426.439V229.479H424.639H422.839V258H424.639ZM449.278 229.479V227.679H447.478V229.479H449.278ZM463.162 230.07L462.551 231.764L462.56 231.767L463.162 230.07ZM466.116 232.514L464.639 233.542L464.647 233.554L464.656 233.566L466.116 232.514ZM464.639 243.149L463.586 241.689L461.053 243.516L463.904 244.792L464.639 243.149ZM449.278 258H447.478V259.8H449.278V258ZM453.226 241.484H451.426V243.284H453.226V241.484ZM460.933 241.162L460.364 239.454L460.357 239.456L460.349 239.459L460.933 241.162ZM462.652 239.873L464.073 240.978L464.08 240.968L464.087 240.959L462.652 239.873ZM462.061 234.34L461.077 235.847L461.084 235.852L461.091 235.856L462.061 234.34ZM453.226 233.481V231.681H451.426V233.481H453.226ZM453.226 254.025H451.426V255.825H453.226V254.025ZM463.108 253.005L464.226 254.416L464.235 254.409L464.243 254.402L463.108 253.005ZM463.028 246.479L461.939 247.912L461.955 247.924L461.971 247.936L463.028 246.479ZM453.226 245.458V243.658H451.426V245.458H453.226ZM449.278 229.479V231.279H458.409V229.479V227.679H449.278V229.479ZM458.409 229.479V231.279C460.415 231.279 461.752 231.475 462.551 231.764L463.162 230.07L463.773 228.377C462.388 227.878 460.556 227.679 458.409 227.679V229.479ZM463.162 230.07L462.56 231.767C463.228 232.004 463.934 232.53 464.639 233.542L466.116 232.514L467.594 231.486C466.579 230.028 465.316 228.925 463.764 228.374L463.162 230.07ZM466.116 232.514L464.656 233.566C465.27 234.419 465.632 235.543 465.632 237.053H467.432H469.232C469.232 234.946 468.717 233.044 467.577 231.462L466.116 232.514ZM467.432 237.053H465.632C465.632 239.318 464.888 240.75 463.586 241.689L464.639 243.149L465.692 244.609C468.114 242.862 469.232 240.231 469.232 237.053H467.432ZM464.639 243.149L463.904 244.792C464.856 245.218 465.51 245.821 465.948 246.605C466.399 247.412 466.679 248.52 466.679 250.024H468.479H470.279C470.279 248.09 469.92 246.334 469.091 244.849C468.248 243.341 466.983 242.226 465.374 241.506L464.639 243.149ZM468.479 250.024H466.679C466.679 251.841 466.152 253.301 465.14 254.507L466.519 255.664L467.898 256.821C469.5 254.911 470.279 252.611 470.279 250.024H468.479ZM466.519 255.664L465.14 254.507C464.327 255.475 462.744 256.2 459.832 256.2V258V259.8C463.222 259.8 466.097 258.967 467.898 256.821L466.519 255.664ZM459.832 258V256.2H449.278V258V259.8H459.832V258ZM449.278 258H451.078V229.479H449.278H447.478V258H449.278ZM453.226 241.484V243.284H457.469V241.484V239.684H453.226V241.484ZM457.469 241.484V243.284C459.136 243.284 460.572 243.188 461.517 242.864L460.933 241.162L460.349 239.459C460.041 239.565 459.167 239.684 457.469 239.684V241.484ZM460.933 241.162L461.502 242.869C462.547 242.521 463.398 241.845 464.073 240.978L462.652 239.873L461.231 238.767C460.903 239.189 460.608 239.373 460.364 239.454L460.933 241.162ZM462.652 239.873L464.087 240.959C464.858 239.94 465.204 238.738 465.204 237.456H463.404H461.604C461.604 238.071 461.448 238.48 461.216 238.786L462.652 239.873ZM463.404 237.456H465.204C465.204 235.616 464.641 233.854 463.031 232.824L462.061 234.34L461.091 235.856C461.272 235.972 461.604 236.287 461.604 237.456H463.404ZM462.061 234.34L463.045 232.833C461.703 231.957 459.759 231.681 457.603 231.681V233.481V235.281C459.636 235.281 460.665 235.578 461.077 235.847L462.061 234.34ZM457.603 233.481V231.681H453.226V233.481V235.281H457.603V233.481ZM453.226 233.481H451.426V241.484H453.226H455.026V233.481H453.226ZM453.226 254.025V255.825H458.462V254.025V252.225H453.226V254.025ZM458.462 254.025V255.825C460.754 255.825 462.853 255.503 464.226 254.416L463.108 253.005L461.991 251.594C461.645 251.867 460.647 252.225 458.462 252.225V254.025ZM463.108 253.005L464.243 254.402C465.646 253.262 466.197 251.594 466.197 249.782H464.397H462.597C462.597 250.871 462.289 251.351 461.973 251.608L463.108 253.005ZM464.397 249.782H466.197C466.197 247.894 465.623 246.138 464.085 245.022L463.028 246.479L461.971 247.936C462.259 248.145 462.597 248.592 462.597 249.782H464.397ZM463.028 246.479L464.117 245.046C463.374 244.481 462.447 244.15 461.477 243.95C460.491 243.748 459.343 243.658 458.06 243.658V245.458V247.258C459.194 247.258 460.082 247.339 460.752 247.477C461.438 247.618 461.786 247.796 461.939 247.912L463.028 246.479ZM458.06 245.458V243.658H453.226V245.458V247.258H458.06V245.458ZM453.226 245.458H451.426V254.025H453.226H455.026V245.458H453.226Z" fill="black" mask="url(#path-21-outside-1_99_922)"/>
<defs>
<filter id="filter0_dddddd_99_922" x="0" y="0" width="1209" height="850" filterUnits="userSpaceOnUse" color-interpolation-filters="sRGB">
<feFlood flood-opacity="0" result="BackgroundImageFix"/>
<feColorMatrix in="SourceAlpha" type="matrix" values="0 0 0 0 0 0 0 0 0 0 0 0 0 0 0 0 0 0 127 0" result="hardAlpha"/>
<feOffset/>
<feGaussianBlur stdDeviation="3.0099"/>
<feColorMatrix type="matrix" values="0 0 0 0 1 0 0 0 0 1 0 0 0 0 1 0 0 0 1 0"/>
<feBlend mode="normal" in2="BackgroundImageFix" result="effect1_dropShadow_99_922"/>
<feColorMatrix in="SourceAlpha" type="matrix" values="0 0 0 0 0 0 0 0 0 0 0 0 0 0 0 0 0 0 127 0" result="hardAlpha"/>
<feOffset/>
<feGaussianBlur stdDeviation="6.01979"/>
<feColorMatrix type="matrix" values="0 0 0 0 1 0 0 0 0 1 0 0 0 0 1 0 0 0 1 0"/>
<feBlend mode="normal" in2="effect1_dropShadow_99_922" result="effect2_dropShadow_99_922"/>
<feColorMatrix in="SourceAlpha" type="matrix" values="0 0 0 0 0 0 0 0 0 0 0 0 0 0 0 0 0 0 127 0" result="hardAlpha"/>
<feOffset/>
<feGaussianBlur stdDeviation="21.0693"/>
<feColorMatrix type="matrix" values="0 0 0 0 1 0 0 0 0 1 0 0 0 0 1 0 0 0 1 0"/>
<feBlend mode="normal" in2="effect2_dropShadow_99_922" result="effect3_dropShadow_99_922"/>
<feColorMatrix in="SourceAlpha" type="matrix" values="0 0 0 0 0 0 0 0 0 0 0 0 0 0 0 0 0 0 127 0" result="hardAlpha"/>
<feOffset/>
<feGaussianBlur stdDeviation="42.1385"/>
<feColorMatrix type="matrix" values="0 0 0 0 1 0 0 0 0 1 0 0 0 0 1 0 0 0 1 0"/>
<feBlend mode="normal" in2="effect3_dropShadow_99_922" result="effect4_dropShadow_99_922"/>
<feColorMatrix in="SourceAlpha" type="matrix" values="0 0 0 0 0 0 0 0 0 0 0 0 0 0 0 0 0 0 127 0" result="hardAlpha"/>
<feOffset/>
<feGaussianBlur stdDeviation="72.2375"/>
<feColorMatrix type="matrix" values="0 0 0 0 1 0 0 0 0 1 0 0 0 0 1 0 0 0 1 0"/>
<feBlend mode="normal" in2="effect4_dropShadow_99_922" result="effect5_dropShadow_99_922"/>
<feColorMatrix in="SourceAlpha" type="matrix" values="0 0 0 0 0 0 0 0 0 0 0 0 0 0 0 0 0 0 127 0" result="hardAlpha"/>
<feOffset/>
<feGaussianBlur stdDeviation="125"/>
<feColorMatrix type="matrix" values="0 0 0 0 1 0 0 0 0 1 0 0 0 0 1 0 0 0 1 0"/>
<feBlend mode="normal" in2="effect5_dropShadow_99_922" result="effect6_dropShadow_99_922"/>
<feBlend mode="normal" in="SourceGraphic" in2="effect6_dropShadow_99_922" result="shape"/>
</filter>
<filter id="filter1_d_99_922" x="246" y="288" width="717" height="42" filterUnits="userSpaceOnUse" color-interpolation-filters="sRGB">
<feFlood flood-opacity="0" result="BackgroundImageFix"/>
<feColorMatrix in="SourceAlpha" type="matrix" values="0 0 0 0 0 0 0 0 0 0 0 0 0 0 0 0 0 0 127 0" result="hardAlpha"/>
<feOffset dy="4"/>
<feGaussianBlur stdDeviation="2"/>
<feComposite in2="hardAlpha" operator="out"/>
<feColorMatrix type="matrix" values="0 0 0 0 0 0 0 0 0 0 0 0 0 0 0 0 0 0 0.25 0"/>
<feBlend mode="normal" in2="BackgroundImageFix" result="effect1_dropShadow_99_922"/>
<feBlend mode="normal" in="SourceGraphic" in2="effect1_dropShadow_99_922" result="shape"/>
</filter>
<filter id="filter2_d_99_922" x="935" y="321" width="28" height="262" filterUnits="userSpaceOnUse" color-interpolation-filters="sRGB">
<feFlood flood-opacity="0" result="BackgroundImageFix"/>
<feColorMatrix in="SourceAlpha" type="matrix" values="0 0 0 0 0 0 0 0 0 0 0 0 0 0 0 0 0 0 127 0" result="hardAlpha"/>
<feOffset dy="4"/>
<feGaussianBlur stdDeviation="2"/>
<feComposite in2="hardAlpha" operator="out"/>
<feColorMatrix type="matrix" values="0 0 0 0 0 0 0 0 0 0 0 0 0 0 0 0 0 0 0.25 0"/>
<feBlend mode="normal" in2="BackgroundImageFix" result="effect1_dropShadow_99_922"/>
<feBlend mode="normal" in="SourceGraphic" in2="effect1_dropShadow_99_922" result="shape"/>
</filter>
<filter id="filter3_d_99_922" x="243" y="247" width="723" height="52" filterUnits="userSpaceOnUse" color-interpolation-filters="sRGB">
<feFlood flood-opacity="0" result="BackgroundImageFix"/>
<feColorMatrix in="SourceAlpha" type="matrix" values="0 0 0 0 0 0 0 0 0 0 0 0 0 0 0 0 0 0 127 0" result="hardAlpha"/>
<feOffset dy="4"/>
<feGaussianBlur stdDeviation="3.5"/>
<feComposite in2="hardAlpha" operator="out"/>
<feColorMatrix type="matrix" values="0 0 0 0 0 0 0 0 0 0 0 0 0 0 0 0 0 0 0.25 0"/>
<feBlend mode="normal" in2="BackgroundImageFix" result="effect1_dropShadow_99_922"/>
<feBlend mode="normal" in="SourceGraphic" in2="effect1_dropShadow_99_922" result="shape"/>
</filter>
<filter id="filter4_d_99_922" x="266" y="584" width="697" height="25" filterUnits="userSpaceOnUse" color-interpolation-filters="sRGB">
<feFlood flood-opacity="0" result="BackgroundImageFix"/>
<feColorMatrix in="SourceAlpha" type="matrix" values="0 0 0 0 0 0 0 0 0 0 0 0 0 0 0 0 0 0 127 0" result="hardAlpha"/>
<feOffset dy="4"/>
<feGaussianBlur stdDeviation="2"/>
<feComposite in2="hardAlpha" operator="out"/>
<feColorMatrix type="matrix" values="0 0 0 0 0 0 0 0 0 0 0 0 0 0 0 0 0 0 0.25 0"/>
<feBlend mode="normal" in2="BackgroundImageFix" result="effect1_dropShadow_99_922"/>
<feBlend mode="normal" in="SourceGraphic" in2="effect1_dropShadow_99_922" result="shape"/>
</filter>
<filter id="filter5_d_99_922" x="266" y="567" width="697" height="25" filterUnits="userSpaceOnUse" color-interpolation-filters="sRGB">
<feFlood flood-opacity="0" result="BackgroundImageFix"/>
<feColorMatrix in="SourceAlpha" type="matrix" values="0 0 0 0 0 0 0 0 0 0 0 0 0 0 0 0 0 0 127 0" result="hardAlpha"/>
<feOffset dy="4"/>
<feGaussianBlur stdDeviation="2"/>
<feComposite in2="hardAlpha" operator="out"/>
<feColorMatrix type="matrix" values="0 0 0 0 0 0 0 0 0 0 0 0 0 0 0 0 0 0 0.25 0"/>
<feBlend mode="normal" in2="BackgroundImageFix" result="effect1_dropShadow_99_922"/>
<feBlend mode="normal" in="SourceGraphic" in2="effect1_dropShadow_99_922" result="shape"/>
</filter>
<filter id="filter6_d_99_922" x="246" y="322" width="28" height="286" filterUnits="userSpaceOnUse" color-interpolation-filters="sRGB">
<feFlood flood-opacity="0" result="BackgroundImageFix"/>
<feColorMatrix in="SourceAlpha" type="matrix" values="0 0 0 0 0 0 0 0 0 0 0 0 0 0 0 0 0 0 127 0" result="hardAlpha"/>
<feOffset dy="4"/>
<feGaussianBlur stdDeviation="2"/>
<feComposite in2="hardAlpha" operator="out"/>
<feColorMatrix type="matrix" values="0 0 0 0 0 0 0 0 0 0 0 0 0 0 0 0 0 0 0.25 0"/>
<feBlend mode="normal" in2="BackgroundImageFix" result="effect1_dropShadow_99_922"/>
<feBlend mode="normal" in="SourceGraphic" in2="effect1_dropShadow_99_922" result="shape"/>
</filter>
<filter id="filter7_d_99_922" x="840" y="255.002" width="36" height="36" filterUnits="userSpaceOnUse" color-interpolation-filters="sRGB">
<feFlood flood-opacity="0" result="BackgroundImageFix"/>
<feColorMatrix in="SourceAlpha" type="matrix" values="0 0 0 0 0 0 0 0 0 0 0 0 0 0 0 0 0 0 127 0" result="hardAlpha"/>
<feOffset dy="4"/>
<feGaussianBlur stdDeviation="2"/>
<feComposite in2="hardAlpha" operator="out"/>
<feColorMatrix type="matrix" values="0 0 0 0 0 0 0 0 0 0 0 0 0 0 0 0 0 0 0.25 0"/>
<feBlend mode="normal" in2="BackgroundImageFix" result="effect1_dropShadow_99_922"/>
<feBlend mode="normal" in="SourceGraphic" in2="effect1_dropShadow_99_922" result="shape"/>
</filter>
<filter id="filter8_d_99_922" x="877" y="255.002" width="36" height="36" filterUnits="userSpaceOnUse" color-interpolation-filters="sRGB">
<feFlood flood-opacity="0" result="BackgroundImageFix"/>
<feColorMatrix in="SourceAlpha" type="matrix" values="0 0 0 0 0 0 0 0 0 0 0 0 0 0 0 0 0 0 127 0" result="hardAlpha"/>
<feOffset dy="4"/>
<feGaussianBlur stdDeviation="2"/>
<feComposite in2="hardAlpha" operator="out"/>
<feColorMatrix type="matrix" values="0 0 0 0 0 0 0 0 0 0 0 0 0 0 0 0 0 0 0.25 0"/>
<feBlend mode="normal" in2="BackgroundImageFix" result="effect1_dropShadow_99_922"/>
<feBlend mode="normal" in="SourceGraphic" in2="effect1_dropShadow_99_922" result="shape"/>
</filter>
<filter id="filter9_d_99_922" x="914" y="255.002" width="36" height="36" filterUnits="userSpaceOnUse" color-interpolation-filters="sRGB">
<feFlood flood-opacity="0" result="BackgroundImageFix"/>
<feColorMatrix in="SourceAlpha" type="matrix" values="0 0 0 0 0 0 0 0 0 0 0 0 0 0 0 0 0 0 127 0" result="hardAlpha"/>
<feOffset dy="4"/>
<feGaussianBlur stdDeviation="2"/>
<feComposite in2="hardAlpha" operator="out"/>
<feColorMatrix type="matrix" values="0 0 0 0 0 0 0 0 0 0 0 0 0 0 0 0 0 0 0.25 0"/>
<feBlend mode="normal" in2="BackgroundImageFix" result="effect1_dropShadow_99_922"/>
<feBlend mode="normal" in="SourceGraphic" in2="effect1_dropShadow_99_922" result="shape"/>
</filter>
<clipPath id="clip0_99_922">
<rect width="709" height="350" fill="white" transform="translate(250 250)"/>
</clipPath>
</defs>
</svg>
