<svg width="48" height="42" viewBox="0 0 48 42" fill="none" xmlns="http://www.w3.org/2000/svg">
<path d="M46.2861 0.508789C46.6813 0.478456 46.9851 0.531002 47.1768 0.657227C47.3279 0.756919 47.4899 0.95654 47.498 1.44922L39.9277 40.0996C39.9222 40.1117 39.9158 40.127 39.9072 40.1445C39.879 40.2022 39.8344 40.2867 39.7725 40.3857C39.647 40.586 39.4566 40.835 39.1963 41.0459C38.9389 41.2544 38.6153 41.4244 38.2109 41.4805C37.8174 41.535 37.3144 41.4845 36.6797 41.2129L19.6162 27.9639C22.3076 25.515 32.0675 16.6297 37.3174 11.8389L40.6885 8.75391C41.0281 8.43304 41.2719 8.10692 41.3887 7.79004C41.5056 7.47271 41.5195 7.06309 41.2129 6.7666C40.9376 6.50044 40.5484 6.47544 40.2295 6.52637C39.9753 6.56698 39.6979 6.66454 39.4072 6.81348L39.1123 6.97949L39.1035 6.98438L12.2012 24.2852L1.97461 20.7998C1.96609 20.7965 1.95131 20.7909 1.93262 20.7832C1.89516 20.7677 1.83891 20.744 1.77051 20.7109C1.63217 20.6441 1.44795 20.5437 1.26172 20.4102C0.874504 20.1324 0.558822 19.7701 0.504883 19.3311V19.3301C0.461923 18.9833 0.705363 18.6416 1.16309 18.3242C1.37387 18.1781 1.59314 18.0641 1.7627 17.9863C1.84659 17.9479 1.91627 17.9191 1.96387 17.9004C1.98762 17.891 2.00611 17.8841 2.01758 17.8799C2.02302 17.8779 2.02704 17.8768 2.0293 17.876L2.03125 17.875L2.03027 17.874L2.04102 17.8711L2.05176 17.8672L44.6807 0.931641L44.6904 0.927734L44.7002 0.923828C44.7011 0.923411 44.7027 0.921948 44.7051 0.920898C44.7101 0.918713 44.7185 0.91576 44.7295 0.911133C44.7517 0.901795 44.7854 0.887281 44.8291 0.870117C44.917 0.835618 45.0446 0.788465 45.1973 0.739258C45.5069 0.639494 45.9031 0.538239 46.2861 0.508789Z" fill="#FEFEFE" stroke="black"/>
</svg>
