<svg width="428" height="132" viewBox="0 0 428 132" fill="none" xmlns="http://www.w3.org/2000/svg">
<g filter="url(#filter0_dddddd_4_41)">
<rect y="62.6069" width="428" height="69.55" fill="#0037FF"/>
</g>
<circle cx="51.3076" cy="98.2099" r="26.0488" fill="#0037FF" stroke="white" stroke-width="1.26352"/>
<path d="M63.269 69.5994C62.1019 72.2135 61.5172 74.4058 61.4486 76.6522C61.3773 78.9927 61.8684 81.3298 62.7449 84.1845L62.8059 84.386L62.9607 84.53C68.4389 89.6221 72.0644 93.8623 74.6662 98.5685C77.2678 103.275 78.8724 108.495 80.2408 115.586C80.31 115.944 80.5363 116.258 80.8571 116.437C83.4918 117.903 85.4529 119.115 86.9634 120.622C88.2716 121.927 89.2646 123.479 90.0249 125.666C88.9874 124.666 87.9347 123.858 86.694 123.194C85.1879 122.389 83.4432 121.814 81.1801 121.336L81.115 121.323L81.0487 121.32C78.8333 121.233 77.1378 121.401 75.6004 121.841C74.2126 122.238 72.99 122.847 71.6645 123.634C71.8972 122.348 72.2481 121.299 72.8608 120.282C73.5576 119.125 74.6217 117.961 76.3358 116.535C76.8132 116.138 76.932 115.435 76.5814 114.902C75.0698 112.601 73.7188 110.886 72.0756 109.47C70.4297 108.052 68.527 106.965 65.9507 105.866L65.833 105.816L65.7059 105.806L62.2013 105.524L62.1675 105.521L62.1341 105.521L59.356 105.536C58.2005 105.542 57.5864 106.903 58.3464 107.774L65.7641 116.266C59.6372 114.558 55.9828 112.195 50.2684 107.386C50.0505 107.203 49.7762 107.091 49.4892 107.071L49.3658 107.069C46.7629 107.131 44.7894 107.377 42.748 107.569C40.7063 107.761 38.5457 107.904 35.4904 107.771C32.4003 107.636 30.7674 107.313 29.3136 107.039C27.8181 106.758 26.4939 106.527 24.0972 106.615L23.9901 106.62L23.8873 106.652C18.7881 108.28 15.947 109.029 13.0159 107.957C12.3898 107.644 12.1039 107.403 11.9855 107.246C11.907 107.143 11.9123 107.103 11.9332 107.032C11.975 106.89 12.1015 106.68 12.3748 106.347C12.5045 106.189 12.6501 106.024 12.8142 105.836C12.9591 105.671 13.1147 105.49 13.2731 105.3C14.7722 104.005 15.9003 103.349 17.0494 102.467C18.1821 101.598 19.1321 100.635 19.8996 98.9464L19.9206 98.9016L19.9348 98.8559C20.926 95.6888 22.0197 93.4382 23.8403 91.5017C25.6686 89.5572 28.283 87.8721 32.4184 85.9418C39.966 83.2964 44.4512 82.2142 52.3988 80.4409C52.8249 80.3457 53.1763 80.0477 53.3469 79.6585C55.2292 75.3631 56.7979 73.0203 58.3676 71.6584C59.8073 70.4095 61.3085 69.9344 63.269 69.5994Z" fill="white" stroke="#0037FF" stroke-width="1.57103"/>
<path d="M33.9707 97.3974L35.5236 97.6437C35.3451 99.0003 34.8953 100.036 34.1742 100.75C33.4602 101.464 32.5998 101.821 31.5931 101.821C30.3722 101.821 29.3655 101.321 28.573 100.321C27.7876 99.3144 27.3949 97.8294 27.3949 95.8659C27.3949 93.8882 27.7912 92.4067 28.5837 91.4214C29.3834 90.429 30.4079 89.9328 31.6574 89.9328C32.6213 89.9328 33.4316 90.2326 34.0885 90.8324C34.7525 91.4321 35.1773 92.3317 35.3629 93.5312L33.8315 93.8204C33.6815 93.0493 33.4209 92.4745 33.0496 92.0961C32.6784 91.7106 32.2321 91.5178 31.7109 91.5178C30.9327 91.5178 30.2866 91.8641 29.7725 92.5566C29.2656 93.2421 29.0121 94.3345 29.0121 95.8338C29.0121 97.3831 29.2549 98.5041 29.7404 99.1966C30.233 99.8892 30.8613 100.235 31.6253 100.235C32.225 100.235 32.7355 100.007 33.1567 99.5501C33.5851 99.086 33.8564 98.3684 33.9707 97.3974ZM36.0269 90.1898H43.6094V91.7856H40.6107V101.563H39.0256V91.7856H36.0269V90.1898ZM47.5505 94.9449H50.8384C50.7527 93.981 50.485 93.1707 50.0352 92.5138C49.5925 91.8569 49.0106 91.5285 48.2895 91.5285C47.0615 91.5285 46.3225 92.3032 46.0726 93.8525L44.5304 93.5526C44.6446 92.5102 45.0302 91.6463 45.6871 90.9609C46.3511 90.2755 47.2043 89.9328 48.2467 89.9328C49.5532 89.9328 50.5814 90.4647 51.331 91.5285C52.0879 92.5852 52.4663 94.0382 52.4663 95.8874C52.4663 97.6937 52.095 99.136 51.3525 100.214C50.6171 101.285 49.6318 101.821 48.3966 101.821C47.24 101.821 46.3189 101.431 45.6335 100.653C44.9481 99.8749 44.5268 98.8754 44.3698 97.6544L45.9227 97.4081C46.1583 99.293 46.9472 100.235 48.2895 100.235C49.796 100.235 50.6456 99.0003 50.8384 96.5299H47.5505V94.9449ZM54.3726 90.1898H55.9469V99.9677H59.5561V90.1898H61.1411V99.9677H64.7396V90.1898H66.3139V101.563H54.3726V90.1898Z" fill="#0037FF"/>
<path d="M272.64 112.434C255.68 112.434 246.006 101.374 245.603 82.97H254.099C254.378 96.478 260.641 102.2 265.602 103.379V82.97H273.602V94.6199C278.501 94.1185 283.648 88.8097 285.384 82.97H293.384C292.729 85.9986 291.425 88.8663 289.552 91.3935C287.68 93.9208 285.279 96.0533 282.5 97.6577C285.602 99.1237 288.342 101.199 290.538 103.746C292.735 106.293 294.339 109.254 295.244 112.434H286.438C285.626 109.672 283.974 107.2 281.691 105.326C279.407 103.453 276.593 102.263 273.602 101.905V112.434H272.64V112.434Z" fill="white"/>
<path d="M405.697 80.3003L399.277 110.869C399.277 110.869 398.379 112.989 395.912 111.972L381.1 101.245L381.031 101.214C383.032 99.5166 398.546 86.3408 399.224 85.7436C400.274 84.8186 399.622 84.268 398.404 84.9667L375.487 98.7131L366.646 95.9033C366.646 95.9033 365.255 95.4358 365.121 94.4193C364.985 93.4012 366.692 92.8506 366.692 92.8506L402.734 79.4951C402.734 79.4951 405.697 78.2657 405.697 80.3003Z" fill="#FEFEFE"/>
<path d="M330.179 79.7676C340.084 79.7676 348.113 87.7972 348.113 97.7022C348.113 107.607 340.084 115.637 330.179 115.637C320.274 115.637 312.244 107.607 312.244 97.7022C312.244 87.7972 320.274 79.7676 330.179 79.7676ZM321.11 109.039C323.594 111.029 326.747 112.221 330.179 112.221C338.197 112.221 344.697 105.721 344.697 97.7022C344.697 94.2707 343.506 91.118 341.515 88.6331L321.11 109.039ZM330.179 83.1837C322.16 83.1837 315.66 89.6839 315.66 97.7022C315.66 101.058 316.8 104.147 318.712 106.606L339.083 86.2354C336.624 84.3234 333.535 83.1837 330.179 83.1837Z" fill="white"/>
<defs>
<filter id="filter0_dddddd_4_41" x="-62.607" y="-9.91821e-05" width="553.214" height="194.764" filterUnits="userSpaceOnUse" color-interpolation-filters="sRGB">
<feFlood flood-opacity="0" result="BackgroundImageFix"/>
<feColorMatrix in="SourceAlpha" type="matrix" values="0 0 0 0 0 0 0 0 0 0 0 0 0 0 0 0 0 0 127 0" result="hardAlpha"/>
<feOffset/>
<feGaussianBlur stdDeviation="0.745322"/>
<feColorMatrix type="matrix" values="0 0 0 0 1 0 0 0 0 1 0 0 0 0 1 0 0 0 1 0"/>
<feBlend mode="normal" in2="BackgroundImageFix" result="effect1_dropShadow_4_41"/>
<feColorMatrix in="SourceAlpha" type="matrix" values="0 0 0 0 0 0 0 0 0 0 0 0 0 0 0 0 0 0 127 0" result="hardAlpha"/>
<feOffset/>
<feGaussianBlur stdDeviation="1.49064"/>
<feColorMatrix type="matrix" values="0 0 0 0 1 0 0 0 0 1 0 0 0 0 1 0 0 0 1 0"/>
<feBlend mode="normal" in2="effect1_dropShadow_4_41" result="effect2_dropShadow_4_41"/>
<feColorMatrix in="SourceAlpha" type="matrix" values="0 0 0 0 0 0 0 0 0 0 0 0 0 0 0 0 0 0 127 0" result="hardAlpha"/>
<feOffset/>
<feGaussianBlur stdDeviation="5.21725"/>
<feColorMatrix type="matrix" values="0 0 0 0 1 0 0 0 0 1 0 0 0 0 1 0 0 0 1 0"/>
<feBlend mode="normal" in2="effect2_dropShadow_4_41" result="effect3_dropShadow_4_41"/>
<feColorMatrix in="SourceAlpha" type="matrix" values="0 0 0 0 0 0 0 0 0 0 0 0 0 0 0 0 0 0 127 0" result="hardAlpha"/>
<feOffset/>
<feGaussianBlur stdDeviation="10.4345"/>
<feColorMatrix type="matrix" values="0 0 0 0 1 0 0 0 0 1 0 0 0 0 1 0 0 0 1 0"/>
<feBlend mode="normal" in2="effect3_dropShadow_4_41" result="effect4_dropShadow_4_41"/>
<feColorMatrix in="SourceAlpha" type="matrix" values="0 0 0 0 0 0 0 0 0 0 0 0 0 0 0 0 0 0 127 0" result="hardAlpha"/>
<feOffset/>
<feGaussianBlur stdDeviation="17.8877"/>
<feColorMatrix type="matrix" values="0 0 0 0 1 0 0 0 0 1 0 0 0 0 1 0 0 0 1 0"/>
<feBlend mode="normal" in2="effect4_dropShadow_4_41" result="effect5_dropShadow_4_41"/>
<feColorMatrix in="SourceAlpha" type="matrix" values="0 0 0 0 0 0 0 0 0 0 0 0 0 0 0 0 0 0 127 0" result="hardAlpha"/>
<feOffset/>
<feGaussianBlur stdDeviation="31.3035"/>
<feColorMatrix type="matrix" values="0 0 0 0 1 0 0 0 0 1 0 0 0 0 1 0 0 0 1 0"/>
<feBlend mode="normal" in2="effect5_dropShadow_4_41" result="effect6_dropShadow_4_41"/>
<feBlend mode="normal" in="SourceGraphic" in2="effect6_dropShadow_4_41" result="shape"/>
</filter>
</defs>
</svg>
