<svg width="44" height="44" viewBox="0 0 44 44" fill="none" xmlns="http://www.w3.org/2000/svg">
<path d="M22 0.5C33.8741 0.5 43.5 10.1259 43.5 22C43.5 33.8741 33.8741 43.5 22 43.5C10.1259 43.5 0.5 33.8741 0.5 22C0.5 10.1259 10.1259 0.5 22 0.5ZM12.1367 35.2246C14.8885 37.2806 18.3006 38.5 22 38.5C31.1127 38.5 38.5 31.1127 38.5 22C38.5 18.3006 37.2806 14.8885 35.2246 12.1367L12.1367 35.2246ZM22 5.5C12.8873 5.5 5.5 12.8873 5.5 22C5.5 25.6102 6.66129 28.9468 8.62793 31.6631L31.6631 8.62793C28.9468 6.66129 25.6102 5.5 22 5.5Z" fill="white" stroke="black"/>
</svg>
