<svg width="232" height="181" viewBox="0 0 232 181" fill="none" xmlns="http://www.w3.org/2000/svg">
<circle cx="99.2805" cy="100.159" r="63.8339" fill="#0037FF" stroke="white" stroke-width="3.0963"/>
<path d="M128.598 30.0425C125.736 36.4515 124.303 41.8259 124.135 47.3329C123.96 53.0686 125.162 58.7961 127.31 65.7919L127.462 66.2847L127.84 66.636C141.265 79.1147 150.15 89.5061 156.526 101.039C162.902 112.572 166.833 125.364 170.186 142.741C170.355 143.618 170.91 144.389 171.696 144.827C178.153 148.419 182.958 151.389 186.66 155.082C189.864 158.279 192.299 162.08 194.162 167.434C191.621 164.986 189.039 163.011 186.001 161.387C182.31 159.413 178.034 158.003 172.488 156.833L172.329 156.799L172.166 156.793C166.737 156.582 162.583 156.992 158.815 158.07C155.413 159.043 152.417 160.536 149.167 162.466C149.737 159.315 150.598 156.743 152.1 154.25C153.807 151.416 156.415 148.563 160.616 145.068C161.786 144.095 162.078 142.373 161.219 141.065C157.515 135.426 154.203 131.226 150.177 127.756C146.143 124.281 141.481 121.615 135.168 118.922L134.88 118.799L134.567 118.774L125.979 118.083L125.896 118.077L125.814 118.077L119.006 118.114C116.175 118.129 114.67 121.465 116.533 123.597L134.713 144.409C120.185 140.361 111.33 134.809 98.0874 123.779L96.7376 122.649L96.5003 122.467C96.0106 122.125 95.4308 121.917 94.8279 121.876L94.5251 121.869C88.1466 122.02 83.3117 122.627 78.309 123.096C73.3056 123.566 68.0105 123.915 60.5228 123.589C52.9502 123.26 48.9489 122.467 45.3864 121.797C41.7214 121.108 38.4773 120.542 32.6042 120.759L32.3403 120.768L32.0896 120.849C19.588 124.838 12.625 126.674 5.43896 124.043C3.90996 123.278 3.2121 122.687 2.92272 122.304C2.73019 122.05 2.74469 121.954 2.79615 121.779C2.89867 121.431 3.20687 120.918 3.87629 120.102C4.19425 119.714 4.55101 119.308 4.95356 118.849C5.31346 118.438 5.70257 117.99 6.09587 117.518C9.76028 114.355 12.5217 112.751 15.3327 110.594C18.1087 108.464 20.4374 106.104 22.3184 101.965L22.3676 101.857L22.4034 101.743C24.8324 93.9816 27.5131 88.4666 31.9748 83.7212C36.4533 78.958 42.8556 74.8311 52.9819 70.1033C71.4858 63.6173 82.4767 60.9643 101.957 56.6175C103.002 56.3844 103.863 55.653 104.281 54.6991C108.894 44.1731 112.737 38.4336 116.584 35.0962C120.113 32.0343 123.792 30.8634 128.598 30.0425Z" fill="white" stroke="#0037FF" stroke-width="3.84988"/>
<path d="M56.8 99.1581L60.6055 99.7617C60.1681 103.086 59.0658 105.623 57.2987 107.373C55.549 109.122 53.4407 109.997 50.9737 109.997C47.9819 109.997 45.5149 108.772 43.5728 106.323C41.6482 103.856 40.6859 100.217 40.6859 95.4051C40.6859 90.5586 41.6569 86.9281 43.599 84.5136C45.5586 82.0816 48.0693 80.8656 51.1312 80.8656C53.4932 80.8656 55.479 81.6005 57.0887 83.0702C58.7159 84.5398 59.7569 86.7444 60.2118 89.6838L56.4588 90.3924C56.0914 88.5028 55.4528 87.0943 54.543 86.167C53.6332 85.2222 52.5397 84.7498 51.2624 84.7498C49.3553 84.7498 47.7719 85.5984 46.5122 87.2955C45.2699 88.9752 44.6488 91.6521 44.6488 95.3264C44.6488 99.1231 45.2437 101.87 46.4334 103.567C47.6407 105.264 49.1804 106.113 51.0525 106.113C52.5222 106.113 53.7731 105.553 54.8054 104.433C55.8552 103.296 56.5201 101.538 56.8 99.1581ZM61.839 81.4955H80.4201V85.4059H73.0716V109.367H69.1874V85.4059H61.839V81.4955ZM90.0781 93.1481H98.1352C97.9252 90.786 97.2691 88.8002 96.1668 87.1905C95.0821 85.5809 93.6561 84.776 91.889 84.776C88.8796 84.776 87.0687 86.6744 86.4564 90.4711L82.6771 89.7363C82.9571 87.1818 83.9019 85.0647 85.5116 83.3851C87.1387 81.7054 89.2295 80.8656 91.784 80.8656C94.9858 80.8656 97.5053 82.1691 99.3424 84.776C101.197 87.3655 102.124 90.926 102.124 95.4576C102.124 99.8842 101.215 103.418 99.3949 106.06C97.5928 108.685 95.1783 109.997 92.1514 109.997C89.317 109.997 87.06 109.044 85.3803 107.136C83.7007 105.229 82.6684 102.78 82.2835 99.7879L86.0889 99.1843C86.6663 103.803 88.5997 106.113 91.889 106.113C95.5807 106.113 97.6628 103.086 98.1352 97.0323H90.0781V93.1481ZM106.796 81.4955H110.654V105.457H119.498V81.4955H123.382V105.457H132.201V81.4955H136.059V109.367H106.796V81.4955Z" fill="#0037FF"/>
</svg>
