<svg width="1658" height="850" viewBox="0 0 1658 850" fill="none" xmlns="http://www.w3.org/2000/svg">
<g clip-path="url(#clip0_168_240)" filter="url(#filter0_dddddd_168_240)">
<rect width="1158" height="350" transform="translate(250 250)" fill="white"/>
<g filter="url(#filter1_d_168_240)">
<rect x="250" y="288" width="1158" height="34" fill="#ECEAD5"/>
</g>
<g filter="url(#filter2_d_168_240)">
<rect x="1388" y="574" width="252" height="20" transform="rotate(-90 1388 574)" fill="#ECEAD5"/>
</g>
<g filter="url(#filter3_d_168_240)">
<rect x="250" y="250" width="1158" height="38" fill="#135FFF"/>
</g>
<g filter="url(#filter4_d_168_240)">
<rect x="250" y="584" width="1158" height="17" fill="#ECEAD5"/>
</g>
<g filter="url(#filter5_d_168_240)">
<rect x="270" y="567" width="1204" height="17" fill="#ECEAD5"/>
</g>
<path d="M258.272 298.666H264.495V299.976H262.034V308H260.733V299.976H258.272V298.666ZM265.484 311.595L265.343 310.109C265.63 310.203 265.876 310.25 266.081 310.25C266.357 310.25 266.582 310.194 266.758 310.083C266.94 309.972 267.089 309.799 267.206 309.564C267.247 309.482 267.417 308.967 267.716 308.018L264.807 298.666H266.204L267.804 304.071C268.003 304.745 268.188 305.466 268.358 306.233C268.504 305.507 268.68 304.798 268.885 304.106L270.52 298.666H271.821L268.911 308.158C268.531 309.389 268.229 310.209 268.006 310.619C267.789 311.035 267.54 311.334 267.259 311.516C266.984 311.697 266.67 311.788 266.319 311.788C266.073 311.788 265.794 311.724 265.484 311.595ZM272.027 298.666H278.25V299.976H275.789V308H274.488V299.976H272.027V298.666ZM283.25 298.666H285.271L287.284 306.137L289.508 298.666H291.38V308H290.079V300.485L287.82 308H286.66L284.516 300.125V308H283.25V298.666ZM292.667 303.333C292.667 301.722 293.004 300.506 293.678 299.686C294.358 298.865 295.216 298.455 296.253 298.455C297.273 298.455 298.125 298.865 298.811 299.686C299.496 300.506 299.839 301.689 299.839 303.236C299.839 304.912 299.502 306.16 298.828 306.98C298.155 307.801 297.296 308.211 296.253 308.211C295.228 308.211 294.372 307.801 293.687 306.98C293.007 306.154 292.667 304.938 292.667 303.333ZM293.994 303.333C293.994 304.54 294.214 305.439 294.654 306.031C295.093 306.617 295.638 306.91 296.288 306.91C296.898 306.91 297.419 306.614 297.853 306.022C298.292 305.425 298.512 304.528 298.512 303.333C298.512 302.132 298.292 301.238 297.853 300.652C297.413 300.061 296.868 299.765 296.218 299.765C295.603 299.765 295.078 300.061 294.645 300.652C294.211 301.244 293.994 302.138 293.994 303.333ZM305.82 298.666V302.7C306.23 302.7 306.517 302.604 306.681 302.41C306.851 302.217 307.097 301.654 307.419 300.723C307.677 299.979 307.885 299.489 308.043 299.255C308.208 299.015 308.389 298.856 308.588 298.78C308.788 298.704 309.139 298.666 309.643 298.666H309.836V299.976L309.45 299.967C309.192 299.967 309.001 300.011 308.878 300.099C308.761 300.187 308.656 300.38 308.562 300.679C308.269 301.622 308.038 302.229 307.868 302.498C307.698 302.768 307.428 303.005 307.059 303.21C307.622 303.392 308.169 304.024 308.703 305.108L310.126 308H308.703L307.314 305.108C307.027 304.517 306.775 304.133 306.558 303.957C306.347 303.775 306.101 303.685 305.82 303.685V308H304.493V303.685C304.206 303.685 303.957 303.772 303.746 303.948C303.535 304.118 303.283 304.505 302.99 305.108L301.601 308H300.177L301.601 305.108C302.14 304.019 302.688 303.386 303.245 303.21C302.887 303.011 302.624 302.788 302.454 302.542C302.29 302.296 302.052 301.675 301.742 300.679C301.654 300.386 301.548 300.195 301.425 300.107C301.308 300.014 301.118 299.967 300.854 299.967L300.467 299.976V298.666H300.661C301.182 298.666 301.551 298.713 301.768 298.807C301.985 298.9 302.166 299.076 302.313 299.334C302.465 299.586 302.7 300.175 303.016 301.101C303.262 301.81 303.467 302.255 303.631 302.437C303.795 302.612 304.083 302.7 304.493 302.7V298.666H305.82ZM310.869 298.666H312.161V302.551H315.764V298.666H317.056V308H315.764V303.86H312.161V308H310.869V298.666ZM318.317 303.333C318.317 301.722 318.654 300.506 319.328 299.686C320.008 298.865 320.866 298.455 321.903 298.455C322.923 298.455 323.775 298.865 324.461 299.686C325.146 300.506 325.489 301.689 325.489 303.236C325.489 304.912 325.152 306.16 324.479 306.98C323.805 307.801 322.946 308.211 321.903 308.211C320.878 308.211 320.022 307.801 319.337 306.98C318.657 306.154 318.317 304.938 318.317 303.333ZM319.645 303.333C319.645 304.54 319.864 305.439 320.304 306.031C320.743 306.617 321.288 306.91 321.938 306.91C322.548 306.91 323.069 306.614 323.503 306.022C323.942 305.425 324.162 304.528 324.162 303.333C324.162 302.132 323.942 301.238 323.503 300.652C323.063 300.061 322.519 299.765 321.868 299.765C321.253 299.765 320.729 300.061 320.295 300.652C319.861 301.244 319.645 302.138 319.645 303.333ZM330.762 298.666H336.8V308H335.508V299.976H332.054V308H330.762V298.666ZM338.044 303.333C338.044 301.722 338.381 300.506 339.054 299.686C339.734 298.865 340.593 298.455 341.63 298.455C342.649 298.455 343.502 298.865 344.187 299.686C344.873 300.506 345.216 301.689 345.216 303.236C345.216 304.912 344.879 306.16 344.205 306.98C343.531 307.801 342.673 308.211 341.63 308.211C340.604 308.211 339.749 307.801 339.063 306.98C338.384 306.154 338.044 304.938 338.044 303.333ZM339.371 303.333C339.371 304.54 339.591 305.439 340.03 306.031C340.469 306.617 341.014 306.91 341.665 306.91C342.274 306.91 342.796 306.614 343.229 306.022C343.669 305.425 343.888 304.528 343.888 303.333C343.888 302.132 343.669 301.238 343.229 300.652C342.79 300.061 342.245 299.765 341.594 299.765C340.979 299.765 340.455 300.061 340.021 300.652C339.588 301.244 339.371 302.138 339.371 303.333ZM345.861 298.666H352.084V299.976H349.623V308H348.322V299.976H345.861V298.666ZM353.108 298.666H354.4V302.313H356.052C357.236 302.313 358.088 302.592 358.61 303.148C359.131 303.705 359.392 304.379 359.392 305.17C359.392 305.92 359.155 306.579 358.68 307.147C358.211 307.716 357.435 308 356.351 308H353.108V298.666ZM354.4 306.699H355.762C356.752 306.699 357.382 306.541 357.652 306.225C357.921 305.908 358.056 305.56 358.056 305.179C358.056 304.681 357.901 304.297 357.59 304.027C357.28 303.758 356.729 303.623 355.938 303.623H354.4V306.699ZM360.684 308V298.666H361.976V308H360.684ZM363.914 298.666H365.206V302.7C365.622 302.7 365.912 302.604 366.076 302.41C366.246 302.211 366.492 301.648 366.814 300.723C367.066 299.979 367.271 299.489 367.429 299.255C367.593 299.015 367.775 298.856 367.974 298.78C368.179 298.704 368.534 298.666 369.038 298.666H369.231V299.976L368.844 299.967C368.569 299.967 368.373 300.017 368.255 300.116C368.138 300.216 368.039 300.403 367.957 300.679C367.664 301.622 367.432 302.229 367.262 302.498C367.092 302.768 366.823 303.005 366.454 303.21C367.01 303.392 367.558 304.024 368.097 305.108L369.521 308H368.097L366.708 305.108C366.427 304.522 366.178 304.139 365.961 303.957C365.75 303.775 365.499 303.685 365.206 303.685V308H363.914V298.666ZM375.141 306.849C374.708 307.3 374.257 307.64 373.788 307.868C373.319 308.097 372.833 308.211 372.329 308.211C371.532 308.211 370.896 307.971 370.422 307.49C369.947 307.01 369.71 306.362 369.71 305.548C369.71 305.009 369.821 304.531 370.044 304.115C370.266 303.699 370.571 303.374 370.958 303.14C371.344 302.905 371.93 302.732 372.716 302.621C373.77 302.469 374.544 302.287 375.036 302.076L375.045 301.672C375.045 301.033 374.93 300.585 374.702 300.327C374.38 299.952 373.884 299.765 373.217 299.765C372.613 299.765 372.162 299.891 371.863 300.143C371.564 300.389 371.344 300.854 371.204 301.54L369.929 301.329C370.111 300.327 370.477 299.598 371.028 299.141C371.585 298.684 372.379 298.455 373.41 298.455C374.213 298.455 374.842 298.607 375.3 298.912C375.757 299.211 376.044 299.583 376.161 300.028C376.284 300.474 376.345 301.124 376.345 301.979V304.089C376.345 305.565 376.372 306.497 376.425 306.884C376.483 307.265 376.594 307.637 376.759 308H375.405C375.27 307.678 375.182 307.294 375.141 306.849ZM375.036 303.315C374.561 303.55 373.855 303.749 372.918 303.913C372.373 304.007 371.992 304.115 371.775 304.238C371.558 304.355 371.388 304.525 371.265 304.748C371.148 304.965 371.09 305.217 371.09 305.504C371.09 305.949 371.227 306.307 371.503 306.576C371.778 306.84 372.159 306.972 372.645 306.972C373.108 306.972 373.527 306.852 373.902 306.611C374.283 306.371 374.567 306.052 374.755 305.653C374.942 305.249 375.036 304.663 375.036 303.896V303.315ZM377.483 298.666H383.706V299.976H381.245V308H379.944V299.976H377.483V298.666ZM384.73 298.666H386.022V302.313H387.674C388.858 302.313 389.71 302.592 390.232 303.148C390.753 303.705 391.014 304.379 391.014 305.17C391.014 305.92 390.777 306.579 390.302 307.147C389.833 307.716 389.057 308 387.973 308H384.73V298.666ZM386.022 306.699H387.384C388.374 306.699 389.004 306.541 389.274 306.225C389.543 305.908 389.678 305.56 389.678 305.179C389.678 304.681 389.523 304.297 389.212 304.027C388.902 303.758 388.351 303.623 387.56 303.623H386.022V306.699ZM392.644 308V306.198H394.121V308H392.644ZM396.559 308V306.198H398.036V308H396.559ZM400.475 308V306.198H401.951V308H400.475Z" fill="black"/>
<g filter="url(#filter6_d_168_240)">
<rect x="250" y="601" width="278" height="20" transform="rotate(-90 250 601)" fill="#ECEAD5"/>
</g>
<g filter="url(#filter7_d_168_240)">
<rect x="1292" y="255.001" width="28" height="28" rx="6" fill="#3F7FF8"/>
<rect x="1292.5" y="255.501" width="27" height="27" rx="5.5" stroke="white"/>
</g>
<g filter="url(#filter8_d_168_240)">
<rect x="1329" y="255.001" width="28" height="28" rx="6" fill="#3F7FF8"/>
<rect x="1329.5" y="255.501" width="27" height="27" rx="5.5" stroke="white"/>
</g>
<g filter="url(#filter9_d_168_240)">
<rect x="1366" y="255.001" width="28" height="28" rx="6" fill="#FF5151"/>
<rect x="1366.5" y="255.501" width="27" height="27" rx="5.5" stroke="white"/>
</g>
<rect x="1295" y="275.001" width="14" height="3" fill="white"/>
<rect x="1334" y="262.001" width="16" height="2" fill="white"/>
<rect x="1334" y="275.001" width="16" height="2" fill="white"/>
<rect x="1336" y="263.001" width="13" height="2" transform="rotate(90 1336 263.001)" fill="white"/>
<path d="M1307.74 275.001H1305.22L1304.21 271.814H1299.62L1298.67 275.001H1296.2L1300.68 260.971H1303.14L1307.74 275.001ZM1303.46 269.45L1301.89 264.244L1300.33 269.45H1303.46Z" fill="white"/>
<path d="M1383.52 277.673L1370.6 268.433L1372.06 266.398L1380.67 272.555L1375.12 262.115L1376.66 259.974L1389.57 269.214L1388.12 271.249L1379.69 265.224L1385.06 275.523L1383.52 277.673Z" fill="white"/>
</g>
<path d="M307.291 214.048C313.612 207.62 322.25 204 331.265 204H504.367C513.477 204 522.197 207.696 528.532 214.243L567 254H268L307.291 214.048Z" fill="#135FFF"/>
<mask id="path-21-outside-1_168_240" maskUnits="userSpaceOnUse" x="303" y="227" width="230" height="44" fill="black">
<rect fill="white" x="303" y="227" width="230" height="44"/>
<path d="M304.981 229.479H308.929V251.232L319.939 229.479H324.209V258H320.262V236.381L309.251 258H304.981V229.479ZM329.62 229.479H333.568V241.35H344.579V229.479H348.526V258H344.579V245.351H333.568V258H329.62V229.479ZM351.789 229.479H370.802V233.481H363.283V258H359.308V233.481H351.789V229.479ZM389.936 248.815L394.018 249.433C393.338 252.477 392.102 254.777 390.312 256.335C388.539 257.875 386.337 258.645 383.706 258.645C380.393 258.645 377.708 257.391 375.649 254.885C373.608 252.36 372.587 248.726 372.587 243.981C372.587 239.058 373.617 235.307 375.676 232.729C377.753 230.133 380.375 228.835 383.544 228.835C386.57 228.835 389.095 230.106 391.118 232.648C393.141 235.191 394.152 238.87 394.152 243.686L394.125 244.975H376.669C376.831 248.18 377.574 250.597 378.898 252.226C380.223 253.855 381.835 254.67 383.732 254.67C386.704 254.67 388.772 252.718 389.936 248.815ZM376.911 241H389.963C389.784 238.53 389.256 236.686 388.378 235.468C387.107 233.696 385.487 232.81 383.518 232.81C381.745 232.81 380.232 233.553 378.979 235.039C377.726 236.507 377.036 238.494 376.911 241ZM398.408 268.93V229.479H402.034V233.186C402.929 231.646 403.922 230.536 405.015 229.855C406.107 229.175 407.36 228.835 408.774 228.835C410.618 228.835 412.283 229.381 413.769 230.473C415.255 231.565 416.446 233.23 417.341 235.468C418.254 237.688 418.711 240.365 418.711 243.498C418.711 248.35 417.69 252.092 415.649 254.724C413.626 257.338 411.245 258.645 408.506 258.645C407.288 258.645 406.151 258.331 405.095 257.705C404.039 257.078 403.126 256.192 402.356 255.046V268.93H398.408ZM401.98 243.901C401.98 247.589 402.598 250.31 403.833 252.065C405.068 253.802 406.563 254.67 408.318 254.67C410.001 254.67 411.478 253.766 412.749 251.958C414.02 250.149 414.656 247.356 414.656 243.579C414.656 239.855 414.038 237.097 412.803 235.307C411.567 233.517 410.063 232.622 408.291 232.622C406.698 232.622 405.247 233.588 403.94 235.522C402.633 237.438 401.98 240.231 401.98 243.901ZM438.14 254.482C436.815 255.861 435.437 256.899 434.004 257.597C432.572 258.295 431.086 258.645 429.546 258.645C427.111 258.645 425.169 257.91 423.719 256.442C422.268 254.974 421.543 252.996 421.543 250.507C421.543 248.86 421.884 247.401 422.564 246.13C423.244 244.859 424.175 243.865 425.357 243.149C426.538 242.433 428.329 241.905 430.728 241.564C433.951 241.099 436.314 240.544 437.818 239.899L437.845 238.664C437.845 236.713 437.496 235.343 436.797 234.555C435.813 233.409 434.3 232.836 432.259 232.836C430.415 232.836 429.036 233.221 428.123 233.991C427.21 234.743 426.538 236.167 426.109 238.261L422.215 237.617C422.77 234.555 423.889 232.326 425.572 230.93C427.273 229.533 429.698 228.835 432.85 228.835C435.302 228.835 437.227 229.3 438.623 230.231C440.02 231.145 440.897 232.281 441.255 233.642C441.631 235.003 441.819 236.99 441.819 239.604V246.049C441.819 250.561 441.9 253.408 442.061 254.589C442.24 255.753 442.58 256.89 443.081 258H438.946C438.534 257.015 438.265 255.843 438.14 254.482ZM437.818 243.686C436.368 244.402 434.21 245.011 431.346 245.512C429.681 245.799 428.517 246.13 427.854 246.506C427.192 246.864 426.673 247.383 426.297 248.063C425.939 248.726 425.76 249.496 425.76 250.373C425.76 251.734 426.18 252.826 427.022 253.649C427.863 254.455 429.027 254.858 430.513 254.858C431.927 254.858 433.208 254.491 434.353 253.757C435.517 253.023 436.385 252.047 436.958 250.83C437.531 249.594 437.818 247.804 437.818 245.458V243.686ZM447.418 229.479H451.366V241.806C452.637 241.806 453.523 241.511 454.024 240.92C454.543 240.311 455.295 238.592 456.28 235.764C457.05 233.49 457.677 231.995 458.16 231.279C458.661 230.545 459.216 230.061 459.825 229.829C460.452 229.596 461.535 229.479 463.075 229.479H463.665V233.481L462.484 233.454C461.642 233.454 461.043 233.606 460.684 233.911C460.326 234.215 460.022 234.788 459.771 235.629C458.876 238.512 458.169 240.365 457.65 241.188C457.131 242.012 456.307 242.737 455.179 243.364C456.88 243.919 458.554 245.852 460.201 249.165L464.552 258H460.201L455.958 249.165C455.099 247.374 454.338 246.201 453.675 245.646C453.031 245.091 452.261 244.814 451.366 244.814V258H447.418V229.479ZM464.403 229.479H483.417V233.481H475.897V258H471.923V233.481H464.403V229.479ZM486.625 229.479H490.573V251.232L501.584 229.479H505.854V258H501.906V236.381L490.895 258H486.625V229.479ZM511.264 229.479H520.395C522.472 229.479 524.057 229.676 525.149 230.07C526.259 230.464 527.243 231.279 528.103 232.514C528.98 233.732 529.419 235.244 529.419 237.053C529.419 239.774 528.488 241.806 526.626 243.149C529.186 244.295 530.466 246.586 530.466 250.024C530.466 252.226 529.813 254.106 528.506 255.664C527.199 257.221 524.97 258 521.819 258H511.264V229.479ZM515.212 241.484H519.455C521.138 241.484 522.293 241.376 522.92 241.162C523.564 240.947 524.137 240.517 524.638 239.873C525.14 239.21 525.39 238.404 525.39 237.456C525.39 235.952 524.943 234.913 524.048 234.34C523.17 233.767 521.684 233.481 519.59 233.481H515.212V241.484ZM515.212 254.025H520.449C522.687 254.025 524.236 253.685 525.095 253.005C525.954 252.307 526.384 251.232 526.384 249.782C526.384 248.243 525.928 247.141 525.014 246.479C524.119 245.799 522.463 245.458 520.046 245.458H515.212V254.025Z"/>
</mask>
<path d="M304.981 229.479H308.929V251.232L319.939 229.479H324.209V258H320.262V236.381L309.251 258H304.981V229.479ZM329.62 229.479H333.568V241.35H344.579V229.479H348.526V258H344.579V245.351H333.568V258H329.62V229.479ZM351.789 229.479H370.802V233.481H363.283V258H359.308V233.481H351.789V229.479ZM389.936 248.815L394.018 249.433C393.338 252.477 392.102 254.777 390.312 256.335C388.539 257.875 386.337 258.645 383.706 258.645C380.393 258.645 377.708 257.391 375.649 254.885C373.608 252.36 372.587 248.726 372.587 243.981C372.587 239.058 373.617 235.307 375.676 232.729C377.753 230.133 380.375 228.835 383.544 228.835C386.57 228.835 389.095 230.106 391.118 232.648C393.141 235.191 394.152 238.87 394.152 243.686L394.125 244.975H376.669C376.831 248.18 377.574 250.597 378.898 252.226C380.223 253.855 381.835 254.67 383.732 254.67C386.704 254.67 388.772 252.718 389.936 248.815ZM376.911 241H389.963C389.784 238.53 389.256 236.686 388.378 235.468C387.107 233.696 385.487 232.81 383.518 232.81C381.745 232.81 380.232 233.553 378.979 235.039C377.726 236.507 377.036 238.494 376.911 241ZM398.408 268.93V229.479H402.034V233.186C402.929 231.646 403.922 230.536 405.015 229.855C406.107 229.175 407.36 228.835 408.774 228.835C410.618 228.835 412.283 229.381 413.769 230.473C415.255 231.565 416.446 233.23 417.341 235.468C418.254 237.688 418.711 240.365 418.711 243.498C418.711 248.35 417.69 252.092 415.649 254.724C413.626 257.338 411.245 258.645 408.506 258.645C407.288 258.645 406.151 258.331 405.095 257.705C404.039 257.078 403.126 256.192 402.356 255.046V268.93H398.408ZM401.98 243.901C401.98 247.589 402.598 250.31 403.833 252.065C405.068 253.802 406.563 254.67 408.318 254.67C410.001 254.67 411.478 253.766 412.749 251.958C414.02 250.149 414.656 247.356 414.656 243.579C414.656 239.855 414.038 237.097 412.803 235.307C411.567 233.517 410.063 232.622 408.291 232.622C406.698 232.622 405.247 233.588 403.94 235.522C402.633 237.438 401.98 240.231 401.98 243.901ZM438.14 254.482C436.815 255.861 435.437 256.899 434.004 257.597C432.572 258.295 431.086 258.645 429.546 258.645C427.111 258.645 425.169 257.91 423.719 256.442C422.268 254.974 421.543 252.996 421.543 250.507C421.543 248.86 421.884 247.401 422.564 246.13C423.244 244.859 424.175 243.865 425.357 243.149C426.538 242.433 428.329 241.905 430.728 241.564C433.951 241.099 436.314 240.544 437.818 239.899L437.845 238.664C437.845 236.713 437.496 235.343 436.797 234.555C435.813 233.409 434.3 232.836 432.259 232.836C430.415 232.836 429.036 233.221 428.123 233.991C427.21 234.743 426.538 236.167 426.109 238.261L422.215 237.617C422.77 234.555 423.889 232.326 425.572 230.93C427.273 229.533 429.698 228.835 432.85 228.835C435.302 228.835 437.227 229.3 438.623 230.231C440.02 231.145 440.897 232.281 441.255 233.642C441.631 235.003 441.819 236.99 441.819 239.604V246.049C441.819 250.561 441.9 253.408 442.061 254.589C442.24 255.753 442.58 256.89 443.081 258H438.946C438.534 257.015 438.265 255.843 438.14 254.482ZM437.818 243.686C436.368 244.402 434.21 245.011 431.346 245.512C429.681 245.799 428.517 246.13 427.854 246.506C427.192 246.864 426.673 247.383 426.297 248.063C425.939 248.726 425.76 249.496 425.76 250.373C425.76 251.734 426.18 252.826 427.022 253.649C427.863 254.455 429.027 254.858 430.513 254.858C431.927 254.858 433.208 254.491 434.353 253.757C435.517 253.023 436.385 252.047 436.958 250.83C437.531 249.594 437.818 247.804 437.818 245.458V243.686ZM447.418 229.479H451.366V241.806C452.637 241.806 453.523 241.511 454.024 240.92C454.543 240.311 455.295 238.592 456.28 235.764C457.05 233.49 457.677 231.995 458.16 231.279C458.661 230.545 459.216 230.061 459.825 229.829C460.452 229.596 461.535 229.479 463.075 229.479H463.665V233.481L462.484 233.454C461.642 233.454 461.043 233.606 460.684 233.911C460.326 234.215 460.022 234.788 459.771 235.629C458.876 238.512 458.169 240.365 457.65 241.188C457.131 242.012 456.307 242.737 455.179 243.364C456.88 243.919 458.554 245.852 460.201 249.165L464.552 258H460.201L455.958 249.165C455.099 247.374 454.338 246.201 453.675 245.646C453.031 245.091 452.261 244.814 451.366 244.814V258H447.418V229.479ZM464.403 229.479H483.417V233.481H475.897V258H471.923V233.481H464.403V229.479ZM486.625 229.479H490.573V251.232L501.584 229.479H505.854V258H501.906V236.381L490.895 258H486.625V229.479ZM511.264 229.479H520.395C522.472 229.479 524.057 229.676 525.149 230.07C526.259 230.464 527.243 231.279 528.103 232.514C528.98 233.732 529.419 235.244 529.419 237.053C529.419 239.774 528.488 241.806 526.626 243.149C529.186 244.295 530.466 246.586 530.466 250.024C530.466 252.226 529.813 254.106 528.506 255.664C527.199 257.221 524.97 258 521.819 258H511.264V229.479ZM515.212 241.484H519.455C521.138 241.484 522.293 241.376 522.92 241.162C523.564 240.947 524.137 240.517 524.638 239.873C525.14 239.21 525.39 238.404 525.39 237.456C525.39 235.952 524.943 234.913 524.048 234.34C523.17 233.767 521.684 233.481 519.59 233.481H515.212V241.484ZM515.212 254.025H520.449C522.687 254.025 524.236 253.685 525.095 253.005C525.954 252.307 526.384 251.232 526.384 249.782C526.384 248.243 525.928 247.141 525.014 246.479C524.119 245.799 522.463 245.458 520.046 245.458H515.212V254.025Z" fill="white"/>
<path d="M304.981 229.479V227.679H303.181V229.479H304.981ZM308.929 229.479H310.729V227.679H308.929V229.479ZM308.929 251.232H307.129L310.535 252.045L308.929 251.232ZM319.939 229.479V227.679H318.833L318.333 228.667L319.939 229.479ZM324.209 229.479H326.009V227.679H324.209V229.479ZM324.209 258V259.8H326.009V258H324.209ZM320.262 258H318.462V259.8H320.262V258ZM320.262 236.381H322.062L318.658 235.564L320.262 236.381ZM309.251 258V259.8H310.354L310.855 258.817L309.251 258ZM304.981 258H303.181V259.8H304.981V258ZM304.981 229.479V231.279H308.929V229.479V227.679H304.981V229.479ZM308.929 229.479H307.129V251.232H308.929H310.729V229.479H308.929ZM308.929 251.232L310.535 252.045L321.545 230.292L319.939 229.479L318.333 228.667L307.323 250.42L308.929 251.232ZM319.939 229.479V231.279H324.209V229.479V227.679H319.939V229.479ZM324.209 229.479H322.409V258H324.209H326.009V229.479H324.209ZM324.209 258V256.2H320.262V258V259.8H324.209V258ZM320.262 258H322.062V236.381H320.262H318.462V258H320.262ZM320.262 236.381L318.658 235.564L307.647 257.183L309.251 258L310.855 258.817L321.866 237.198L320.262 236.381ZM309.251 258V256.2H304.981V258V259.8H309.251V258ZM304.981 258H306.781V229.479H304.981H303.181V258H304.981ZM329.62 229.479V227.679H327.82V229.479H329.62ZM333.568 229.479H335.368V227.679H333.568V229.479ZM333.568 241.35H331.768V243.15H333.568V241.35ZM344.579 241.35V243.15H346.379V241.35H344.579ZM344.579 229.479V227.679H342.779V229.479H344.579ZM348.526 229.479H350.326V227.679H348.526V229.479ZM348.526 258V259.8H350.326V258H348.526ZM344.579 258H342.779V259.8H344.579V258ZM344.579 245.351H346.379V243.551H344.579V245.351ZM333.568 245.351V243.551H331.768V245.351H333.568ZM333.568 258V259.8H335.368V258H333.568ZM329.62 258H327.82V259.8H329.62V258ZM329.62 229.479V231.279H333.568V229.479V227.679H329.62V229.479ZM333.568 229.479H331.768V241.35H333.568H335.368V229.479H333.568ZM333.568 241.35V243.15H344.579V241.35V239.55H333.568V241.35ZM344.579 241.35H346.379V229.479H344.579H342.779V241.35H344.579ZM344.579 229.479V231.279H348.526V229.479V227.679H344.579V229.479ZM348.526 229.479H346.726V258H348.526H350.326V229.479H348.526ZM348.526 258V256.2H344.579V258V259.8H348.526V258ZM344.579 258H346.379V245.351H344.579H342.779V258H344.579ZM344.579 245.351V243.551H333.568V245.351V247.151H344.579V245.351ZM333.568 245.351H331.768V258H333.568H335.368V245.351H333.568ZM333.568 258V256.2H329.62V258V259.8H333.568V258ZM329.62 258H331.42V229.479H329.62H327.82V258H329.62ZM351.789 229.479V227.679H349.989V229.479H351.789ZM370.802 229.479H372.602V227.679H370.802V229.479ZM370.802 233.481V235.281H372.602V233.481H370.802ZM363.283 233.481V231.681H361.483V233.481H363.283ZM363.283 258V259.8H365.083V258H363.283ZM359.308 258H357.508V259.8H359.308V258ZM359.308 233.481H361.108V231.681H359.308V233.481ZM351.789 233.481H349.989V235.281H351.789V233.481ZM351.789 229.479V231.279H370.802V229.479V227.679H351.789V229.479ZM370.802 229.479H369.002V233.481H370.802H372.602V229.479H370.802ZM370.802 233.481V231.681H363.283V233.481V235.281H370.802V233.481ZM363.283 233.481H361.483V258H363.283H365.083V233.481H363.283ZM363.283 258V256.2H359.308V258V259.8H363.283V258ZM359.308 258H361.108V233.481H359.308H357.508V258H359.308ZM359.308 233.481V231.681H351.789V233.481V235.281H359.308V233.481ZM351.789 233.481H353.589V229.479H351.789H349.989V233.481H351.789ZM389.936 248.815L390.205 247.036L388.658 246.802L388.211 248.301L389.936 248.815ZM394.018 249.433L395.775 249.826L396.196 247.942L394.287 247.653L394.018 249.433ZM390.312 256.335L391.492 257.694L391.493 257.693L390.312 256.335ZM375.649 254.885L374.249 256.016L374.258 256.027L375.649 254.885ZM375.676 232.729L374.27 231.605L374.269 231.606L375.676 232.729ZM391.118 232.648L389.709 233.769L391.118 232.648ZM394.152 243.686L395.952 243.724L395.952 243.705V243.686H394.152ZM394.125 244.975V246.775H395.888L395.925 245.013L394.125 244.975ZM376.669 244.975V243.175H374.777L374.872 245.065L376.669 244.975ZM376.911 241L375.113 240.911L375.019 242.8H376.911V241ZM389.963 241V242.8H391.898L391.758 240.87L389.963 241ZM388.378 235.468L386.916 236.517L386.918 236.521L388.378 235.468ZM378.979 235.039L380.348 236.207L380.355 236.199L378.979 235.039ZM389.936 248.815L389.667 250.595L393.749 251.213L394.018 249.433L394.287 247.653L390.205 247.036L389.936 248.815ZM394.018 249.433L392.261 249.04C391.639 251.826 390.552 253.74 389.13 254.977L390.312 256.335L391.493 257.693C393.653 255.814 395.037 253.127 395.775 249.826L394.018 249.433ZM390.312 256.335L389.132 254.976C387.727 256.197 385.96 256.845 383.706 256.845V258.645V260.445C386.715 260.445 389.352 259.553 391.492 257.694L390.312 256.335ZM383.706 258.645V256.845C380.919 256.845 378.749 255.822 377.04 253.742L375.649 254.885L374.258 256.027C376.667 258.96 379.868 260.445 383.706 260.445V258.645ZM375.649 254.885L377.049 253.753C375.363 251.668 374.387 248.498 374.387 243.981H372.587H370.787C370.787 248.954 371.853 253.053 374.249 256.016L375.649 254.885ZM372.587 243.981H374.387C374.387 239.273 375.377 235.988 377.082 233.852L375.676 232.729L374.269 231.606C371.857 234.626 370.787 238.843 370.787 243.981H372.587ZM375.676 232.729L377.081 233.853C378.836 231.66 380.953 230.635 383.544 230.635V228.835V227.035C379.798 227.035 376.669 228.606 374.27 231.605L375.676 232.729ZM383.544 228.835V230.635C385.977 230.635 387.999 231.62 389.709 233.769L391.118 232.648L392.526 231.528C390.19 228.593 387.163 227.035 383.544 227.035V228.835ZM391.118 232.648L389.709 233.769C391.382 235.871 392.352 239.088 392.352 243.686H394.152H395.952C395.952 238.652 394.899 234.51 392.526 231.528L391.118 232.648ZM394.152 243.686L392.353 243.649L392.326 244.938L394.125 244.975L395.925 245.013L395.952 243.724L394.152 243.686ZM394.125 244.975V243.175H376.669V244.975V246.775H394.125V244.975ZM376.669 244.975L374.872 245.065C375.042 248.463 375.838 251.316 377.502 253.362L378.898 252.226L380.295 251.09C379.309 249.878 378.619 247.897 378.467 244.885L376.669 244.975ZM378.898 252.226L377.502 253.362C379.127 255.36 381.231 256.47 383.732 256.47V254.67V252.87C382.439 252.87 381.319 252.35 380.295 251.09L378.898 252.226ZM383.732 254.67V256.47C385.655 256.47 387.363 255.822 388.748 254.515C390.09 253.248 391.025 251.461 391.661 249.33L389.936 248.815L388.211 248.301C387.683 250.073 387.002 251.213 386.277 251.897C385.593 252.542 384.782 252.87 383.732 252.87V254.67ZM376.911 241V242.8H389.963V241V239.2H376.911V241ZM389.963 241L391.758 240.87C391.569 238.261 391 236.027 389.839 234.416L388.378 235.468L386.918 236.521C387.512 237.344 387.999 238.799 388.168 241.131L389.963 241ZM388.378 235.468L389.841 234.419C388.274 232.234 386.136 231.01 383.518 231.01V232.81V234.61C384.838 234.61 385.94 235.157 386.916 236.517L388.378 235.468ZM383.518 232.81V231.01C381.159 231.01 379.161 232.031 377.603 233.878L378.979 235.039L380.355 236.199C381.304 235.074 382.331 234.61 383.518 234.61V232.81ZM378.979 235.039L377.61 233.87C376.03 235.72 375.253 238.127 375.113 240.911L376.911 241L378.709 241.09C378.82 238.861 379.421 237.293 380.348 236.207L378.979 235.039ZM398.408 268.93H396.608V270.73H398.408V268.93ZM398.408 229.479V227.679H396.608V229.479H398.408ZM402.034 229.479H403.834V227.679H402.034V229.479ZM402.034 233.186H400.234V239.863L403.59 234.09L402.034 233.186ZM405.015 229.855L404.063 228.328L405.015 229.855ZM413.769 230.473L412.703 231.924L413.769 230.473ZM417.341 235.468L415.67 236.137L415.673 236.145L415.677 236.153L417.341 235.468ZM415.649 254.724L414.227 253.621L414.226 253.622L415.649 254.724ZM402.356 255.046L403.85 254.042L400.556 249.139V255.046H402.356ZM402.356 268.93V270.73H404.156V268.93H402.356ZM403.833 252.065L402.361 253.101L402.366 253.108L403.833 252.065ZM403.94 235.522L405.427 236.536L405.432 236.53L403.94 235.522ZM398.408 268.93H400.208V229.479H398.408H396.608V268.93H398.408ZM398.408 229.479V231.279H402.034V229.479V227.679H398.408V229.479ZM402.034 229.479H400.234V233.186H402.034H403.834V229.479H402.034ZM402.034 233.186L403.59 234.09C404.391 232.712 405.201 231.86 405.966 231.383L405.015 229.855L404.063 228.328C402.644 229.211 401.467 230.58 400.478 232.281L402.034 233.186ZM405.015 229.855L405.966 231.383C406.745 230.898 407.662 230.635 408.774 230.635V228.835V227.035C407.058 227.035 405.468 227.452 404.063 228.328L405.015 229.855ZM408.774 228.835V230.635C410.235 230.635 411.526 231.059 412.703 231.924L413.769 230.473L414.835 229.023C413.04 227.704 411.002 227.035 408.774 227.035V228.835ZM413.769 230.473L412.703 231.924C413.847 232.764 414.862 234.117 415.67 236.137L417.341 235.468L419.012 234.8C418.03 232.344 416.664 230.366 414.835 229.023L413.769 230.473ZM417.341 235.468L415.677 236.153C416.478 238.101 416.911 240.532 416.911 243.498H418.711H420.511C420.511 240.198 420.031 237.276 419.006 234.784L417.341 235.468ZM418.711 243.498H416.911C416.911 248.127 415.934 251.42 414.227 253.621L415.649 254.724L417.072 255.827C419.447 252.764 420.511 248.573 420.511 243.498H418.711ZM415.649 254.724L414.226 253.622C412.465 255.897 410.571 256.845 408.506 256.845V258.645V260.445C411.919 260.445 414.787 258.778 417.073 255.825L415.649 254.724ZM408.506 258.645V256.845C407.615 256.845 406.794 256.62 406.014 256.156L405.095 257.705L404.177 259.253C405.508 260.043 406.962 260.445 408.506 260.445V258.645ZM405.095 257.705L406.014 256.156C405.214 255.682 404.489 254.994 403.85 254.042L402.356 255.046L400.862 256.05C401.762 257.39 402.863 258.474 404.177 259.253L405.095 257.705ZM402.356 255.046H400.556V268.93H402.356H404.156V255.046H402.356ZM402.356 268.93V267.13H398.408V268.93V270.73H402.356V268.93ZM401.98 243.901H400.18C400.18 247.722 400.807 250.894 402.361 253.101L403.833 252.065L405.305 251.029C404.388 249.727 403.78 247.456 403.78 243.901H401.98ZM403.833 252.065L402.366 253.108C403.857 255.204 405.852 256.47 408.318 256.47V254.67V252.87C407.274 252.87 406.279 252.399 405.3 251.022L403.833 252.065ZM408.318 254.67V256.47C410.764 256.47 412.73 255.115 414.222 252.993L412.749 251.958L411.276 250.922C410.226 252.417 409.238 252.87 408.318 252.87V254.67ZM412.749 251.958L414.222 252.993C415.81 250.734 416.456 247.492 416.456 243.579H414.656H412.856C412.856 247.221 412.231 249.565 411.276 250.922L412.749 251.958ZM414.656 243.579H416.456C416.456 239.721 415.828 236.522 414.284 234.285L412.803 235.307L411.321 236.329C412.248 237.673 412.856 239.988 412.856 243.579H414.656ZM412.803 235.307L414.284 234.285C412.799 232.133 410.793 230.822 408.291 230.822V232.622V234.422C409.334 234.422 410.335 234.901 411.321 236.329L412.803 235.307ZM408.291 232.622V230.822C405.854 230.822 403.925 232.331 402.449 234.514L403.94 235.522L405.432 236.53C406.57 234.846 407.541 234.422 408.291 234.422V232.622ZM403.94 235.522L402.453 234.508C400.855 236.85 400.18 240.063 400.18 243.901H401.98H403.78C403.78 240.398 404.412 238.025 405.427 236.536L403.94 235.522ZM438.14 254.482L439.932 254.317L439.571 250.395L436.842 253.235L438.14 254.482ZM434.004 257.597L433.216 255.979L434.004 257.597ZM430.728 241.564L430.981 243.347L430.985 243.346L430.728 241.564ZM437.818 239.899L438.527 241.554L439.592 241.097L439.617 239.939L437.818 239.899ZM437.845 238.664L439.644 238.703L439.645 238.684V238.664H437.845ZM436.797 234.555L435.432 235.728L435.441 235.739L435.45 235.749L436.797 234.555ZM428.123 233.991L429.267 235.381L429.275 235.374L429.283 235.367L428.123 233.991ZM426.109 238.261L425.815 240.037L427.524 240.32L427.872 238.623L426.109 238.261ZM422.215 237.617L420.444 237.296L420.118 239.094L421.921 239.393L422.215 237.617ZM425.572 230.93L424.429 229.539L424.422 229.544L425.572 230.93ZM438.623 230.231L437.625 231.729L437.632 231.734L437.638 231.738L438.623 230.231ZM441.255 233.642L439.515 234.1L439.517 234.111L439.52 234.121L441.255 233.642ZM442.061 254.589L440.277 254.833L440.28 254.848L440.282 254.863L442.061 254.589ZM443.081 258V259.8H445.869L444.722 257.259L443.081 258ZM438.946 258L437.285 258.694L437.747 259.8H438.946V258ZM437.818 243.686H439.618V240.79L437.021 242.072L437.818 243.686ZM431.346 245.512L431.651 247.286L431.656 247.285L431.346 245.512ZM427.854 246.506L428.71 248.089L428.727 248.08L428.743 248.071L427.854 246.506ZM426.297 248.063L424.721 247.193L424.717 247.2L424.713 247.208L426.297 248.063ZM427.022 253.649L425.763 254.936L425.77 254.943L425.777 254.95L427.022 253.649ZM434.353 253.757L433.393 252.234L433.382 252.241L434.353 253.757ZM436.958 250.83L438.587 251.596L438.591 251.587L436.958 250.83ZM438.14 254.482L436.842 253.235C435.635 254.49 434.424 255.39 433.216 255.979L434.004 257.597L434.793 259.215C436.449 258.408 437.995 257.231 439.438 255.729L438.14 254.482ZM434.004 257.597L433.216 255.979C432.02 256.562 430.803 256.845 429.546 256.845V258.645V260.445C431.369 260.445 433.124 260.029 434.793 259.215L434.004 257.597ZM429.546 258.645V256.845C427.499 256.845 426.051 256.242 424.999 255.177L423.719 256.442L422.438 257.707C424.287 259.579 426.724 260.445 429.546 260.445V258.645ZM423.719 256.442L424.999 255.177C423.948 254.114 423.343 252.626 423.343 250.507H421.543H419.743C419.743 253.365 420.588 255.835 422.438 257.707L423.719 256.442ZM421.543 250.507H423.343C423.343 249.114 423.629 247.954 424.151 246.979L422.564 246.13L420.977 245.281C420.138 246.848 419.743 248.606 419.743 250.507H421.543ZM422.564 246.13L424.151 246.979C424.686 245.98 425.396 245.23 426.29 244.688L425.357 243.149L424.424 241.61C422.954 242.5 421.803 243.738 420.977 245.281L422.564 246.13ZM425.357 243.149L426.29 244.688C427.162 244.16 428.668 243.675 430.981 243.347L430.728 241.564L430.475 239.782C427.99 240.135 425.915 240.706 424.424 241.61L425.357 243.149ZM430.728 241.564L430.985 243.346C434.242 242.876 436.798 242.295 438.527 241.554L437.818 239.899L437.109 238.245C435.83 238.793 433.659 239.322 430.471 239.783L430.728 241.564ZM437.818 239.899L439.617 239.939L439.644 238.703L437.845 238.664L436.045 238.625L436.018 239.86L437.818 239.899ZM437.845 238.664H439.645C439.645 236.605 439.298 234.663 438.144 233.361L436.797 234.555L435.45 235.749C435.693 236.023 436.045 236.82 436.045 238.664H437.845ZM436.797 234.555L438.162 233.382C436.727 231.712 434.63 231.036 432.259 231.036V232.836V234.636C433.969 234.636 434.898 235.107 435.432 235.728L436.797 234.555ZM432.259 232.836V231.036C430.21 231.036 428.336 231.457 426.963 232.615L428.123 233.991L429.283 235.367C429.736 234.986 430.619 234.636 432.259 234.636V232.836ZM428.123 233.991L426.979 232.602C425.578 233.756 424.799 235.69 424.346 237.9L426.109 238.261L427.872 238.623C428.278 236.643 428.842 235.731 429.267 235.381L428.123 233.991ZM426.109 238.261L426.403 236.485L422.509 235.841L422.215 237.617L421.921 239.393L425.815 240.037L426.109 238.261ZM422.215 237.617L423.986 237.938C424.497 235.12 425.478 233.346 426.721 232.315L425.572 230.93L424.422 229.544C422.299 231.306 421.043 233.991 420.444 237.296L422.215 237.617ZM425.572 230.93L426.714 232.321C427.979 231.282 429.939 230.635 432.85 230.635V228.835V227.035C429.458 227.035 426.566 227.784 424.429 229.539L425.572 230.93ZM432.85 228.835V230.635C435.102 230.635 436.631 231.067 437.625 231.729L438.623 230.231L439.622 228.734C437.823 227.534 435.502 227.035 432.85 227.035V228.835ZM438.623 230.231L437.638 231.738C438.735 232.455 439.29 233.248 439.515 234.1L441.255 233.642L442.996 233.184C442.504 231.315 441.305 229.834 439.608 228.725L438.623 230.231ZM441.255 233.642L439.52 234.121C439.831 235.246 440.019 237.039 440.019 239.604H441.819H443.619C443.619 236.941 443.432 234.76 442.99 233.163L441.255 233.642ZM441.819 239.604H440.019V246.049H441.819H443.619V239.604H441.819ZM441.819 246.049H440.019C440.019 250.52 440.096 253.504 440.277 254.833L442.061 254.589L443.844 254.346C443.703 253.312 443.619 250.602 443.619 246.049H441.819ZM442.061 254.589L440.282 254.863C440.487 256.194 440.875 257.487 441.441 258.741L443.081 258L444.722 257.259C444.285 256.293 443.993 255.313 443.84 254.316L442.061 254.589ZM443.081 258V256.2H438.946V258V259.8H443.081V258ZM438.946 258L440.606 257.306C440.282 256.529 440.045 255.544 439.932 254.317L438.14 254.482L436.348 254.647C436.485 256.141 436.786 257.501 437.285 258.694L438.946 258ZM437.818 243.686L437.021 242.072C435.801 242.675 433.843 243.248 431.035 243.739L431.346 245.512L431.656 247.285C434.578 246.774 436.934 246.13 438.615 245.3L437.818 243.686ZM431.346 245.512L431.04 243.738C429.359 244.028 427.923 244.397 426.966 244.94L427.854 246.506L428.743 248.071C429.111 247.862 430.002 247.57 431.651 247.286L431.346 245.512ZM427.854 246.506L426.998 244.922C426.023 245.45 425.258 246.221 424.721 247.193L426.297 248.063L427.872 248.934C428.087 248.545 428.361 248.278 428.71 248.089L427.854 246.506ZM426.297 248.063L424.713 247.208C424.191 248.173 423.96 249.246 423.96 250.373H425.76H427.56C427.56 249.745 427.686 249.279 427.88 248.919L426.297 248.063ZM425.76 250.373H423.96C423.96 252.136 424.521 253.72 425.763 254.936L427.022 253.649L428.281 252.363C427.84 251.931 427.56 251.331 427.56 250.373H425.76ZM427.022 253.649L425.777 254.95C427.039 256.158 428.696 256.658 430.513 256.658V254.858V253.058C429.358 253.058 428.688 252.753 428.267 252.349L427.022 253.649ZM430.513 254.858V256.658C432.257 256.658 433.877 256.2 435.324 255.272L434.353 253.757L433.382 252.241C432.538 252.782 431.598 253.058 430.513 253.058V254.858ZM434.353 253.757L435.314 255.279C436.761 254.366 437.865 253.131 438.587 251.596L436.958 250.83L435.33 250.063C434.906 250.963 434.273 251.679 433.393 252.234L434.353 253.757ZM436.958 250.83L438.591 251.587C439.327 250.001 439.618 247.903 439.618 245.458H437.818H436.018C436.018 247.705 435.736 249.187 435.325 250.072L436.958 250.83ZM437.818 245.458H439.618V243.686H437.818H436.018V245.458H437.818ZM447.418 229.479V227.679H445.618V229.479H447.418ZM451.366 229.479H453.166V227.679H451.366V229.479ZM451.366 241.806H449.566V243.606H451.366V241.806ZM454.024 240.92L452.655 239.752L452.652 239.755L454.024 240.92ZM456.28 235.764L457.98 236.355L457.983 236.348L457.985 236.341L456.28 235.764ZM458.16 231.279L456.674 230.264L456.668 230.272L458.16 231.279ZM459.825 229.829L459.198 228.141L459.19 228.144L459.182 228.147L459.825 229.829ZM463.665 229.479H465.465V227.679H463.665V229.479ZM463.665 233.481L463.625 235.28L465.465 235.322V233.481H463.665ZM462.484 233.454L462.525 231.655L462.504 231.654H462.484V233.454ZM459.771 235.629L461.49 236.163L461.493 236.153L461.496 236.143L459.771 235.629ZM455.179 243.364L454.305 241.79L450.697 243.795L454.621 245.075L455.179 243.364ZM460.201 249.165L461.816 248.369L461.813 248.363L460.201 249.165ZM464.552 258V259.8H467.444L466.166 257.205L464.552 258ZM460.201 258L458.578 258.779L459.069 259.8H460.201V258ZM455.958 249.165L454.335 249.943L454.335 249.944L455.958 249.165ZM453.675 245.646L452.501 247.01L452.51 247.018L452.519 247.026L453.675 245.646ZM451.366 244.814V243.014H449.566V244.814H451.366ZM451.366 258V259.8H453.166V258H451.366ZM447.418 258H445.618V259.8H447.418V258ZM447.418 229.479V231.279H451.366V229.479V227.679H447.418V229.479ZM451.366 229.479H449.566V241.806H451.366H453.166V229.479H451.366ZM451.366 241.806V243.606C452.835 243.606 454.386 243.276 455.397 242.084L454.024 240.92L452.652 239.755C452.65 239.758 452.639 239.771 452.607 239.791C452.574 239.812 452.514 239.844 452.414 239.877C452.208 239.946 451.873 240.006 451.366 240.006V241.806ZM454.024 240.92L455.394 242.088C455.843 241.562 456.249 240.758 456.627 239.896C457.029 238.977 457.48 237.791 457.98 236.355L456.28 235.764L454.58 235.172C454.095 236.565 453.678 237.653 453.329 238.453C453.154 238.852 453.003 239.162 452.878 239.392C452.815 239.507 452.763 239.594 452.722 239.657C452.701 239.688 452.685 239.712 452.673 239.728C452.661 239.745 452.655 239.752 452.655 239.752L454.024 240.92ZM456.28 235.764L457.985 236.341C458.764 234.04 459.324 232.772 459.652 232.286L458.16 231.279L456.668 230.272C456.029 231.218 455.336 232.939 454.575 235.186L456.28 235.764ZM458.16 231.279L459.646 232.294C460.014 231.755 460.306 231.572 460.468 231.51L459.825 229.829L459.182 228.147C458.127 228.551 457.308 229.334 456.674 230.264L458.16 231.279ZM459.825 229.829L460.452 231.516C460.748 231.406 461.542 231.279 463.075 231.279V229.479V227.679C461.527 227.679 460.155 227.786 459.198 228.141L459.825 229.829ZM463.075 229.479V231.279H463.665V229.479V227.679H463.075V229.479ZM463.665 229.479H461.865V233.481H463.665H465.465V229.479H463.665ZM463.665 233.481L463.706 231.681L462.525 231.655L462.484 233.454L462.443 235.254L463.625 235.28L463.665 233.481ZM462.484 233.454V231.654C461.517 231.654 460.375 231.811 459.519 232.539L460.684 233.911L461.85 235.282C461.764 235.355 461.731 235.342 461.846 235.313C461.959 235.284 462.163 235.254 462.484 235.254V233.454ZM460.684 233.911L459.519 232.539C458.75 233.192 458.323 234.187 458.046 235.116L459.771 235.629L461.496 236.143C461.599 235.8 461.697 235.565 461.777 235.413C461.861 235.256 461.897 235.243 461.85 235.282L460.684 233.911ZM459.771 235.629L458.052 235.096C457.143 238.023 456.498 239.64 456.127 240.229L457.65 241.188L459.172 242.148C459.84 241.09 460.609 239.001 461.49 236.163L459.771 235.629ZM457.65 241.188L456.127 240.229C455.813 240.727 455.252 241.264 454.305 241.79L455.179 243.364L456.053 244.937C457.362 244.21 458.448 243.297 459.172 242.148L457.65 241.188ZM455.179 243.364L454.621 245.075C455.054 245.216 455.639 245.588 456.349 246.408C457.054 247.222 457.806 248.391 458.589 249.966L460.201 249.165L461.813 248.363C460.949 246.626 460.04 245.172 459.071 244.052C458.107 242.938 457.005 242.066 455.737 241.653L455.179 243.364ZM460.201 249.165L458.586 249.96L462.937 258.795L464.552 258L466.166 257.205L461.816 248.369L460.201 249.165ZM464.552 258V256.2H460.201V258V259.8H464.552V258ZM460.201 258L461.824 257.221L457.58 248.385L455.958 249.165L454.335 249.944L458.578 258.779L460.201 258ZM455.958 249.165L457.581 248.386C456.718 246.589 455.818 245.094 454.831 244.267L453.675 245.646L452.519 247.026C452.857 247.309 453.479 248.16 454.335 249.943L455.958 249.165ZM453.675 245.646L454.85 244.283C453.86 243.431 452.667 243.014 451.366 243.014V244.814V246.614C451.854 246.614 452.201 246.752 452.501 247.01L453.675 245.646ZM451.366 244.814H449.566V258H451.366H453.166V244.814H451.366ZM451.366 258V256.2H447.418V258V259.8H451.366V258ZM447.418 258H449.218V229.479H447.418H445.618V258H447.418ZM464.403 229.479V227.679H462.603V229.479H464.403ZM483.417 229.479H485.217V227.679H483.417V229.479ZM483.417 233.481V235.281H485.217V233.481H483.417ZM475.897 233.481V231.681H474.097V233.481H475.897ZM475.897 258V259.8H477.697V258H475.897ZM471.923 258H470.123V259.8H471.923V258ZM471.923 233.481H473.723V231.681H471.923V233.481ZM464.403 233.481H462.603V235.281H464.403V233.481ZM464.403 229.479V231.279H483.417V229.479V227.679H464.403V229.479ZM483.417 229.479H481.617V233.481H483.417H485.217V229.479H483.417ZM483.417 233.481V231.681H475.897V233.481V235.281H483.417V233.481ZM475.897 233.481H474.097V258H475.897H477.697V233.481H475.897ZM475.897 258V256.2H471.923V258V259.8H475.897V258ZM471.923 258H473.723V233.481H471.923H470.123V258H471.923ZM471.923 233.481V231.681H464.403V233.481V235.281H471.923V233.481ZM464.403 233.481H466.203V229.479H464.403H462.603V233.481H464.403ZM486.625 229.479V227.679H484.825V229.479H486.625ZM490.573 229.479H492.373V227.679H490.573V229.479ZM490.573 251.232H488.773L492.179 252.045L490.573 251.232ZM501.584 229.479V227.679H500.477L499.978 228.667L501.584 229.479ZM505.854 229.479H507.654V227.679H505.854V229.479ZM505.854 258V259.8H507.654V258H505.854ZM501.906 258H500.106V259.8H501.906V258ZM501.906 236.381H503.706L500.302 235.564L501.906 236.381ZM490.895 258V259.8H491.999L492.499 258.817L490.895 258ZM486.625 258H484.825V259.8H486.625V258ZM486.625 229.479V231.279H490.573V229.479V227.679H486.625V229.479ZM490.573 229.479H488.773V251.232H490.573H492.373V229.479H490.573ZM490.573 251.232L492.179 252.045L503.19 230.292L501.584 229.479L499.978 228.667L488.967 250.42L490.573 251.232ZM501.584 229.479V231.279H505.854V229.479V227.679H501.584V229.479ZM505.854 229.479H504.054V258H505.854H507.654V229.479H505.854ZM505.854 258V256.2H501.906V258V259.8H505.854V258ZM501.906 258H503.706V236.381H501.906H500.106V258H501.906ZM501.906 236.381L500.302 235.564L489.291 257.183L490.895 258L492.499 258.817L503.51 237.198L501.906 236.381ZM490.895 258V256.2H486.625V258V259.8H490.895V258ZM486.625 258H488.425V229.479H486.625H484.825V258H486.625ZM511.264 229.479V227.679H509.464V229.479H511.264ZM525.149 230.07L524.538 231.764L524.547 231.767L525.149 230.07ZM528.103 232.514L526.625 233.542L526.634 233.554L526.642 233.566L528.103 232.514ZM526.626 243.149L525.573 241.689L523.04 243.516L525.89 244.792L526.626 243.149ZM511.264 258H509.464V259.8H511.264V258ZM515.212 241.484H513.412V243.284H515.212V241.484ZM522.92 241.162L522.351 239.454L522.343 239.456L522.336 239.459L522.92 241.162ZM524.638 239.873L526.059 240.978L526.067 240.968L526.074 240.959L524.638 239.873ZM524.048 234.34L523.063 235.847L523.07 235.852L523.077 235.856L524.048 234.34ZM515.212 233.481V231.681H513.412V233.481H515.212ZM515.212 254.025H513.412V255.825H515.212V254.025ZM525.095 253.005L526.212 254.416L526.221 254.409L526.23 254.402L525.095 253.005ZM525.014 246.479L523.925 247.912L523.941 247.924L523.957 247.936L525.014 246.479ZM515.212 245.458V243.658H513.412V245.458H515.212ZM511.264 229.479V231.279H520.395V229.479V227.679H511.264V229.479ZM520.395 229.479V231.279C522.401 231.279 523.739 231.475 524.538 231.764L525.149 230.07L525.759 228.377C524.374 227.878 522.543 227.679 520.395 227.679V229.479ZM525.149 230.07L524.547 231.767C525.215 232.004 525.921 232.53 526.625 233.542L528.103 232.514L529.58 231.486C528.566 230.028 527.303 228.925 525.751 228.374L525.149 230.07ZM528.103 232.514L526.642 233.566C527.257 234.419 527.619 235.543 527.619 237.053H529.419H531.219C531.219 234.946 530.703 233.044 529.563 231.462L528.103 232.514ZM529.419 237.053H527.619C527.619 239.318 526.875 240.75 525.573 241.689L526.626 243.149L527.679 244.609C530.101 242.862 531.219 240.231 531.219 237.053H529.419ZM526.626 243.149L525.89 244.792C526.843 245.218 527.497 245.821 527.935 246.605C528.385 247.412 528.666 248.52 528.666 250.024H530.466H532.266C532.266 248.09 531.907 246.334 531.077 244.849C530.235 243.341 528.969 242.226 527.361 241.506L526.626 243.149ZM530.466 250.024H528.666C528.666 251.841 528.138 253.301 527.127 254.507L528.506 255.664L529.885 256.821C531.487 254.911 532.266 252.611 532.266 250.024H530.466ZM528.506 255.664L527.127 254.507C526.314 255.475 524.731 256.2 521.819 256.2V258V259.8C525.208 259.8 528.084 258.967 529.885 256.821L528.506 255.664ZM521.819 258V256.2H511.264V258V259.8H521.819V258ZM511.264 258H513.064V229.479H511.264H509.464V258H511.264ZM515.212 241.484V243.284H519.455V241.484V239.684H515.212V241.484ZM519.455 241.484V243.284C521.123 243.284 522.559 243.188 523.504 242.864L522.92 241.162L522.336 239.459C522.028 239.565 521.154 239.684 519.455 239.684V241.484ZM522.92 241.162L523.489 242.869C524.534 242.521 525.385 241.845 526.059 240.978L524.638 239.873L523.218 238.767C522.89 239.189 522.595 239.373 522.351 239.454L522.92 241.162ZM524.638 239.873L526.074 240.959C526.845 239.94 527.19 238.738 527.19 237.456H525.39H523.59C523.59 238.071 523.435 238.48 523.203 238.786L524.638 239.873ZM525.39 237.456H527.19C527.19 235.616 526.627 233.854 525.018 232.824L524.048 234.34L523.077 235.856C523.258 235.972 523.59 236.287 523.59 237.456H525.39ZM524.048 234.34L525.032 232.833C523.689 231.957 521.746 231.681 519.59 231.681V233.481V235.281C521.623 235.281 522.651 235.578 523.063 235.847L524.048 234.34ZM519.59 233.481V231.681H515.212V233.481V235.281H519.59V233.481ZM515.212 233.481H513.412V241.484H515.212H517.012V233.481H515.212ZM515.212 254.025V255.825H520.449V254.025V252.225H515.212V254.025ZM520.449 254.025V255.825C522.741 255.825 524.839 255.503 526.212 254.416L525.095 253.005L523.978 251.594C523.632 251.867 522.633 252.225 520.449 252.225V254.025ZM525.095 253.005L526.23 254.402C527.633 253.262 528.184 251.594 528.184 249.782H526.384H524.584C524.584 250.871 524.276 251.351 523.96 251.608L525.095 253.005ZM526.384 249.782H528.184C528.184 247.894 527.609 246.138 526.071 245.022L525.014 246.479L523.957 247.936C524.246 248.145 524.584 248.592 524.584 249.782H526.384ZM525.014 246.479L526.104 245.046C525.361 244.481 524.434 244.15 523.463 243.95C522.477 243.748 521.329 243.658 520.046 243.658V245.458V247.258C521.18 247.258 522.069 247.339 522.739 247.477C523.424 247.618 523.773 247.796 523.925 247.912L525.014 246.479ZM520.046 245.458V243.658H515.212V245.458V247.258H520.046V245.458ZM515.212 245.458H513.412V254.025H515.212H517.012V245.458H515.212Z" fill="black" mask="url(#path-21-outside-1_168_240)"/>
<defs>
<filter id="filter0_dddddd_168_240" x="0" y="0" width="1658" height="850" filterUnits="userSpaceOnUse" color-interpolation-filters="sRGB">
<feFlood flood-opacity="0" result="BackgroundImageFix"/>
<feColorMatrix in="SourceAlpha" type="matrix" values="0 0 0 0 0 0 0 0 0 0 0 0 0 0 0 0 0 0 127 0" result="hardAlpha"/>
<feOffset/>
<feGaussianBlur stdDeviation="3.53914"/>
<feColorMatrix type="matrix" values="0 0 0 0 1 0 0 0 0 1 0 0 0 0 1 0 0 0 1 0"/>
<feBlend mode="normal" in2="BackgroundImageFix" result="effect1_dropShadow_168_240"/>
<feColorMatrix in="SourceAlpha" type="matrix" values="0 0 0 0 0 0 0 0 0 0 0 0 0 0 0 0 0 0 127 0" result="hardAlpha"/>
<feOffset/>
<feGaussianBlur stdDeviation="7.07828"/>
<feColorMatrix type="matrix" values="0 0 0 0 1 0 0 0 0 1 0 0 0 0 1 0 0 0 1 0"/>
<feBlend mode="normal" in2="effect1_dropShadow_168_240" result="effect2_dropShadow_168_240"/>
<feColorMatrix in="SourceAlpha" type="matrix" values="0 0 0 0 0 0 0 0 0 0 0 0 0 0 0 0 0 0 127 0" result="hardAlpha"/>
<feOffset/>
<feGaussianBlur stdDeviation="24.774"/>
<feColorMatrix type="matrix" values="0 0 0 0 1 0 0 0 0 1 0 0 0 0 1 0 0 0 1 0"/>
<feBlend mode="normal" in2="effect2_dropShadow_168_240" result="effect3_dropShadow_168_240"/>
<feColorMatrix in="SourceAlpha" type="matrix" values="0 0 0 0 0 0 0 0 0 0 0 0 0 0 0 0 0 0 127 0" result="hardAlpha"/>
<feOffset/>
<feGaussianBlur stdDeviation="49.5479"/>
<feColorMatrix type="matrix" values="0 0 0 0 1 0 0 0 0 1 0 0 0 0 1 0 0 0 1 0"/>
<feBlend mode="normal" in2="effect3_dropShadow_168_240" result="effect4_dropShadow_168_240"/>
<feColorMatrix in="SourceAlpha" type="matrix" values="0 0 0 0 0 0 0 0 0 0 0 0 0 0 0 0 0 0 127 0" result="hardAlpha"/>
<feOffset/>
<feGaussianBlur stdDeviation="84.9393"/>
<feColorMatrix type="matrix" values="0 0 0 0 1 0 0 0 0 1 0 0 0 0 1 0 0 0 1 0"/>
<feBlend mode="normal" in2="effect4_dropShadow_168_240" result="effect5_dropShadow_168_240"/>
<feColorMatrix in="SourceAlpha" type="matrix" values="0 0 0 0 0 0 0 0 0 0 0 0 0 0 0 0 0 0 127 0" result="hardAlpha"/>
<feOffset/>
<feGaussianBlur stdDeviation="125"/>
<feColorMatrix type="matrix" values="0 0 0 0 1 0 0 0 0 1 0 0 0 0 1 0 0 0 1 0"/>
<feBlend mode="normal" in2="effect5_dropShadow_168_240" result="effect6_dropShadow_168_240"/>
<feBlend mode="normal" in="SourceGraphic" in2="effect6_dropShadow_168_240" result="shape"/>
</filter>
<filter id="filter1_d_168_240" x="246" y="288" width="1166" height="42" filterUnits="userSpaceOnUse" color-interpolation-filters="sRGB">
<feFlood flood-opacity="0" result="BackgroundImageFix"/>
<feColorMatrix in="SourceAlpha" type="matrix" values="0 0 0 0 0 0 0 0 0 0 0 0 0 0 0 0 0 0 127 0" result="hardAlpha"/>
<feOffset dy="4"/>
<feGaussianBlur stdDeviation="2"/>
<feComposite in2="hardAlpha" operator="out"/>
<feColorMatrix type="matrix" values="0 0 0 0 0 0 0 0 0 0 0 0 0 0 0 0 0 0 0.25 0"/>
<feBlend mode="normal" in2="BackgroundImageFix" result="effect1_dropShadow_168_240"/>
<feBlend mode="normal" in="SourceGraphic" in2="effect1_dropShadow_168_240" result="shape"/>
</filter>
<filter id="filter2_d_168_240" x="1384" y="322" width="28" height="260" filterUnits="userSpaceOnUse" color-interpolation-filters="sRGB">
<feFlood flood-opacity="0" result="BackgroundImageFix"/>
<feColorMatrix in="SourceAlpha" type="matrix" values="0 0 0 0 0 0 0 0 0 0 0 0 0 0 0 0 0 0 127 0" result="hardAlpha"/>
<feOffset dy="4"/>
<feGaussianBlur stdDeviation="2"/>
<feComposite in2="hardAlpha" operator="out"/>
<feColorMatrix type="matrix" values="0 0 0 0 0 0 0 0 0 0 0 0 0 0 0 0 0 0 0.25 0"/>
<feBlend mode="normal" in2="BackgroundImageFix" result="effect1_dropShadow_168_240"/>
<feBlend mode="normal" in="SourceGraphic" in2="effect1_dropShadow_168_240" result="shape"/>
</filter>
<filter id="filter3_d_168_240" x="243" y="247" width="1172" height="52" filterUnits="userSpaceOnUse" color-interpolation-filters="sRGB">
<feFlood flood-opacity="0" result="BackgroundImageFix"/>
<feColorMatrix in="SourceAlpha" type="matrix" values="0 0 0 0 0 0 0 0 0 0 0 0 0 0 0 0 0 0 127 0" result="hardAlpha"/>
<feOffset dy="4"/>
<feGaussianBlur stdDeviation="3.5"/>
<feComposite in2="hardAlpha" operator="out"/>
<feColorMatrix type="matrix" values="0 0 0 0 0 0 0 0 0 0 0 0 0 0 0 0 0 0 0.25 0"/>
<feBlend mode="normal" in2="BackgroundImageFix" result="effect1_dropShadow_168_240"/>
<feBlend mode="normal" in="SourceGraphic" in2="effect1_dropShadow_168_240" result="shape"/>
</filter>
<filter id="filter4_d_168_240" x="246" y="584" width="1166" height="25" filterUnits="userSpaceOnUse" color-interpolation-filters="sRGB">
<feFlood flood-opacity="0" result="BackgroundImageFix"/>
<feColorMatrix in="SourceAlpha" type="matrix" values="0 0 0 0 0 0 0 0 0 0 0 0 0 0 0 0 0 0 127 0" result="hardAlpha"/>
<feOffset dy="4"/>
<feGaussianBlur stdDeviation="2"/>
<feComposite in2="hardAlpha" operator="out"/>
<feColorMatrix type="matrix" values="0 0 0 0 0 0 0 0 0 0 0 0 0 0 0 0 0 0 0.25 0"/>
<feBlend mode="normal" in2="BackgroundImageFix" result="effect1_dropShadow_168_240"/>
<feBlend mode="normal" in="SourceGraphic" in2="effect1_dropShadow_168_240" result="shape"/>
</filter>
<filter id="filter5_d_168_240" x="266" y="567" width="1212" height="25" filterUnits="userSpaceOnUse" color-interpolation-filters="sRGB">
<feFlood flood-opacity="0" result="BackgroundImageFix"/>
<feColorMatrix in="SourceAlpha" type="matrix" values="0 0 0 0 0 0 0 0 0 0 0 0 0 0 0 0 0 0 127 0" result="hardAlpha"/>
<feOffset dy="4"/>
<feGaussianBlur stdDeviation="2"/>
<feComposite in2="hardAlpha" operator="out"/>
<feColorMatrix type="matrix" values="0 0 0 0 0 0 0 0 0 0 0 0 0 0 0 0 0 0 0.25 0"/>
<feBlend mode="normal" in2="BackgroundImageFix" result="effect1_dropShadow_168_240"/>
<feBlend mode="normal" in="SourceGraphic" in2="effect1_dropShadow_168_240" result="shape"/>
</filter>
<filter id="filter6_d_168_240" x="246" y="323" width="28" height="286" filterUnits="userSpaceOnUse" color-interpolation-filters="sRGB">
<feFlood flood-opacity="0" result="BackgroundImageFix"/>
<feColorMatrix in="SourceAlpha" type="matrix" values="0 0 0 0 0 0 0 0 0 0 0 0 0 0 0 0 0 0 127 0" result="hardAlpha"/>
<feOffset dy="4"/>
<feGaussianBlur stdDeviation="2"/>
<feComposite in2="hardAlpha" operator="out"/>
<feColorMatrix type="matrix" values="0 0 0 0 0 0 0 0 0 0 0 0 0 0 0 0 0 0 0.25 0"/>
<feBlend mode="normal" in2="BackgroundImageFix" result="effect1_dropShadow_168_240"/>
<feBlend mode="normal" in="SourceGraphic" in2="effect1_dropShadow_168_240" result="shape"/>
</filter>
<filter id="filter7_d_168_240" x="1288" y="255.001" width="36" height="36" filterUnits="userSpaceOnUse" color-interpolation-filters="sRGB">
<feFlood flood-opacity="0" result="BackgroundImageFix"/>
<feColorMatrix in="SourceAlpha" type="matrix" values="0 0 0 0 0 0 0 0 0 0 0 0 0 0 0 0 0 0 127 0" result="hardAlpha"/>
<feOffset dy="4"/>
<feGaussianBlur stdDeviation="2"/>
<feComposite in2="hardAlpha" operator="out"/>
<feColorMatrix type="matrix" values="0 0 0 0 0 0 0 0 0 0 0 0 0 0 0 0 0 0 0.25 0"/>
<feBlend mode="normal" in2="BackgroundImageFix" result="effect1_dropShadow_168_240"/>
<feBlend mode="normal" in="SourceGraphic" in2="effect1_dropShadow_168_240" result="shape"/>
</filter>
<filter id="filter8_d_168_240" x="1325" y="255.001" width="36" height="36" filterUnits="userSpaceOnUse" color-interpolation-filters="sRGB">
<feFlood flood-opacity="0" result="BackgroundImageFix"/>
<feColorMatrix in="SourceAlpha" type="matrix" values="0 0 0 0 0 0 0 0 0 0 0 0 0 0 0 0 0 0 127 0" result="hardAlpha"/>
<feOffset dy="4"/>
<feGaussianBlur stdDeviation="2"/>
<feComposite in2="hardAlpha" operator="out"/>
<feColorMatrix type="matrix" values="0 0 0 0 0 0 0 0 0 0 0 0 0 0 0 0 0 0 0.25 0"/>
<feBlend mode="normal" in2="BackgroundImageFix" result="effect1_dropShadow_168_240"/>
<feBlend mode="normal" in="SourceGraphic" in2="effect1_dropShadow_168_240" result="shape"/>
</filter>
<filter id="filter9_d_168_240" x="1362" y="255.001" width="36" height="36" filterUnits="userSpaceOnUse" color-interpolation-filters="sRGB">
<feFlood flood-opacity="0" result="BackgroundImageFix"/>
<feColorMatrix in="SourceAlpha" type="matrix" values="0 0 0 0 0 0 0 0 0 0 0 0 0 0 0 0 0 0 127 0" result="hardAlpha"/>
<feOffset dy="4"/>
<feGaussianBlur stdDeviation="2"/>
<feComposite in2="hardAlpha" operator="out"/>
<feColorMatrix type="matrix" values="0 0 0 0 0 0 0 0 0 0 0 0 0 0 0 0 0 0 0.25 0"/>
<feBlend mode="normal" in2="BackgroundImageFix" result="effect1_dropShadow_168_240"/>
<feBlend mode="normal" in="SourceGraphic" in2="effect1_dropShadow_168_240" result="shape"/>
</filter>
<clipPath id="clip0_168_240">
<rect width="1158" height="350" fill="white" transform="translate(250 250)"/>
</clipPath>
</defs>
</svg>
