<svg width="1658" height="850" viewBox="0 0 1658 850" fill="none" xmlns="http://www.w3.org/2000/svg">
<g clip-path="url(#clip0_164_314)" filter="url(#filter0_dddddd_164_314)">
<rect width="1158" height="350" transform="translate(250 250)" fill="white"/>
<g filter="url(#filter1_d_164_314)">
<rect x="250" y="288" width="1158" height="34" fill="#ECEAD5"/>
</g>
<g filter="url(#filter2_d_164_314)">
<rect x="1388" y="574" width="252" height="20" transform="rotate(-90 1388 574)" fill="#ECEAD5"/>
</g>
<g filter="url(#filter3_d_164_314)">
<rect x="250" y="250" width="1158" height="38" fill="#135FFF"/>
</g>
<g filter="url(#filter4_d_164_314)">
<rect x="250" y="584" width="1158" height="17" fill="#ECEAD5"/>
</g>
<g filter="url(#filter5_d_164_314)">
<rect x="270" y="567" width="1204" height="17" fill="#ECEAD5"/>
</g>
<g filter="url(#filter6_d_164_314)">
<rect x="250" y="601" width="283" height="20" transform="rotate(-90 250 601)" fill="#ECEAD5"/>
</g>
<path d="M253.272 301.666H259.495V302.976H257.034V311H255.733V302.976H253.272V301.666ZM260.484 314.595L260.343 313.109C260.63 313.203 260.876 313.25 261.081 313.25C261.357 313.25 261.582 313.194 261.758 313.083C261.94 312.972 262.089 312.799 262.206 312.564C262.247 312.482 262.417 311.967 262.716 311.018L259.807 301.666H261.204L262.804 307.071C263.003 307.745 263.188 308.466 263.358 309.233C263.504 308.507 263.68 307.798 263.885 307.106L265.52 301.666H266.821L263.911 311.158C263.531 312.389 263.229 313.209 263.006 313.619C262.789 314.035 262.54 314.334 262.259 314.516C261.984 314.697 261.67 314.788 261.319 314.788C261.073 314.788 260.794 314.724 260.484 314.595ZM267.027 301.666H273.25V302.976H270.789V311H269.488V302.976H267.027V301.666ZM278.25 301.666H280.271L282.284 309.137L284.508 301.666H286.38V311H285.079V303.485L282.82 311H281.66L279.516 303.125V311H278.25V301.666ZM287.667 306.333C287.667 304.722 288.004 303.506 288.678 302.686C289.358 301.865 290.216 301.455 291.253 301.455C292.273 301.455 293.125 301.865 293.811 302.686C294.496 303.506 294.839 304.689 294.839 306.236C294.839 307.912 294.502 309.16 293.828 309.98C293.155 310.801 292.296 311.211 291.253 311.211C290.228 311.211 289.372 310.801 288.687 309.98C288.007 309.154 287.667 307.938 287.667 306.333ZM288.994 306.333C288.994 307.54 289.214 308.439 289.654 309.031C290.093 309.617 290.638 309.91 291.288 309.91C291.898 309.91 292.419 309.614 292.853 309.022C293.292 308.425 293.512 307.528 293.512 306.333C293.512 305.132 293.292 304.238 292.853 303.652C292.413 303.061 291.868 302.765 291.218 302.765C290.603 302.765 290.078 303.061 289.645 303.652C289.211 304.244 288.994 305.138 288.994 306.333ZM300.82 301.666V305.7C301.23 305.7 301.517 305.604 301.681 305.41C301.851 305.217 302.097 304.654 302.419 303.723C302.677 302.979 302.885 302.489 303.043 302.255C303.208 302.015 303.389 301.856 303.588 301.78C303.788 301.704 304.139 301.666 304.643 301.666H304.836V302.976L304.45 302.967C304.192 302.967 304.001 303.011 303.878 303.099C303.761 303.187 303.656 303.38 303.562 303.679C303.269 304.622 303.038 305.229 302.868 305.498C302.698 305.768 302.428 306.005 302.059 306.21C302.622 306.392 303.169 307.024 303.703 308.108L305.126 311H303.703L302.314 308.108C302.027 307.517 301.775 307.133 301.558 306.957C301.347 306.775 301.101 306.685 300.82 306.685V311H299.493V306.685C299.206 306.685 298.957 306.772 298.746 306.948C298.535 307.118 298.283 307.505 297.99 308.108L296.601 311H295.177L296.601 308.108C297.14 307.019 297.688 306.386 298.245 306.21C297.887 306.011 297.624 305.788 297.454 305.542C297.29 305.296 297.052 304.675 296.742 303.679C296.654 303.386 296.548 303.195 296.425 303.107C296.308 303.014 296.118 302.967 295.854 302.967L295.467 302.976V301.666H295.661C296.182 301.666 296.551 301.713 296.768 301.807C296.985 301.9 297.166 302.076 297.313 302.334C297.465 302.586 297.7 303.175 298.016 304.101C298.262 304.81 298.467 305.255 298.631 305.437C298.795 305.612 299.083 305.7 299.493 305.7V301.666H300.82ZM305.869 301.666H307.161V305.551H310.764V301.666H312.056V311H310.764V306.86H307.161V311H305.869V301.666ZM313.317 306.333C313.317 304.722 313.654 303.506 314.328 302.686C315.008 301.865 315.866 301.455 316.903 301.455C317.923 301.455 318.775 301.865 319.461 302.686C320.146 303.506 320.489 304.689 320.489 306.236C320.489 307.912 320.152 309.16 319.479 309.98C318.805 310.801 317.946 311.211 316.903 311.211C315.878 311.211 315.022 310.801 314.337 309.98C313.657 309.154 313.317 307.938 313.317 306.333ZM314.645 306.333C314.645 307.54 314.864 308.439 315.304 309.031C315.743 309.617 316.288 309.91 316.938 309.91C317.548 309.91 318.069 309.614 318.503 309.022C318.942 308.425 319.162 307.528 319.162 306.333C319.162 305.132 318.942 304.238 318.503 303.652C318.063 303.061 317.519 302.765 316.868 302.765C316.253 302.765 315.729 303.061 315.295 303.652C314.861 304.244 314.645 305.138 314.645 306.333ZM325.762 301.666H331.8V311H330.508V302.976H327.054V311H325.762V301.666ZM333.044 306.333C333.044 304.722 333.381 303.506 334.054 302.686C334.734 301.865 335.593 301.455 336.63 301.455C337.649 301.455 338.502 301.865 339.187 302.686C339.873 303.506 340.216 304.689 340.216 306.236C340.216 307.912 339.879 309.16 339.205 309.98C338.531 310.801 337.673 311.211 336.63 311.211C335.604 311.211 334.749 310.801 334.063 309.98C333.384 309.154 333.044 307.938 333.044 306.333ZM334.371 306.333C334.371 307.54 334.591 308.439 335.03 309.031C335.469 309.617 336.014 309.91 336.665 309.91C337.274 309.91 337.796 309.614 338.229 309.022C338.669 308.425 338.888 307.528 338.888 306.333C338.888 305.132 338.669 304.238 338.229 303.652C337.79 303.061 337.245 302.765 336.594 302.765C335.979 302.765 335.455 303.061 335.021 303.652C334.588 304.244 334.371 305.138 334.371 306.333ZM341.081 301.666H342.373V303.433C342.373 304.206 342.414 304.771 342.496 305.129C342.578 305.48 342.763 305.776 343.05 306.017C343.337 306.251 343.68 306.368 344.078 306.368C344.576 306.368 345.218 306.21 346.003 305.894V301.666H347.295V311H346.003V307.238C345.2 307.543 344.453 307.695 343.762 307.695C343.006 307.695 342.37 307.399 341.854 306.808C341.339 306.21 341.081 305.311 341.081 304.109V301.666ZM349.066 301.666H350.358V308.785L353.961 301.666H355.359V311H354.067V303.925L350.463 311H349.066V301.666ZM356.426 301.666H362.649V302.976H360.188V311H358.887V302.976H356.426V301.666ZM368.665 309.849C368.231 310.3 367.78 310.64 367.311 310.868C366.842 311.097 366.356 311.211 365.852 311.211C365.055 311.211 364.42 310.971 363.945 310.49C363.47 310.01 363.233 309.362 363.233 308.548C363.233 308.009 363.344 307.531 363.567 307.115C363.79 306.699 364.094 306.374 364.481 306.14C364.868 305.905 365.454 305.732 366.239 305.621C367.294 305.469 368.067 305.287 368.559 305.076L368.568 304.672C368.568 304.033 368.454 303.585 368.225 303.327C367.903 302.952 367.408 302.765 366.74 302.765C366.136 302.765 365.685 302.891 365.386 303.143C365.088 303.389 364.868 303.854 364.727 304.54L363.453 304.329C363.634 303.327 364.001 302.598 364.551 302.141C365.108 301.684 365.902 301.455 366.933 301.455C367.736 301.455 368.366 301.607 368.823 301.912C369.28 302.211 369.567 302.583 369.684 303.028C369.807 303.474 369.869 304.124 369.869 304.979V307.089C369.869 308.565 369.895 309.497 369.948 309.884C370.007 310.265 370.118 310.637 370.282 311H368.928C368.794 310.678 368.706 310.294 368.665 309.849ZM368.559 306.315C368.085 306.55 367.379 306.749 366.441 306.913C365.896 307.007 365.515 307.115 365.299 307.238C365.082 307.355 364.912 307.525 364.789 307.748C364.672 307.965 364.613 308.217 364.613 308.504C364.613 308.949 364.751 309.307 365.026 309.576C365.301 309.84 365.682 309.972 366.169 309.972C366.632 309.972 367.051 309.852 367.426 309.611C367.806 309.371 368.091 309.052 368.278 308.653C368.466 308.249 368.559 307.663 368.559 306.896V306.315ZM371.007 301.666H377.229V302.976H374.769V311H373.468V302.976H371.007V301.666ZM378.253 301.666H379.545V305.313H381.197C382.381 305.313 383.234 305.592 383.755 306.148C384.277 306.705 384.537 307.379 384.537 308.17C384.537 308.92 384.3 309.579 383.825 310.147C383.357 310.716 382.58 311 381.496 311H378.253V301.666ZM379.545 309.699H380.907C381.898 309.699 382.528 309.541 382.797 309.225C383.067 308.908 383.201 308.56 383.201 308.179C383.201 307.681 383.046 307.297 382.736 307.027C382.425 306.758 381.874 306.623 381.083 306.623H379.545V309.699ZM386.167 311V309.198H387.644V311H386.167ZM390.083 311V309.198H391.559V311H390.083ZM393.998 311V309.198H395.475V311H393.998ZM397.913 311V309.198H399.39V311H397.913ZM401.829 311V309.198H403.305V311H401.829Z" fill="black"/>
</g>
<g filter="url(#filter7_d_164_314)">
<rect x="1292" y="255" width="28" height="28" rx="6" fill="#3F7FF8"/>
<rect x="1292.5" y="255.5" width="27" height="27" rx="5.5" stroke="white"/>
</g>
<g filter="url(#filter8_d_164_314)">
<rect x="1329" y="255" width="28" height="28" rx="6" fill="#3F7FF8"/>
<rect x="1329.5" y="255.5" width="27" height="27" rx="5.5" stroke="white"/>
</g>
<g filter="url(#filter9_d_164_314)">
<rect x="1366" y="255" width="28" height="28" rx="6" fill="#FF5151"/>
<rect x="1366.5" y="255.5" width="27" height="27" rx="5.5" stroke="white"/>
</g>
<rect x="1295" y="275" width="14" height="3" fill="white"/>
<rect x="1334" y="262" width="16" height="2" fill="white"/>
<rect x="1334" y="275" width="16" height="2" fill="white"/>
<rect x="1336" y="263" width="13" height="2" transform="rotate(90 1336 263)" fill="white"/>
<path d="M1307.74 275H1305.22L1304.21 271.813H1299.62L1298.67 275H1296.2L1300.68 260.97H1303.14L1307.74 275ZM1303.46 269.449L1301.89 264.243L1300.33 269.449H1303.46Z" fill="white"/>
<path d="M1383.52 277.672L1370.6 268.432L1372.06 266.397L1380.67 272.554L1375.12 262.114L1376.66 259.973L1389.57 269.213L1388.12 271.248L1379.69 265.223L1385.06 275.522L1383.52 277.672Z" fill="white"/>
<path d="M307.291 214.048C313.612 207.62 322.25 204 331.265 204H504.367C513.477 204 522.197 207.696 528.532 214.243L567 254H268L307.291 214.048Z" fill="#135FFF"/>
<mask id="path-21-outside-1_164_314" maskUnits="userSpaceOnUse" x="343" y="234" width="134" height="34" fill="black">
<rect fill="white" x="343" y="234" width="134" height="34"/>
<path d="M361.363 254.553L365.257 255.171C364.81 258.573 363.682 261.169 361.873 262.959C360.083 264.749 357.926 265.645 355.401 265.645C352.34 265.645 349.815 264.391 347.828 261.885C345.859 259.36 344.874 255.636 344.874 250.713C344.874 245.754 345.867 242.039 347.855 239.568C349.86 237.079 352.429 235.835 355.562 235.835C357.979 235.835 360.011 236.587 361.658 238.091C363.324 239.595 364.389 241.851 364.854 244.858L361.014 245.583C360.638 243.65 359.985 242.209 359.054 241.26C358.123 240.293 357.004 239.81 355.697 239.81C353.745 239.81 352.125 240.678 350.836 242.415C349.565 244.133 348.929 246.873 348.929 250.632C348.929 254.517 349.538 257.328 350.755 259.065C351.991 260.802 353.566 261.67 355.482 261.67C356.986 261.67 358.266 261.097 359.322 259.951C360.396 258.787 361.077 256.988 361.363 254.553ZM365.914 236.479H384.928V240.481H377.408V265H373.434V240.481H365.914V236.479ZM403.31 261.482C401.985 262.861 400.606 263.899 399.174 264.597C397.742 265.295 396.256 265.645 394.716 265.645C392.281 265.645 390.339 264.91 388.888 263.442C387.438 261.974 386.713 259.996 386.713 257.507C386.713 255.86 387.053 254.401 387.734 253.13C388.414 251.859 389.345 250.865 390.527 250.149C391.708 249.433 393.499 248.905 395.898 248.564C399.12 248.099 401.484 247.544 402.988 246.899L403.014 245.664C403.014 243.713 402.665 242.343 401.967 241.555C400.982 240.409 399.469 239.836 397.428 239.836C395.584 239.836 394.206 240.221 393.293 240.991C392.38 241.743 391.708 243.167 391.279 245.261L387.385 244.617C387.94 241.555 389.059 239.326 390.741 237.93C392.442 236.533 394.868 235.835 398.019 235.835C400.472 235.835 402.397 236.3 403.793 237.231C405.19 238.145 406.067 239.281 406.425 240.642C406.801 242.003 406.989 243.99 406.989 246.604V253.049C406.989 257.561 407.07 260.408 407.231 261.589C407.41 262.753 407.75 263.89 408.251 265H404.115C403.704 264.015 403.435 262.843 403.31 261.482ZM402.988 250.686C401.537 251.402 399.38 252.011 396.515 252.512C394.85 252.799 393.687 253.13 393.024 253.506C392.362 253.864 391.843 254.383 391.467 255.063C391.108 255.726 390.929 256.496 390.929 257.373C390.929 258.734 391.35 259.826 392.192 260.649C393.033 261.455 394.197 261.858 395.683 261.858C397.097 261.858 398.377 261.491 399.523 260.757C400.687 260.023 401.555 259.047 402.128 257.83C402.701 256.594 402.988 254.804 402.988 252.458V250.686ZM410.466 236.479H429.48V240.481H421.96V265H417.986V240.481H410.466V236.479ZM432.608 236.479H436.555V247.625H441.604C445.221 247.625 447.826 248.475 449.419 250.176C451.013 251.877 451.809 253.936 451.809 256.353C451.809 258.644 451.084 260.658 449.634 262.395C448.202 264.132 445.829 265 442.517 265H432.608V236.479ZM436.555 261.025H440.718C443.744 261.025 445.668 260.542 446.492 259.575C447.315 258.608 447.727 257.543 447.727 256.379C447.727 254.858 447.253 253.685 446.304 252.861C445.355 252.038 443.672 251.626 441.255 251.626H436.555V261.025ZM455.609 236.479H459.556V258.232L470.567 236.479H474.837V265H470.889V243.381L459.879 265H455.609V236.479Z"/>
</mask>
<path d="M361.363 254.553L365.257 255.171C364.81 258.573 363.682 261.169 361.873 262.959C360.083 264.749 357.926 265.645 355.401 265.645C352.34 265.645 349.815 264.391 347.828 261.885C345.859 259.36 344.874 255.636 344.874 250.713C344.874 245.754 345.867 242.039 347.855 239.568C349.86 237.079 352.429 235.835 355.562 235.835C357.979 235.835 360.011 236.587 361.658 238.091C363.324 239.595 364.389 241.851 364.854 244.858L361.014 245.583C360.638 243.65 359.985 242.209 359.054 241.26C358.123 240.293 357.004 239.81 355.697 239.81C353.745 239.81 352.125 240.678 350.836 242.415C349.565 244.133 348.929 246.873 348.929 250.632C348.929 254.517 349.538 257.328 350.755 259.065C351.991 260.802 353.566 261.67 355.482 261.67C356.986 261.67 358.266 261.097 359.322 259.951C360.396 258.787 361.077 256.988 361.363 254.553ZM365.914 236.479H384.928V240.481H377.408V265H373.434V240.481H365.914V236.479ZM403.31 261.482C401.985 262.861 400.606 263.899 399.174 264.597C397.742 265.295 396.256 265.645 394.716 265.645C392.281 265.645 390.339 264.91 388.888 263.442C387.438 261.974 386.713 259.996 386.713 257.507C386.713 255.86 387.053 254.401 387.734 253.13C388.414 251.859 389.345 250.865 390.527 250.149C391.708 249.433 393.499 248.905 395.898 248.564C399.12 248.099 401.484 247.544 402.988 246.899L403.014 245.664C403.014 243.713 402.665 242.343 401.967 241.555C400.982 240.409 399.469 239.836 397.428 239.836C395.584 239.836 394.206 240.221 393.293 240.991C392.38 241.743 391.708 243.167 391.279 245.261L387.385 244.617C387.94 241.555 389.059 239.326 390.741 237.93C392.442 236.533 394.868 235.835 398.019 235.835C400.472 235.835 402.397 236.3 403.793 237.231C405.19 238.145 406.067 239.281 406.425 240.642C406.801 242.003 406.989 243.99 406.989 246.604V253.049C406.989 257.561 407.07 260.408 407.231 261.589C407.41 262.753 407.75 263.89 408.251 265H404.115C403.704 264.015 403.435 262.843 403.31 261.482ZM402.988 250.686C401.537 251.402 399.38 252.011 396.515 252.512C394.85 252.799 393.687 253.13 393.024 253.506C392.362 253.864 391.843 254.383 391.467 255.063C391.108 255.726 390.929 256.496 390.929 257.373C390.929 258.734 391.35 259.826 392.192 260.649C393.033 261.455 394.197 261.858 395.683 261.858C397.097 261.858 398.377 261.491 399.523 260.757C400.687 260.023 401.555 259.047 402.128 257.83C402.701 256.594 402.988 254.804 402.988 252.458V250.686ZM410.466 236.479H429.48V240.481H421.96V265H417.986V240.481H410.466V236.479ZM432.608 236.479H436.555V247.625H441.604C445.221 247.625 447.826 248.475 449.419 250.176C451.013 251.877 451.809 253.936 451.809 256.353C451.809 258.644 451.084 260.658 449.634 262.395C448.202 264.132 445.829 265 442.517 265H432.608V236.479ZM436.555 261.025H440.718C443.744 261.025 445.668 260.542 446.492 259.575C447.315 258.608 447.727 257.543 447.727 256.379C447.727 254.858 447.253 253.685 446.304 252.861C445.355 252.038 443.672 251.626 441.255 251.626H436.555V261.025ZM455.609 236.479H459.556V258.232L470.567 236.479H474.837V265H470.889V243.381L459.879 265H455.609V236.479Z" fill="white"/>
<path d="M361.363 254.553L361.645 252.775L359.794 252.482L359.575 254.343L361.363 254.553ZM365.257 255.171L367.042 255.406L367.27 253.668L365.539 253.393L365.257 255.171ZM361.873 262.959L360.607 261.68L360.601 261.686L361.873 262.959ZM347.828 261.885L346.409 262.992L346.417 263.003L347.828 261.885ZM347.855 239.568L346.453 238.439L346.452 238.44L347.855 239.568ZM361.658 238.091L360.445 239.42L360.452 239.427L361.658 238.091ZM364.854 244.858L365.188 246.627L366.899 246.304L366.633 244.583L364.854 244.858ZM361.014 245.583L359.247 245.927L359.589 247.684L361.348 247.352L361.014 245.583ZM359.054 241.26L357.757 242.508L357.763 242.514L357.769 242.52L359.054 241.26ZM350.836 242.415L349.39 241.342L349.389 241.344L350.836 242.415ZM350.755 259.065L349.281 260.098L349.288 260.108L350.755 259.065ZM359.322 259.951L357.999 258.73L357.999 258.731L359.322 259.951ZM361.363 254.553L361.081 256.331L364.975 256.949L365.257 255.171L365.539 253.393L361.645 252.775L361.363 254.553ZM365.257 255.171L363.473 254.936C363.059 258.079 362.047 260.254 360.607 261.68L361.873 262.959L363.14 264.238C365.316 262.083 366.56 259.066 367.042 255.406L365.257 255.171ZM361.873 262.959L360.601 261.686C359.147 263.14 357.447 263.845 355.401 263.845V265.645V267.445C358.405 267.445 361.019 266.359 363.146 264.232L361.873 262.959ZM355.401 265.645V263.845C352.917 263.845 350.902 262.865 349.238 260.766L347.828 261.885L346.417 263.003C348.728 265.918 351.762 267.445 355.401 267.445V265.645ZM347.828 261.885L349.247 260.778C347.626 258.7 346.674 255.439 346.674 250.713H344.874H343.074C343.074 255.834 344.091 260.021 346.409 262.992L347.828 261.885ZM344.874 250.713H346.674C346.674 245.946 347.637 242.711 349.257 240.696L347.855 239.568L346.452 238.44C344.098 241.367 343.074 245.561 343.074 250.713H344.874ZM347.855 239.568L349.256 240.697C350.928 238.623 352.986 237.635 355.562 237.635V235.835V234.035C351.872 234.035 348.792 235.536 346.453 238.439L347.855 239.568ZM355.562 235.835V237.635C357.571 237.635 359.158 238.245 360.445 239.42L361.658 238.091L362.872 236.762C360.864 234.928 358.388 234.035 355.562 234.035V235.835ZM361.658 238.091L360.452 239.427C361.716 240.569 362.651 242.389 363.075 245.134L364.854 244.858L366.633 244.583C366.127 241.312 364.931 238.621 362.865 236.755L361.658 238.091ZM364.854 244.858L364.52 243.09L360.68 243.815L361.014 245.583L361.348 247.352L365.188 246.627L364.854 244.858ZM361.014 245.583L362.781 245.24C362.368 243.117 361.609 241.294 360.338 239.999L359.054 241.26L357.769 242.52C358.36 243.123 358.908 244.183 359.247 245.927L361.014 245.583ZM359.054 241.26L360.35 240.011C359.09 238.703 357.507 238.01 355.697 238.01V239.81V241.61C356.5 241.61 357.155 241.883 357.757 242.508L359.054 241.26ZM355.697 239.81V238.01C353.108 238.01 350.977 239.205 349.39 241.342L350.836 242.415L352.281 243.487C353.273 242.151 354.382 241.61 355.697 241.61V239.81ZM350.836 242.415L349.389 241.344C347.771 243.531 347.129 246.747 347.129 250.632H348.929H350.729C350.729 246.998 351.358 244.736 352.283 243.485L350.836 242.415ZM348.929 250.632H347.129C347.129 254.621 347.738 257.896 349.281 260.098L350.755 259.065L352.229 258.032C351.338 256.76 350.729 254.414 350.729 250.632H348.929ZM350.755 259.065L349.288 260.108C350.817 262.258 352.911 263.47 355.482 263.47V261.67V259.87C354.221 259.87 353.164 259.346 352.222 258.022L350.755 259.065ZM355.482 261.67V263.47C357.509 263.47 359.262 262.672 360.646 261.171L359.322 259.951L357.999 258.731C357.269 259.522 356.463 259.87 355.482 259.87V261.67ZM359.322 259.951L360.645 261.172C362.083 259.614 362.843 257.382 363.151 254.764L361.363 254.553L359.575 254.343C359.311 256.594 358.709 257.961 357.999 258.73L359.322 259.951ZM365.914 236.479V234.679H364.114V236.479H365.914ZM384.928 236.479H386.728V234.679H384.928V236.479ZM384.928 240.481V242.281H386.728V240.481H384.928ZM377.408 240.481V238.681H375.608V240.481H377.408ZM377.408 265V266.8H379.208V265H377.408ZM373.434 265H371.634V266.8H373.434V265ZM373.434 240.481H375.234V238.681H373.434V240.481ZM365.914 240.481H364.114V242.281H365.914V240.481ZM365.914 236.479V238.279H384.928V236.479V234.679H365.914V236.479ZM384.928 236.479H383.128V240.481H384.928H386.728V236.479H384.928ZM384.928 240.481V238.681H377.408V240.481V242.281H384.928V240.481ZM377.408 240.481H375.608V265H377.408H379.208V240.481H377.408ZM377.408 265V263.2H373.434V265V266.8H377.408V265ZM373.434 265H375.234V240.481H373.434H371.634V265H373.434ZM373.434 240.481V238.681H365.914V240.481V242.281H373.434V240.481ZM365.914 240.481H367.714V236.479H365.914H364.114V240.481H365.914ZM403.31 261.482L405.102 261.317L404.741 257.395L402.012 260.235L403.31 261.482ZM399.174 264.597L398.385 262.979L399.174 264.597ZM395.898 248.564L396.15 250.347L396.155 250.346L395.898 248.564ZM402.988 246.899L403.697 248.554L404.762 248.097L404.787 246.939L402.988 246.899ZM403.014 245.664L404.814 245.703L404.814 245.684V245.664H403.014ZM401.967 241.555L400.602 242.728L400.611 242.739L400.62 242.749L401.967 241.555ZM393.293 240.991L394.437 242.381L394.445 242.374L394.453 242.367L393.293 240.991ZM391.279 245.261L390.985 247.037L392.694 247.32L393.042 245.623L391.279 245.261ZM387.385 244.617L385.613 244.296L385.287 246.094L387.091 246.393L387.385 244.617ZM390.741 237.93L389.599 236.539L389.592 236.544L390.741 237.93ZM403.793 237.231L402.795 238.729L402.801 238.734L402.808 238.738L403.793 237.231ZM406.425 240.642L404.684 241.1L404.687 241.111L404.69 241.121L406.425 240.642ZM407.231 261.589L405.447 261.833L405.449 261.848L405.452 261.863L407.231 261.589ZM408.251 265V266.8H411.039L409.892 264.259L408.251 265ZM404.115 265L402.455 265.694L402.917 266.8H404.115V265ZM402.988 250.686H404.788V247.79L402.191 249.072L402.988 250.686ZM396.515 252.512L396.821 254.286L396.826 254.285L396.515 252.512ZM393.024 253.506L393.88 255.089L393.896 255.08L393.913 255.071L393.024 253.506ZM391.467 255.063L389.891 254.193L389.887 254.2L389.883 254.208L391.467 255.063ZM392.192 260.649L390.933 261.936L390.94 261.943L390.947 261.95L392.192 260.649ZM399.523 260.757L398.563 259.234L398.552 259.241L399.523 260.757ZM402.128 257.83L403.757 258.596L403.761 258.587L402.128 257.83ZM403.31 261.482L402.012 260.235C400.805 261.49 399.594 262.39 398.385 262.979L399.174 264.597L399.963 266.215C401.619 265.408 403.165 264.231 404.608 262.729L403.31 261.482ZM399.174 264.597L398.385 262.979C397.19 263.562 395.973 263.845 394.716 263.845V265.645V267.445C396.539 267.445 398.294 267.029 399.963 266.215L399.174 264.597ZM394.716 265.645V263.845C392.669 263.845 391.221 263.242 390.169 262.177L388.888 263.442L387.608 264.707C389.457 266.579 391.893 267.445 394.716 267.445V265.645ZM388.888 263.442L390.169 262.177C389.118 261.114 388.513 259.626 388.513 257.507H386.713H384.913C384.913 260.365 385.758 262.835 387.608 264.707L388.888 263.442ZM386.713 257.507H388.513C388.513 256.114 388.799 254.954 389.321 253.979L387.734 253.13L386.147 252.281C385.308 253.848 384.913 255.606 384.913 257.507H386.713ZM387.734 253.13L389.321 253.979C389.856 252.98 390.566 252.23 391.46 251.688L390.527 250.149L389.594 248.61C388.124 249.5 386.972 250.738 386.147 252.281L387.734 253.13ZM390.527 250.149L391.46 251.688C392.332 251.16 393.838 250.675 396.15 250.347L395.898 248.564L395.645 246.782C393.159 247.135 391.085 247.706 389.594 248.61L390.527 250.149ZM395.898 248.564L396.155 250.346C399.412 249.876 401.968 249.295 403.697 248.554L402.988 246.899L402.279 245.245C401 245.793 398.829 246.322 395.64 246.783L395.898 248.564ZM402.988 246.899L404.787 246.939L404.814 245.703L403.014 245.664L401.215 245.625L401.188 246.86L402.988 246.899ZM403.014 245.664H404.814C404.814 243.605 404.468 241.663 403.314 240.361L401.967 241.555L400.62 242.749C400.863 243.023 401.214 243.82 401.214 245.664H403.014ZM401.967 241.555L403.332 240.382C401.897 238.712 399.8 238.036 397.428 238.036V239.836V241.636C399.139 241.636 400.068 242.107 400.602 242.728L401.967 241.555ZM397.428 239.836V238.036C395.38 238.036 393.506 238.457 392.132 239.615L393.293 240.991L394.453 242.367C394.906 241.986 395.789 241.636 397.428 241.636V239.836ZM393.293 240.991L392.148 239.602C390.747 240.756 389.969 242.69 389.515 244.9L391.279 245.261L393.042 245.623C393.448 243.643 394.012 242.731 394.437 242.381L393.293 240.991ZM391.279 245.261L391.573 243.485L387.678 242.841L387.385 244.617L387.091 246.393L390.985 247.037L391.279 245.261ZM387.385 244.617L389.156 244.938C389.667 242.12 390.648 240.346 391.891 239.315L390.741 237.93L389.592 236.544C387.469 238.306 386.213 240.991 385.613 244.296L387.385 244.617ZM390.741 237.93L391.884 239.321C393.149 238.282 395.109 237.635 398.019 237.635V235.835V234.035C394.628 234.035 391.736 234.784 389.599 236.539L390.741 237.93ZM398.019 235.835V237.635C400.272 237.635 401.801 238.067 402.795 238.729L403.793 237.231L404.792 235.734C402.992 234.534 400.672 234.035 398.019 234.035V235.835ZM403.793 237.231L402.808 238.738C403.905 239.455 404.46 240.248 404.684 241.1L406.425 240.642L408.166 240.184C407.674 238.315 406.474 236.834 404.778 235.725L403.793 237.231ZM406.425 240.642L404.69 241.121C405.001 242.246 405.189 244.039 405.189 246.604H406.989H408.789C408.789 243.941 408.601 241.76 408.16 240.163L406.425 240.642ZM406.989 246.604H405.189V253.049H406.989H408.789V246.604H406.989ZM406.989 253.049H405.189C405.189 257.52 405.266 260.504 405.447 261.833L407.231 261.589L409.014 261.346C408.873 260.312 408.789 257.602 408.789 253.049H406.989ZM407.231 261.589L405.452 261.863C405.656 263.194 406.045 264.487 406.611 265.741L408.251 265L409.892 264.259C409.455 263.293 409.163 262.313 409.01 261.316L407.231 261.589ZM408.251 265V263.2H404.115V265V266.8H408.251V265ZM404.115 265L405.776 264.306C405.451 263.529 405.215 262.544 405.102 261.317L403.31 261.482L401.517 261.647C401.655 263.141 401.956 264.501 402.455 265.694L404.115 265ZM402.988 250.686L402.191 249.072C400.971 249.675 399.012 250.248 396.205 250.739L396.515 252.512L396.826 254.285C399.747 253.774 402.104 253.13 403.785 252.3L402.988 250.686ZM396.515 252.512L396.21 250.738C394.528 251.028 393.092 251.397 392.136 251.94L393.024 253.506L393.913 255.071C394.281 254.862 395.172 254.57 396.821 254.286L396.515 252.512ZM393.024 253.506L392.168 251.922C391.193 252.45 390.428 253.221 389.891 254.193L391.467 255.063L393.042 255.934C393.257 255.545 393.531 255.278 393.88 255.089L393.024 253.506ZM391.467 255.063L389.883 254.208C389.361 255.173 389.129 256.246 389.129 257.373H390.929H392.729C392.729 256.745 392.856 256.279 393.05 255.919L391.467 255.063ZM390.929 257.373H389.129C389.129 259.136 389.691 260.72 390.933 261.936L392.192 260.649L393.451 259.363C393.01 258.931 392.729 258.331 392.729 257.373H390.929ZM392.192 260.649L390.947 261.95C392.209 263.158 393.866 263.658 395.683 263.658V261.858V260.058C394.528 260.058 393.858 259.753 393.436 259.349L392.192 260.649ZM395.683 261.858V263.658C397.427 263.658 399.047 263.2 400.494 262.272L399.523 260.757L398.552 259.241C397.708 259.782 396.767 260.058 395.683 260.058V261.858ZM399.523 260.757L400.484 262.279C401.931 261.366 403.034 260.131 403.757 258.596L402.128 257.83L400.5 257.063C400.076 257.963 399.443 258.679 398.563 259.234L399.523 260.757ZM402.128 257.83L403.761 258.587C404.496 257.001 404.788 254.903 404.788 252.458H402.988H401.188C401.188 254.705 400.906 256.187 400.495 257.072L402.128 257.83ZM402.988 252.458H404.788V250.686H402.988H401.188V252.458H402.988ZM410.466 236.479V234.679H408.666V236.479H410.466ZM429.48 236.479H431.28V234.679H429.48V236.479ZM429.48 240.481V242.281H431.28V240.481H429.48ZM421.96 240.481V238.681H420.16V240.481H421.96ZM421.96 265V266.8H423.76V265H421.96ZM417.986 265H416.186V266.8H417.986V265ZM417.986 240.481H419.786V238.681H417.986V240.481ZM410.466 240.481H408.666V242.281H410.466V240.481ZM410.466 236.479V238.279H429.48V236.479V234.679H410.466V236.479ZM429.48 236.479H427.68V240.481H429.48H431.28V236.479H429.48ZM429.48 240.481V238.681H421.96V240.481V242.281H429.48V240.481ZM421.96 240.481H420.16V265H421.96H423.76V240.481H421.96ZM421.96 265V263.2H417.986V265V266.8H421.96V265ZM417.986 265H419.786V240.481H417.986H416.186V265H417.986ZM417.986 240.481V238.681H410.466V240.481V242.281H417.986V240.481ZM410.466 240.481H412.266V236.479H410.466H408.666V240.481H410.466ZM432.608 236.479V234.679H430.808V236.479H432.608ZM436.555 236.479H438.355V234.679H436.555V236.479ZM436.555 247.625H434.755V249.425H436.555V247.625ZM449.419 250.176L448.106 251.406L449.419 250.176ZM449.634 262.395L448.252 261.241L448.245 261.25L449.634 262.395ZM432.608 265H430.808V266.8H432.608V265ZM436.555 261.025H434.755V262.825H436.555V261.025ZM436.555 251.626V249.826H434.755V251.626H436.555ZM432.608 236.479V238.279H436.555V236.479V234.679H432.608V236.479ZM436.555 236.479H434.755V247.625H436.555H438.355V236.479H436.555ZM436.555 247.625V249.425H441.604V247.625V245.825H436.555V247.625ZM441.604 247.625V249.425C444.993 249.425 447.001 250.228 448.106 251.406L449.419 250.176L450.733 248.945C448.65 246.722 445.448 245.825 441.604 245.825V247.625ZM449.419 250.176L448.106 251.406C449.374 252.76 450.009 254.374 450.009 256.353H451.809H453.609C453.609 253.497 452.651 250.993 450.733 248.945L449.419 250.176ZM451.809 256.353H450.009C450.009 258.228 449.428 259.833 448.252 261.241L449.634 262.395L451.016 263.549C452.74 261.484 453.609 259.06 453.609 256.353H451.809ZM449.634 262.395L448.245 261.25C447.292 262.406 445.552 263.2 442.517 263.2V265V266.8C446.107 266.8 449.112 265.857 451.023 263.54L449.634 262.395ZM442.517 265V263.2H432.608V265V266.8H442.517V265ZM432.608 265H434.408V236.479H432.608H430.808V265H432.608ZM436.555 261.025V262.825H440.718V261.025V259.225H436.555V261.025ZM440.718 261.025V262.825C442.31 262.825 443.71 262.7 444.869 262.409C446.005 262.123 447.106 261.631 447.862 260.742L446.492 259.575L445.122 258.408C445.055 258.487 444.781 258.719 443.992 258.917C443.227 259.109 442.152 259.225 440.718 259.225V261.025ZM446.492 259.575L447.862 260.742C448.936 259.482 449.527 258.011 449.527 256.379H447.727H445.927C445.927 257.075 445.695 257.735 445.122 258.408L446.492 259.575ZM447.727 256.379H449.527C449.527 254.456 448.909 252.739 447.484 251.502L446.304 252.861L445.124 254.221C445.596 254.631 445.927 255.259 445.927 256.379H447.727ZM446.304 252.861L447.484 251.502C446.016 250.228 443.758 249.826 441.255 249.826V251.626V253.426C443.586 253.426 444.694 253.847 445.124 254.221L446.304 252.861ZM441.255 251.626V249.826H436.555V251.626V253.426H441.255V251.626ZM436.555 251.626H434.755V261.025H436.555H438.355V251.626H436.555ZM455.609 236.479V234.679H453.809V236.479H455.609ZM459.556 236.479H461.356V234.679H459.556V236.479ZM459.556 258.232H457.756L461.162 259.045L459.556 258.232ZM470.567 236.479V234.679H469.461L468.961 235.667L470.567 236.479ZM474.837 236.479H476.637V234.679H474.837V236.479ZM474.837 265V266.8H476.637V265H474.837ZM470.889 265H469.089V266.8H470.889V265ZM470.889 243.381H472.689L469.285 242.564L470.889 243.381ZM459.879 265V266.8H460.982L461.483 265.817L459.879 265ZM455.609 265H453.809V266.8H455.609V265ZM455.609 236.479V238.279H459.556V236.479V234.679H455.609V236.479ZM459.556 236.479H457.756V258.232H459.556H461.356V236.479H459.556ZM459.556 258.232L461.162 259.045L472.173 237.292L470.567 236.479L468.961 235.667L457.95 257.42L459.556 258.232ZM470.567 236.479V238.279H474.837V236.479V234.679H470.567V236.479ZM474.837 236.479H473.037V265H474.837H476.637V236.479H474.837ZM474.837 265V263.2H470.889V265V266.8H474.837V265ZM470.889 265H472.689V243.381H470.889H469.089V265H470.889ZM470.889 243.381L469.285 242.564L458.275 264.183L459.879 265L461.483 265.817L472.493 244.198L470.889 243.381ZM459.879 265V263.2H455.609V265V266.8H459.879V265ZM455.609 265H457.409V236.479H455.609H453.809V265H455.609Z" fill="black" mask="url(#path-21-outside-1_164_314)"/>
<defs>
<filter id="filter0_dddddd_164_314" x="0" y="0" width="1658" height="850" filterUnits="userSpaceOnUse" color-interpolation-filters="sRGB">
<feFlood flood-opacity="0" result="BackgroundImageFix"/>
<feColorMatrix in="SourceAlpha" type="matrix" values="0 0 0 0 0 0 0 0 0 0 0 0 0 0 0 0 0 0 127 0" result="hardAlpha"/>
<feOffset/>
<feGaussianBlur stdDeviation="3.53914"/>
<feColorMatrix type="matrix" values="0 0 0 0 1 0 0 0 0 1 0 0 0 0 1 0 0 0 1 0"/>
<feBlend mode="normal" in2="BackgroundImageFix" result="effect1_dropShadow_164_314"/>
<feColorMatrix in="SourceAlpha" type="matrix" values="0 0 0 0 0 0 0 0 0 0 0 0 0 0 0 0 0 0 127 0" result="hardAlpha"/>
<feOffset/>
<feGaussianBlur stdDeviation="7.07828"/>
<feColorMatrix type="matrix" values="0 0 0 0 1 0 0 0 0 1 0 0 0 0 1 0 0 0 1 0"/>
<feBlend mode="normal" in2="effect1_dropShadow_164_314" result="effect2_dropShadow_164_314"/>
<feColorMatrix in="SourceAlpha" type="matrix" values="0 0 0 0 0 0 0 0 0 0 0 0 0 0 0 0 0 0 127 0" result="hardAlpha"/>
<feOffset/>
<feGaussianBlur stdDeviation="24.774"/>
<feColorMatrix type="matrix" values="0 0 0 0 1 0 0 0 0 1 0 0 0 0 1 0 0 0 1 0"/>
<feBlend mode="normal" in2="effect2_dropShadow_164_314" result="effect3_dropShadow_164_314"/>
<feColorMatrix in="SourceAlpha" type="matrix" values="0 0 0 0 0 0 0 0 0 0 0 0 0 0 0 0 0 0 127 0" result="hardAlpha"/>
<feOffset/>
<feGaussianBlur stdDeviation="49.5479"/>
<feColorMatrix type="matrix" values="0 0 0 0 1 0 0 0 0 1 0 0 0 0 1 0 0 0 1 0"/>
<feBlend mode="normal" in2="effect3_dropShadow_164_314" result="effect4_dropShadow_164_314"/>
<feColorMatrix in="SourceAlpha" type="matrix" values="0 0 0 0 0 0 0 0 0 0 0 0 0 0 0 0 0 0 127 0" result="hardAlpha"/>
<feOffset/>
<feGaussianBlur stdDeviation="84.9393"/>
<feColorMatrix type="matrix" values="0 0 0 0 1 0 0 0 0 1 0 0 0 0 1 0 0 0 1 0"/>
<feBlend mode="normal" in2="effect4_dropShadow_164_314" result="effect5_dropShadow_164_314"/>
<feColorMatrix in="SourceAlpha" type="matrix" values="0 0 0 0 0 0 0 0 0 0 0 0 0 0 0 0 0 0 127 0" result="hardAlpha"/>
<feOffset/>
<feGaussianBlur stdDeviation="125"/>
<feColorMatrix type="matrix" values="0 0 0 0 1 0 0 0 0 1 0 0 0 0 1 0 0 0 1 0"/>
<feBlend mode="normal" in2="effect5_dropShadow_164_314" result="effect6_dropShadow_164_314"/>
<feBlend mode="normal" in="SourceGraphic" in2="effect6_dropShadow_164_314" result="shape"/>
</filter>
<filter id="filter1_d_164_314" x="246" y="288" width="1166" height="42" filterUnits="userSpaceOnUse" color-interpolation-filters="sRGB">
<feFlood flood-opacity="0" result="BackgroundImageFix"/>
<feColorMatrix in="SourceAlpha" type="matrix" values="0 0 0 0 0 0 0 0 0 0 0 0 0 0 0 0 0 0 127 0" result="hardAlpha"/>
<feOffset dy="4"/>
<feGaussianBlur stdDeviation="2"/>
<feComposite in2="hardAlpha" operator="out"/>
<feColorMatrix type="matrix" values="0 0 0 0 0 0 0 0 0 0 0 0 0 0 0 0 0 0 0.25 0"/>
<feBlend mode="normal" in2="BackgroundImageFix" result="effect1_dropShadow_164_314"/>
<feBlend mode="normal" in="SourceGraphic" in2="effect1_dropShadow_164_314" result="shape"/>
</filter>
<filter id="filter2_d_164_314" x="1384" y="322" width="28" height="260" filterUnits="userSpaceOnUse" color-interpolation-filters="sRGB">
<feFlood flood-opacity="0" result="BackgroundImageFix"/>
<feColorMatrix in="SourceAlpha" type="matrix" values="0 0 0 0 0 0 0 0 0 0 0 0 0 0 0 0 0 0 127 0" result="hardAlpha"/>
<feOffset dy="4"/>
<feGaussianBlur stdDeviation="2"/>
<feComposite in2="hardAlpha" operator="out"/>
<feColorMatrix type="matrix" values="0 0 0 0 0 0 0 0 0 0 0 0 0 0 0 0 0 0 0.25 0"/>
<feBlend mode="normal" in2="BackgroundImageFix" result="effect1_dropShadow_164_314"/>
<feBlend mode="normal" in="SourceGraphic" in2="effect1_dropShadow_164_314" result="shape"/>
</filter>
<filter id="filter3_d_164_314" x="243" y="247" width="1172" height="52" filterUnits="userSpaceOnUse" color-interpolation-filters="sRGB">
<feFlood flood-opacity="0" result="BackgroundImageFix"/>
<feColorMatrix in="SourceAlpha" type="matrix" values="0 0 0 0 0 0 0 0 0 0 0 0 0 0 0 0 0 0 127 0" result="hardAlpha"/>
<feOffset dy="4"/>
<feGaussianBlur stdDeviation="3.5"/>
<feComposite in2="hardAlpha" operator="out"/>
<feColorMatrix type="matrix" values="0 0 0 0 0 0 0 0 0 0 0 0 0 0 0 0 0 0 0.25 0"/>
<feBlend mode="normal" in2="BackgroundImageFix" result="effect1_dropShadow_164_314"/>
<feBlend mode="normal" in="SourceGraphic" in2="effect1_dropShadow_164_314" result="shape"/>
</filter>
<filter id="filter4_d_164_314" x="246" y="584" width="1166" height="25" filterUnits="userSpaceOnUse" color-interpolation-filters="sRGB">
<feFlood flood-opacity="0" result="BackgroundImageFix"/>
<feColorMatrix in="SourceAlpha" type="matrix" values="0 0 0 0 0 0 0 0 0 0 0 0 0 0 0 0 0 0 127 0" result="hardAlpha"/>
<feOffset dy="4"/>
<feGaussianBlur stdDeviation="2"/>
<feComposite in2="hardAlpha" operator="out"/>
<feColorMatrix type="matrix" values="0 0 0 0 0 0 0 0 0 0 0 0 0 0 0 0 0 0 0.25 0"/>
<feBlend mode="normal" in2="BackgroundImageFix" result="effect1_dropShadow_164_314"/>
<feBlend mode="normal" in="SourceGraphic" in2="effect1_dropShadow_164_314" result="shape"/>
</filter>
<filter id="filter5_d_164_314" x="266" y="567" width="1212" height="25" filterUnits="userSpaceOnUse" color-interpolation-filters="sRGB">
<feFlood flood-opacity="0" result="BackgroundImageFix"/>
<feColorMatrix in="SourceAlpha" type="matrix" values="0 0 0 0 0 0 0 0 0 0 0 0 0 0 0 0 0 0 127 0" result="hardAlpha"/>
<feOffset dy="4"/>
<feGaussianBlur stdDeviation="2"/>
<feComposite in2="hardAlpha" operator="out"/>
<feColorMatrix type="matrix" values="0 0 0 0 0 0 0 0 0 0 0 0 0 0 0 0 0 0 0.25 0"/>
<feBlend mode="normal" in2="BackgroundImageFix" result="effect1_dropShadow_164_314"/>
<feBlend mode="normal" in="SourceGraphic" in2="effect1_dropShadow_164_314" result="shape"/>
</filter>
<filter id="filter6_d_164_314" x="246" y="318" width="28" height="291" filterUnits="userSpaceOnUse" color-interpolation-filters="sRGB">
<feFlood flood-opacity="0" result="BackgroundImageFix"/>
<feColorMatrix in="SourceAlpha" type="matrix" values="0 0 0 0 0 0 0 0 0 0 0 0 0 0 0 0 0 0 127 0" result="hardAlpha"/>
<feOffset dy="4"/>
<feGaussianBlur stdDeviation="2"/>
<feComposite in2="hardAlpha" operator="out"/>
<feColorMatrix type="matrix" values="0 0 0 0 0 0 0 0 0 0 0 0 0 0 0 0 0 0 0.25 0"/>
<feBlend mode="normal" in2="BackgroundImageFix" result="effect1_dropShadow_164_314"/>
<feBlend mode="normal" in="SourceGraphic" in2="effect1_dropShadow_164_314" result="shape"/>
</filter>
<filter id="filter7_d_164_314" x="1288" y="255" width="36" height="36" filterUnits="userSpaceOnUse" color-interpolation-filters="sRGB">
<feFlood flood-opacity="0" result="BackgroundImageFix"/>
<feColorMatrix in="SourceAlpha" type="matrix" values="0 0 0 0 0 0 0 0 0 0 0 0 0 0 0 0 0 0 127 0" result="hardAlpha"/>
<feOffset dy="4"/>
<feGaussianBlur stdDeviation="2"/>
<feComposite in2="hardAlpha" operator="out"/>
<feColorMatrix type="matrix" values="0 0 0 0 0 0 0 0 0 0 0 0 0 0 0 0 0 0 0.25 0"/>
<feBlend mode="normal" in2="BackgroundImageFix" result="effect1_dropShadow_164_314"/>
<feBlend mode="normal" in="SourceGraphic" in2="effect1_dropShadow_164_314" result="shape"/>
</filter>
<filter id="filter8_d_164_314" x="1325" y="255" width="36" height="36" filterUnits="userSpaceOnUse" color-interpolation-filters="sRGB">
<feFlood flood-opacity="0" result="BackgroundImageFix"/>
<feColorMatrix in="SourceAlpha" type="matrix" values="0 0 0 0 0 0 0 0 0 0 0 0 0 0 0 0 0 0 127 0" result="hardAlpha"/>
<feOffset dy="4"/>
<feGaussianBlur stdDeviation="2"/>
<feComposite in2="hardAlpha" operator="out"/>
<feColorMatrix type="matrix" values="0 0 0 0 0 0 0 0 0 0 0 0 0 0 0 0 0 0 0.25 0"/>
<feBlend mode="normal" in2="BackgroundImageFix" result="effect1_dropShadow_164_314"/>
<feBlend mode="normal" in="SourceGraphic" in2="effect1_dropShadow_164_314" result="shape"/>
</filter>
<filter id="filter9_d_164_314" x="1362" y="255" width="36" height="36" filterUnits="userSpaceOnUse" color-interpolation-filters="sRGB">
<feFlood flood-opacity="0" result="BackgroundImageFix"/>
<feColorMatrix in="SourceAlpha" type="matrix" values="0 0 0 0 0 0 0 0 0 0 0 0 0 0 0 0 0 0 127 0" result="hardAlpha"/>
<feOffset dy="4"/>
<feGaussianBlur stdDeviation="2"/>
<feComposite in2="hardAlpha" operator="out"/>
<feColorMatrix type="matrix" values="0 0 0 0 0 0 0 0 0 0 0 0 0 0 0 0 0 0 0.25 0"/>
<feBlend mode="normal" in2="BackgroundImageFix" result="effect1_dropShadow_164_314"/>
<feBlend mode="normal" in="SourceGraphic" in2="effect1_dropShadow_164_314" result="shape"/>
</filter>
<clipPath id="clip0_164_314">
<rect width="1158" height="350" fill="white" transform="translate(250 250)"/>
</clipPath>
</defs>
</svg>
