<svg width="55" height="35" viewBox="0 0 55 35" fill="none" xmlns="http://www.w3.org/2000/svg">
<path d="M8.92578 0.5C9.36839 16.3293 16.2993 23.2661 22.0342 24.7285L22.6582 24.8877V0.5H30.5215V14.3965L31.0762 14.3359C33.9527 14.0202 36.8381 12.205 39.2285 9.6377C41.543 7.15182 43.4355 3.91374 44.4492 0.5H52.3203C51.5737 3.81052 50.2028 6.94277 48.2822 9.72168C46.2463 12.6676 43.6368 15.1531 40.6172 17.0225L39.8604 17.4912L40.6543 17.8936C44.0269 19.6026 47.0068 22.0224 49.3965 24.9932C51.6506 27.7955 53.3306 31.0282 54.3408 34.5H45.6172C44.6581 31.2745 42.8224 28.388 40.3135 26.1816C37.7093 23.8915 34.4992 22.4346 31.085 21.9961L30.5215 21.9238V34.5H29.9561C20.6865 34.4999 13.4568 31.2654 8.48047 25.376C3.57158 19.5663 0.811782 11.1182 0.514648 0.5H8.92578Z" fill="white" stroke="black"/>
</svg>
